<svg width="701" height="508" fill="none" xmlns="http://www.w3.org/2000/svg"><path fill-rule="evenodd" clip-rule="evenodd" d="M663.454 371.654c-50.694 102.231-270.07 190.228-488.071 95.747C49.993 413.056 2.561 282.103.077 221.531c-1.953-47.633 33.558-98.418 54.995-120.238C100.642 54.912 343.835-2.857 399.385.11c78.419-2.2 127.341 65.858 189.065 69.103 43.888 2.308 175.31 100.166 75.005 302.441z" fill="#9B51E0"/><path fill-rule="evenodd" clip-rule="evenodd" d="M357.873 214.158c-.255 3.8.057 7.638.922 11.348.365 1.564 2.712 1.853 3.932.809 1.221-1.045 1.546-2.782 1.677-4.383a33 33 0 00-.185-7.108c-.164-1.216-.416-2.471-1.15-3.454-.733-.984-2.074-1.614-3.22-1.175-1.459.56-1.871 2.403-1.976 3.963zm-184.618-93.27c13.398-6.635 29.398-7.824 43.629-3.241a48.236 48.236 0 0115.205-17.269c1.228-.852 2.985-1.622 4.089-.615-.445 7.06-.89 14.141-.473 21.202.325 5.497 1.172 10.963 1.249 16.468.224 15.913-6.015 31.326-14.501 44.789 20.374 13.703 35.734 34.696 42.628 58.262-2.883 1.488-78.33 4.11-119.14.848-.945.64-1.829-.907-1.937-2.044-1.092-11.498-1.705-23.204.68-34.505 2.386-11.301 8.087-22.284 17.505-28.969-8.741-19.031-5.341-42.377-16.005-60.401-.633-1.07-1.166-2.739-.057-3.303.411-.209.902-.144 1.356-.067a43.04 43.04 0 0120.304 9.371c1.492 1.249 3.725.338 5.468-.526zM462.368 239.32c-.051 0 7.747-11.691 12.528-17.13 4.366-4.967 6.926-11.488 7.103-18.099a181.494 181.494 0 01-44.6-7.405c-2.216-.661-4.501-1.41-6.181-3-3.923-3.71-2.952-10.18-.93-15.186a54.412 54.412 0 0110.473-16.512c1.522-1.645 3.173-3.234 4.169-5.241.997-2.006 1.206-4.588-.138-6.381-2.266-3.02-2.743-6.988-2.979-10.756-.236-3.769-.344-7.687-2.056-11.052-1.711-3.366-5.598-5.982-9.21-4.879-.875-1.337.855-2.88 2.378-3.364 5.752-1.828 12.196-.228 17.238 3.089s8.868 8.181 12.154 13.244c1.283 1.976 3.453 4.298 5.544 3.212 14.284-7.417 31.716-8.498 46.806-2.903 2.097.778 5.321 1.111 5.749-1.085 2.13-10.934 11.256-20.17 22.164-22.429-4.287 3.074-4.546 9.328-3.688 14.533.858 5.206 2.37 10.751.229 15.573-1.727 3.892 2.624 7.55 6.147 9.941a62.588 62.588 0 0114.051 13.108c3.929 5.004 7.205 11.436 5.41 17.54-2.35 7.991-11.754 11.154-19.846 13.127l-23.699 5.778c-.145 7.706 2.606 15.433 7.589 21.313 3.997 4.717 9.805 9.579 8.534 15.63 2.662 4.22-22.318 3.998-74.939-.666zm18.959 104.216c2.722 1.684 5.74 3.701 8.852 2.95a38.178 38.178 0 0121.884 1.238c2.931 1.069 5.588-1.964 7.425-4.485a61.704 61.704 0 0120.257-17.773c5.482 9-.072 21.453 4.695 30.852 7.378 14.546 5.418 33.333-4.803 46.043 10.727 10.48 18.02 24.419 20.515 39.206-1.276.376-66.61 8.48-102.485-1.243-.397-10.422 3.361-20.946 10.27-28.759-10.257-12.079-15.261-28.471-13.499-44.22.183-1.639.419-3.387-.311-4.866a85.19 85.19 0 01-7.787-24.626c-.079-.51-.145-1.069.124-1.51.358-.584 1.14-.712 1.823-.768 11.483-.935 23.243 1.898 33.04 7.961zm-310.728 99.448l3.917-23.445c.338-2.028.291-4.745-1.665-5.381-6.099-1.982-11.252-6.696-13.768-12.595-.793-1.859-3.238-2.52-5.183-1.973-1.945.547-3.497 1.978-4.968 3.362.839-3.281 3.854-5.887 7.222-6.243 1.143-1.927-.494-4.588-2.664-5.148-2.169-.56-4.454.418-6.265 1.736-.141-2.088 2.4-3.11 4.325-3.93 1.925-.82 3.806-3.411 2.164-4.709-.716-.566-1.733-.465-2.636-.336l-7.831 1.121c.296-2.102 3.028-2.642 5.144-2.804 2.117-.163 4.849-1.194 4.614-3.304-.907-8.129 1.061-16.373 4.347-23.864 2.721-6.207-5.289-12.422-4.763-19.179.041-.523.165-1.096.587-1.408.504-.372 1.21-.224 1.809-.039a28.335 28.335 0 0111.08 6.475c1.521 1.441 3.971.459 5.884-.395 7.055-3.149 15.325-3.475 22.607-.892 6.575 2.333 12.408-8.92 18.924-6.426l-4.99 16.421c-.459 1.51-.893 3.244-.059 4.584a33.381 33.381 0 014.923 15.014c.288 3.735 1.011 8.78 4.745 9.073-1.626.716-3.42 1.607-3.983 3.292-.563 1.686 1.362 3.909 2.819 2.893 1.258-.878 3.29-.145 3.7 1.332-2.155-.211-4.493.024-6.178 1.385-1.684 1.36-2.345 4.111-.918 5.739 3.133-1.291 6.834-1.121 9.836.45-1.789 1.316-4.247.927-6.464.795-2.216-.133-4.916.379-5.7 2.456-2.618 6.934-9.052 12.284-16.347 13.594-3.593.646-4.169 5.506-3.873 9.144l1.864 22.901c-1.28 1.215-16.139 2.9-22.256.304zm-99.44-32.785a38.69 38.69 0 00.921 11.349c.365 1.564 2.713 1.853 3.933.808 1.22-1.045 1.545-2.782 1.677-4.383a33.004 33.004 0 00-.186-7.107c-.164-1.217-.416-2.471-1.15-3.455-.733-.984-2.074-1.614-3.22-1.174-1.459.559-1.871 2.403-1.975 3.962z" fill="#fff"/><path fill-rule="evenodd" clip-rule="evenodd" d="M366.271 431.151c.456.255.391.988.007 1.342-.384.353-.94.429-1.458.489-1.809.208-3.799.375-5.299-.659l2.287-1.63c-.479-.687-1.419-.827-2.251-.928-.832-.101-1.778-.301-2.183-1.034-.406-.733.478-1.9 1.143-1.39 2.054 1.572 5.074 1.751 7.3.432 1.464-.868 2.851-2.374 4.522-2.048-1.168 2.274-3.482 3.922-6.013 4.283.058.884 1.145 1.522 1.945 1.143zm-290.464-1.185c-1.811.209-3.803.377-5.303-.659l2.304-1.636c-.53-.669-1.478-.783-2.323-.899-.845-.116-1.807-.376-2.157-1.154-.35-.778.697-1.866 1.294-1.257 1.468 1.497 3.905 1.592 5.888.912s3.675-1.99 5.483-3.05c.046 2.675-3.087 4.084-5.665 4.798.06.872 1.14 1.496 1.925 1.113.456.253.394.987.01 1.341-.383.354-.938.431-1.456.491z" fill="#00160A"/><path fill-rule="evenodd" clip-rule="evenodd" d="M71.851 424.683c-2.832-1.056-3.403-4.743-3.519-7.763l-.231-5.995c-.043-1.118-.083-2.262.247-3.332.552-1.785 2.19-3.185 4.038-3.451 1.849-.267 3.815.613 4.848 2.169.59.89.878 1.943 1.104 2.987.481 2.224.722 4.501.716 6.778-.006 2.206-.278 4.511-1.502 6.346-1.225 1.835-3.633 3.031-5.7 2.261zm2.538-1.662c1.466-.462 2.005-2.232 2.213-3.755.36-2.643.39-5.331.09-7.982-.152-1.335-.412-2.719-1.233-3.782-.82-1.063-2.357-1.684-3.555-1.076-1.485.754-1.656 2.77-1.628 4.436l.109 6.51c.022 1.35.058 2.756.684 3.953.625 1.197 2.032 2.102 3.32 1.696zm285.016-16.328c2.014-1.287 4.866-.363 6.382 1.483 1.517 1.846 1.971 4.339 2.111 6.724a32.854 32.854 0 01-.019 4.151c-.131 1.939-.461 3.937-1.536 5.557-1.076 1.62-3.059 2.767-4.958 2.351-1.632-.358-2.865-1.78-3.456-3.343-.591-1.563-.648-3.269-.698-4.94l-.143-4.771c-.08-2.647.085-5.787 2.317-7.212zm2.394 18.438c1.099.272 2.263-.401 2.887-1.346.625-.944.817-2.103.935-3.229a32.188 32.188 0 00-.09-7.458c-.164-1.266-.426-2.575-1.205-3.585-.779-1.011-2.215-1.62-3.374-1.085-1.39.642-1.704 2.449-1.772 3.979a56.69 56.69 0 00.281 8.691c.181 1.65.726 3.635 2.338 4.033z" fill="#00160A"/><path fill-rule="evenodd" clip-rule="evenodd" d="M359.159 412.199a38.704 38.704 0 00.921 11.349c.365 1.564 2.713 1.853 3.933.808 1.22-1.045 1.545-2.782 1.677-4.383a32.992 32.992 0 00-.186-7.107c-.164-1.217-.416-2.471-1.149-3.455-.734-.984-2.075-1.614-3.221-1.174-1.459.559-1.871 2.403-1.975 3.962z" fill="#fff"/><path fill-rule="evenodd" clip-rule="evenodd" d="M355.129 229.239c.207-.683 1.087-.932 1.782-.769.694.163 1.285.607 1.94.888 2.446 1.048 5.249-.316 7.329-1.976.698-.558 1.82-1.119 2.347-.398-1.253 2.13-3.486 3.655-5.925 4.047.074.874 1.143 1.498 1.941 1.132.45.257.383.984.001 1.334-.382.351-.933.427-1.448.486-1.796.209-3.763.379-5.27-.619l2.413-1.897a10.255 10.255 0 01-5.11-2.228zm93.158 106.336c11.483-.935 23.243 1.898 33.04 7.961 2.722 1.684 5.74 3.701 8.852 2.95a38.178 38.178 0 0121.884 1.238c2.931 1.069 5.588-1.964 7.425-4.485a61.704 61.704 0 0120.257-17.773c5.482 9-.072 21.453 4.695 30.852 7.378 14.546 5.418 33.333-4.803 46.043 10.727 10.48 18.02 24.419 20.515 39.206-1.276.376-2.113-1.288-2.421-2.582a77.474 77.474 0 00-15.832-31.573c-1.783-2.135-4.698-4.347-7.049-2.862-18.689 11.8-42.38 15.364-63.713 9.584-3.52-.954-6.019 3.32-7.149 6.788l-6.321 19.402c-.397-10.422 3.361-20.946 10.27-28.759-10.257-12.079-15.261-28.471-13.499-44.22.183-1.639.419-3.387-.311-4.866a85.19 85.19 0 01-7.787-24.626c-.079-.51-.145-1.069.124-1.51.358-.584 1.14-.712 1.823-.768zm46.576 20.705a43.978 43.978 0 00-9.802 13.178c-1.419-4.753-.65-10.111 2.047-14.273a30.064 30.064 0 00-9.881 6.095c.003-3.959 2.015-7.864 5.237-10.164l-4.185.122a10.894 10.894 0 015.743-3.69c-10.274-7.327-23.154-10.918-35.737-9.962a86.81 86.81 0 0015.345 36.453c-3.345-1.368-6.078-4.162-7.372-7.536-1.435 13.519 2.006 27.504 9.55 38.813 1.405 2.106 2.975 4.15 5.014 5.651 3.381 2.49 7.713 3.253 11.895 3.635 16.726 1.527 33.881-2.027 48.623-10.074 2.833-1.546 5.609-3.278 7.855-5.596 2.972-3.067 4.88-7.033 6.106-11.123 3.22-10.734 1.854-22.762-3.69-32.501l-3.004 8.962c-.422 1.261-2.297 2.576-2.656 1.296 4.973-11.783 6.04-25.176 2.994-37.597a86.118 86.118 0 00-27.5 29.734 12.27 12.27 0 011.981-7.957 78.935 78.935 0 00-18.279 19.816 37.244 37.244 0 01-.284-13.282zm-430.2-124.806a2.92 2.92 0 002.657-.943 12.857 12.857 0 01-5.419-2.348c.634-1.085 2.258-.433 3.43.025 2.835 1.109 6.376-.03 8.032-2.586.446-.687 1.64.101 1.509.909-.131.809-.928 1.309-1.647 1.703l-4.117 2.256a4.855 4.855 0 013.005 1.427c-1.496 1.219-3.603 1.243-5.532 1.208-.524-.009-1.078-.027-1.521-.306-.443-.28-.704-.919-.397-1.345z" fill="#00160A"/><path fill-rule="evenodd" clip-rule="evenodd" d="M356.639 210.189c1.553-2.43 5.463-2.852 7.499-.81 1.169 1.172 1.657 2.851 1.967 4.478.418 2.202.59 4.452.509 6.692-.075 2.065-.394 4.206-1.558 5.913-1.164 1.707-3.366 2.847-5.338 2.231-2.953-.922-3.62-4.73-3.766-7.82l-.231-4.899c-.094-1.983-.151-4.112.918-5.785zm1.234 3.969c-.255 3.8.057 7.638.922 11.348.365 1.564 2.712 1.853 3.932.809 1.221-1.045 1.546-2.782 1.677-4.383a33 33 0 00-.185-7.108c-.164-1.216-.416-2.471-1.15-3.454-.733-.984-2.074-1.614-3.22-1.175-1.459.56-1.871 2.403-1.976 3.963z" fill="#00160A"/><path fill-rule="evenodd" clip-rule="evenodd" d="M65.159 212.199a38.69 38.69 0 00.921 11.349c.365 1.564 2.713 1.853 3.933.808 1.22-1.045 1.545-2.782 1.677-4.383a33.004 33.004 0 00-.186-7.107c-.164-1.217-.416-2.471-1.15-3.455-.733-.984-2.074-1.614-3.22-1.174-1.459.559-1.871 2.403-1.975 3.962z" fill="#fff"/><path fill-rule="evenodd" clip-rule="evenodd" d="M65.74 227.363c-2.14-1.069-2.727-3.808-2.961-6.19a83.21 83.21 0 01-.393-6.986c-.022-1.559.017-3.188.749-4.565.796-1.496 2.412-2.523 4.105-2.607 1.693-.084 3.403.777 4.343 2.188.617.926.903 2.03 1.12 3.121.446 2.247.645 4.544.593 6.835-.051 2.227-.381 4.556-1.697 6.353-1.315 1.796-3.866 2.846-5.859 1.851zm-.57-3.988c.155.74.37 1.515.92 2.035 1.08 1.019 2.987.511 3.899-.661.911-1.172 1.078-2.746 1.138-4.23.089-2.19.02-4.387-.206-6.567-.129-1.237-.324-2.514-1.003-3.556-.679-1.041-1.97-1.783-3.17-1.454-1.897.519-2.263 3.01-2.256 4.977.012 3.166.026 6.358.677 9.456zm397.198 15.945c.48-7.226 7.747-11.691 12.528-17.13 4.366-4.967 6.926-11.488 7.103-18.099a181.494 181.494 0 01-44.6-7.405c-2.216-.661-4.501-1.41-6.181-3-3.923-3.71-2.952-10.18-.93-15.186a54.412 54.412 0 0110.473-16.512c1.522-1.645 3.173-3.234 4.169-5.241.997-2.006 1.206-4.588-.138-6.381-2.266-3.02-2.743-6.988-2.979-10.756-.236-3.769-.344-7.687-2.056-11.052-1.711-3.366-5.598-5.982-9.21-4.879-.875-1.337.855-2.88 2.378-3.364 5.752-1.828 12.196-.228 17.238 3.089s8.868 8.181 12.154 13.244c1.283 1.976 3.453 4.298 5.544 3.212 14.284-7.417 31.716-8.498 46.806-2.903 2.097.778 5.321 1.111 5.749-1.085 2.13-10.934 11.256-20.17 22.164-22.429-4.287 3.074-4.546 9.328-3.688 14.533.858 5.206 2.37 10.751.229 15.573-1.727 3.892 2.624 7.55 6.147 9.941a62.588 62.588 0 0114.051 13.108c3.929 5.004 7.205 11.436 5.41 17.54-2.35 7.991-11.754 11.154-19.846 13.127l-23.699 5.778c-.145 7.706 2.606 15.433 7.589 21.313 3.997 4.717 9.805 9.579 8.534 15.63-2.702-6.434-7.774-11.52-11.847-17.186-4.073-5.666-7.284-12.757-5.442-19.488-3.606-1.29-7.391 1.287-10.118 3.976-2.726 2.689-5.603 5.859-9.427 6.074-6.298.355-10.231-7.332-16.388-8.706a27.786 27.786 0 01-3.13 11.863c-2.031 3.887-4.949 7.227-7.838 10.527l-10.749 12.274zm5.868-97.757c-3.829 1.863 2.102 9.14-1.325 11.666-1.763-9.566-6.761-18.506-13.986-25.018-4.693-4.23-10.919-7.562-17.126-6.387 3.629 1.425 5.838 5.198 6.789 8.979.95 3.782.916 7.74 1.578 11.583 1.164 6.764 4.548 13.128 9.505 17.876-2.258-.03-4.445-1.417-5.434-3.447a65.565 65.565 0 00-16.254 22.58c-1.467 3.382-2.612 7.416-.796 10.624 1.531 2.707 4.701 3.965 7.66 4.923a135.767 135.767 0 0032.885 6.303c6.672.439 13.876.55 19.208 4.583 1.938 1.465 3.53 3.393 5.641 4.594 2.112 1.2 5.092 1.445 6.736-.343 6.418-6.98 16.178-9.686 25.504-11.403 9.326-1.717 19.064-2.866 27.195-7.745 3.052-1.832 5.944-4.367 6.931-7.787 1.341-4.649-1.163-9.502-3.993-13.427a68.552 68.552 0 00-21.613-19.413 6.492 6.492 0 01-2.512 3.671c-.399-1.663.328-3.358.91-4.965 3.597-9.935 1.958-20.905.275-31.336-11.038 6.369-16.773 20.694-13.179 32.92-2.105.391-3.1-2.558-2.895-4.689.205-2.131.375-4.915-1.599-5.742-15.883-6.657-34.619-6.133-50.105 1.4zM175.79 368.624c1.109 1.873 1.231 4.294.317 6.269-.485 1.048-2.125 1.011-2.948.202-.823-.809-1.04-2.035-1.199-3.179-.144-1.034-.27-2.126.125-3.093.394-.967 1.497-1.728 2.48-1.373.543.196.931.677 1.225 1.174z" fill="#00160A"/><path fill-rule="evenodd" clip-rule="evenodd" d="M192.855 442.68a56.316 56.316 0 01-3.368-28.228c-3.309 3.626-9.415 4.244-13.384 1.355.949 9.336-.997 18.946-5.504 27.177l3.917-23.445c.338-2.028.291-4.745-1.665-5.381-6.099-1.982-11.252-6.696-13.768-12.595-.793-1.859-3.238-2.52-5.183-1.973-1.945.547-3.497 1.978-4.968 3.362.839-3.281 3.854-5.887 7.222-6.243 1.143-1.927-.494-4.588-2.664-5.148-2.169-.56-4.454.418-6.265 1.736-.141-2.088 2.4-3.11 4.325-3.93 1.925-.82 3.806-3.411 2.164-4.709-.716-.566-1.733-.465-2.636-.336l-7.831 1.121c.296-2.102 3.028-2.642 5.144-2.804 2.117-.163 4.849-1.194 4.614-3.304-.907-8.129 1.061-16.373 4.347-23.864 2.721-6.207-5.289-12.422-4.763-19.179.041-.523.165-1.096.587-1.408.504-.372 1.21-.224 1.809-.039a28.335 28.335 0 0111.08 6.475c1.521 1.441 3.971.459 5.884-.395 7.055-3.149 15.325-3.475 22.607-.892 6.575 2.333 12.408-8.92 18.924-6.426l-4.99 16.421c-.459 1.51-.893 3.244-.059 4.584a33.381 33.381 0 014.923 15.014c.288 3.735 1.011 8.78 4.745 9.073-1.626.716-3.42 1.607-3.983 3.292-.563 1.686 1.362 3.909 2.819 2.893 1.258-.878 3.29-.145 3.7 1.332-2.155-.211-4.493.024-6.178 1.385-1.684 1.36-2.345 4.111-.918 5.739 3.133-1.291 6.834-1.121 9.836.45-1.789 1.316-4.247.927-6.464.795-2.216-.133-4.916.379-5.7 2.456-2.618 6.934-9.052 12.284-16.347 13.594-3.593.646-4.169 5.506-3.873 9.144l1.864 22.901zm2.901-54.866c-1.151 1.051-3.135 2.147-3.988.842 4.924-5.283 11.675-8.83 18.819-9.887 1.458-.216 1.781-2.162 1.677-3.631a51.272 51.272 0 00-6.042-20.723c-.518 1.34-2.158 2.127-3.527 1.692a49.625 49.625 0 007.799-20.494 40.99 40.99 0 00-16.667 12.759c-.602-2.149.36-4.641 2.251-5.828-8.623-3.164-18.533-2.636-26.77 1.427l.643 4.011a38.854 38.854 0 00-15.183-11.172 90.845 90.845 0 008.272 20.489c-1.554.336-3.24-1.01-3.258-2.599a57.382 57.382 0 00-5.208 22.56c-.051 2.233.849 5.255 3.071 5.025 6.065-.629 12.362 1.481 16.825 5.637l-12.427-3.59c-1.782-.515-3.827-.997-5.389.004-1.563 1-1.377 4.104.478 4.14 4.858-1.417 10.349-.465 14.447 2.503a35.99 35.99 0 00-14.639-.198c-1.204 2.904 2.884 5.176 6.027 5.161 3.144-.015 7.08-.354 8.606 2.394l-11.562-.601c1.057 6.867 6.96 12.7 13.84 13.674 1.313.186 2.174 1.409 3.151 2.305 3.886 3.564 11.35 1.143 12.404-4.024 8.952-.275 17.478-6.229 20.818-14.539l-13.622 1.935c1.062-2.05 3.587-2.837 5.884-3.076 2.296-.24 4.724-.159 6.76-1.248 2.036-1.089 3.359-3.96 1.902-5.751l-17.021 5.983a13.745 13.745 0 018.162-5.656c2.298-.543 4.742-.49 6.942-1.351 2.2-.86 4.165-3.126 3.542-5.405-6.269.4-12.378 2.996-17.017 7.232z" fill="#00160A"/><path fill-rule="evenodd" clip-rule="evenodd" d="M190.07 364.294c-.762-.04-1.683-.188-1.964-.897 1.855-2.101 5.873-1.432 6.947 1.156l-4.983-.259z" fill="#00160A"/><path d="M187.222 403.68c.595.717.472 1.844-.087 2.589-.559.745-1.454 1.165-2.352 1.412-1.308.359-2.856.354-3.852-.567-1.44-1.333-.747-4.046 1.024-4.892 1.771-.846 4.015-.052 5.267 1.458zm-5.164.411c-.45.838.505 1.869 1.457 1.871.951.003 1.77-.63 2.507-1.232-.968-1.057-2.694-1.321-3.934-.601l-.03-.038zm10.141-29.116c-1.17.589-2.647-.356-3.09-1.589-.442-1.233-.145-2.597.195-3.862.194-.721.455-1.509 1.104-1.878.871-.495 2.037.071 2.543.936.507.864.531 1.918.542 2.92.014 1.306-.128 2.885-1.294 3.473z" fill="#00160A"/><path d="M171.156 403.738c3.516.453 7.222-1.249 9.169-4.211 1.948-2.962 2.042-7.039.232-10.088-.957-1.612-2.413-3.622-1.254-5.096.589-.749 1.634-.94 2.585-.992 1.039-.056 2.144.01 3.012.584.868.574 1.374 1.803.846 2.7-2.086 3.542-1.767 8.347.769 11.583 2.535 3.235 7.125 4.693 11.063 3.515.721-.216 1.901-.143 1.759.595-.034.179-.159.326-.285.457-2.225 2.298-6.082 1.924-8.947.503a16.253 16.253 0 01-6.522-5.919c-1.408 2.401-2.86 4.855-5.016 6.616-2.155 1.76-5.195 2.71-7.777 1.673-.708-.284-1.442-1.136-.931-1.702.307-.34.844-.277 1.297-.218zm6.23-40.303c.176.554-.598.89-1.176.952l-3.289.355c-.847.092-2.063-.156-1.969-1.003 1.507-1.588 4.165-1.919 6.016-.75.176.111.355.247.418.446zm295.818 61.467c-.218-2.083-.169-4.531 1.482-5.82 1.45-1.131 3.509-.864 5.32-.54l8.628 1.543c2.247.402 4.651.787 6.74-.133 1.667-.734 3.577.053 5.399.068 1.486.013 2.921-.495 4.32-.998l12.878-4.622c.789-.283 1.666-.566 2.443-.249 1.179.481 1.443 2.003 1.534 3.273l.312 4.343c.128 1.768.243 3.615-.451 5.246-.694 1.632-2.468 2.951-4.185 2.509a102.73 102.73 0 00-13.485-2.532c-.915-.109-2.106-.044-2.407.827-.691 1.998-3.546 1.677-5.631 1.325-4.778-.807-9.87.452-13.722 3.392-1.031.788-1.995 1.7-3.185 2.217-1.19.517-2.713.544-3.658-.346-.644-.607-.899-1.511-1.106-2.372a55.203 55.203 0 01-1.226-7.131zm21.562-1.664a342.848 342.848 0 00-17.478-2.852c-.923-.127-1.782.635-2.086 1.515-.304.881-.186 1.845-.052 2.767.294 2.023.65 4.038 1.068 6.04.131.626.282 1.282.708 1.76.425.478 1.217.694 1.714.29a27.498 27.498 0 0110.896-5.381c1.195-.285 2.435-.501 3.491-1.128 1.057-.627 1.906-1.794 1.739-3.011zm16.508-4.481c-3.088.85-6.367 1.819-8.443 4.257-.631.742-.76 2.319.212 2.282a38.122 38.122 0 0114.304 2.216c.971.349 2.067-.347 2.526-1.271.458-.924.443-2.002.418-3.033l-.141-5.831c-.007-.312-.052-.685-.331-.823-.187-.092-.41-.038-.61.017l-7.935 2.186zm-15.086 7.213c.135.457.33.917.691 1.227.885.762 2.375.216 2.968-.79.594-1.006.534-2.257.398-3.417-.162-1.391-2.239-1.845-3.292-.921-1.052.923-1.16 2.557-.765 3.901zm34.558-37.302a14.351 14.351 0 00-7.581 1.149c-.61.274-1.202-.626-.938-1.239.264-.614.953-.907 1.583-1.128 3.644-1.282 8.272-1.916 10.87.942-1.112.761-2.597.44-3.934.276zm-28.037 13.617c.061 1.984-1.819 3.596-3.772 3.95-1.952.354-3.94-.229-5.839-.805-1.653-.502-2.168-2.824-1.296-4.315.872-1.492 2.638-2.23 4.343-2.509 1.405-.23 2.897-.206 4.187.394 1.291.6 2.334 1.862 2.377 3.285zm-9.157.476c.093.594.789.852 1.373.995 1.135.279 2.304.559 3.46.387 1.155-.171 2.308-.907 2.608-2.036-1.716-1.774-4.781-2.018-6.756-.537-.385.289-.76.715-.685 1.191zm-20.558-10.596l-10.283.023c-.722.002-1.741-.378-1.497-1.058a16.222 16.222 0 0111.439-.52c.682.225 1.424 1.145.79 1.481-.136.072-.296.074-.449.074zm37.922-13.044c.195-1.224.531-2.642 1.664-3.146 1.091-.485 2.416.207 3.044 1.223.628 1.015.734 2.258.823 3.449l-4.637.423c-.828.076-1.025-1.128-.894-1.949zm13.42 14.637c-.498-.104-1.012-.214-1.427-.508a1.868 1.868 0 01-.663-.856c3.493-1.472 7.941-.138 10.047 3.014l-7.957-1.65zm-7.188-21.289c.887-1.42 3.102-.754 4.441.252a17.872 17.872 0 013.5 3.482c-.043.773-1.245.598-1.895.177a20584.21 20584.21 0 01-6.046-3.911zm-48.46 23.442l4.24-1.449c.566-.194 1.171-.39 1.752-.247.581.143 1.083.774.86 1.33a130.218 130.218 0 01-8.43 2.824c-.45-.389-.358-1.157.033-1.606.391-.449.982-.659 1.545-.852zm11.724-17.817c.54.365.817 1 1.068 1.601.333.799.673 1.661.493 2.508-.181.847-1.131 1.577-1.909 1.197-.882-.43-1.84 1.148-2.709.692-.411-.215-.491-.76-.521-1.223-.081-1.247-.146-2.568.445-3.669.591-1.1 2.098-1.805 3.133-1.106zm-10.782-.557c1.302-3.201 5.036-5.206 8.424-4.521.461.093 1.03.437.867.878-.087.233-.346.344-.579.43l-8.712 3.213zm17.296 16.182c-.73.091-1.659.021-1.933-.661.489-.391 1.076-.806 1.686-.664.61.142.831 1.208.218 1.336l.029-.011zm14.614-1.048c.767-.128 1.172-1.207.677-1.808-.495-.601-1.632-.412-1.905.317-.273.729.46 1.619 1.228 1.491z" fill="#00160A"/><path d="M484.479 397.879c-1.075-.155-2.459-.856-2.128-1.891 1.185-.683 2.656-.099 4.009.097 1.354.196 3.181-.545 2.958-1.894l.679 1.706a8.903 8.903 0 003.714-2.04c.593-.546 1.122-1.483.595-2.093-1.219-1.413.105-4.059 1.967-3.93 1.862.13 2.806 2.935 1.403 4.164-.364.319.002.905.379 1.208 2.633 2.114 6.305 2.865 9.557 1.955 1.455-.406 3.312-1.004 4.237.19-4.64 3.35-11.689 2.768-15.716-1.298-2.265 3.696-7.363 4.447-11.654 3.826z" fill="#00160A"/><path d="M506.341 391.521c.447.201.516.926.116 1.209-.4.283-1.06-.024-1.102-.512.169-.363.562-.611.962-.607l.024-.09zm-16.848.51c.468.719 1.841-.175 1.373-.894-.468-.719-1.842.175-1.373.894zm-38.995-214.008c-1.802.2-3.744.64-5.339-.222 1.887-1.774 4.703-2.12 7.29-1.992a26.543 26.543 0 0112.458 3.836c-.787 1.449-2.96.737-4.452.034a18.674 18.674 0 00-9.957-1.656zm63.336-15.065c-.287-1.084-.302-1.97.686-2.498 1.439-.77 5.981-.699 6.472.421.491 1.12-1.377 6.27-3.997 6.27-1.048 0-2.875-3.11-3.161-4.193zm28.818 12.759a54.802 54.802 0 00-16.486 3.637c-.722.282-1.832.392-1.997-.366.92-1.544 2.765-2.236 4.489-2.74a60.147 60.147 0 0111.845-2.204c.58-.048 1.198-.08 1.705.205.507.285.805 1.013.444 1.468zm1.137 6.326l-13.378 1.196c-.814.073-2.032-.471-1.563-1.14a45.466 45.466 0 0114.209-2.06c1.188.018 2.567.189 3.192 1.2-.631.614-1.583.725-2.46.804zm-65.578-14.519c-.945 1.111-2.862.793-3.874-.258-1.013-1.05-1.358-2.557-1.663-3.984-.158-.744-.298-1.59.145-2.208.465-.649 6.936-.696 7.243-.139.308.556.117 1.026 0 1.458-.213.785-1.167 4.326-1.851 5.131zm-33.78 17.64a32.948 32.948 0 0117.899-2.013c.642.108 1.348.278 1.713.817.365.539.013 1.503-.632 1.411-6.968-.99-14.532-.918-20.462 2.873-.622-.355-.665-1.3-.267-1.896.398-.596 1.086-.919 1.749-1.192zm41.291 5.542c-.289-.834.332-1.854 1.205-1.979.349.227.578.628.596 1.044a1.695 1.695 0 01-1.681.997l-.12-.062zm-9.098-36.097c.974.015 2.311.667 1.884 1.543a31.44 31.44 0 00-12.209 3.272c-.56-.056-.825-.798-.609-1.317.216-.518.73-.842 1.223-1.11a19.833 19.833 0 019.711-2.388zm23.637 35.385c.617-.664 1.859-.555 2.351.207-.482.919-2.097.828-2.472-.139l.121-.068zm4.291-.442c.429-.625 1.649-.084 1.475.653a1.134 1.134 0 01-.998.624c-.475-.182-.71-.82-.466-1.267l-.011-.01zm-14.57-3.396c-.43.625-1.649.084-1.475-.654.181-.371.584-.623.998-.623.475.182.71.82.465 1.267l.012.01zm-7.198 1.706c-.037.725.864 1.309 1.51.979.646-.33.702-1.403.093-1.797-.609-.395-1.565.094-1.603.818zm18.369-.452c.616.462 1.664.013 1.755-.751.092-.764-.821-1.447-1.528-1.145-.708.303-.843 1.435-.227 1.896zm11.435-30.633c3.621-2.622 8.635-1.419 12.91-.11.669.205 1.507.819 1.12 1.403-.23.348-.736.336-1.15.286l-12.88-1.579z" fill="#00160A"/><path d="M496.389 187.412c1.304 4.05 5.988 6.677 10.124 5.676 1.818-.44 3.896-1.429 5.387-.299-2.615 2.19-6.296 3.041-9.608 2.223-3.312-.819-6.172-3.288-7.466-6.444-2.564 3.574-6.631 6.033-10.987 6.643-.651.092-1.389.118-1.882-.317-.492-.435-.363-1.473.293-1.519a15.356 15.356 0 009.645-4.367c1.39-1.377 2.533-3.591 1.421-5.201a20.45 20.45 0 01-2.469-4.863c-.223-.638-.395-1.404.015-1.941.303-.398.83-.534 1.318-.646 1.479-.339 3.01-.68 4.502-.397 1.491.282 2.943 1.361 3.163 2.863.466 3.172-4.438 5.536-3.456 8.589zm-295.17-10.938c.321-.935 2.062-.611 2.026.376-.364.929-2.091.587-2.074-.41l.048.034zm-15.707 4.298c-.198-.997-2.102-.619-1.904.378.198.997 2.102.619 1.904-.378zm2.7 1.688a1.904 1.904 0 011.956-.615c.228.284.299.685.184 1.03l-1.548.63-.656-.989.064-.056zm.23-2.363a1.488 1.488 0 01-.62-1.06c.376-.781 1.709-.79 2.096-.014a2.9 2.9 0 01-1.477 1.095l.001-.021zm-12.132 2.575c-.516.673-1.68-.201-1.541-1.037.139-.836.922-1.38 1.584-1.909 1.414-1.128 2.553-2.599 4.092-3.549 1.539-.95 3.743-1.224 5.026.05a18.88 18.88 0 00-9.161 6.445zm-4.414-9.141a16.893 16.893 0 017.479-4.052c.595-.146 1.244-.254 1.8.001.556.256.908 1.021.535 1.506a17.608 17.608 0 00-9.4 4.949c-.459.466-1.329-.097-1.352-.751-.023-.654.46-1.206.938-1.653zm26.5 3.58c-.064-.48.759-.218 1.005.199l-1.004 1.497c-.695-.224-.727-1.415-.045-1.677l.044-.019zm20.702-2.612l-9.086-2.798c-.708-.218-1.484-.488-1.843-1.136 4.18-.947 8.778.173 12.055 2.936.138.116.281.246.326.421.16.62-.841.766-1.452.577zm-20.059 5.446c.337-.404 1.053-.393 1.377.021.325.414.164 1.113-.309 1.343-.704-.07-1.309-.704-1.345-1.41l.277.046zm17.92 1.121l-9.423-3.308c-.257-.09-.529-.191-.694-.407-.361-.476.057-1.216.627-1.394.57-.177 1.182.022 1.746.219l5.078 1.781c1.449.508 3.233 1.682 2.666 3.109z" fill="#00160A"/><path d="M628.34 44.667c11.404 4.618 19.163 15.737 22.761 27.503 3.599 11.767 3.634 24.285 3.639 36.589l.111 273.493c0 13.337-.103 27.198-5.889 39.215-5.304 11.016-15.344 19.652-27.03 23.25-8.481 2.61-17.51 2.629-26.383 2.629l-504.038-.088c-8.37-.001-17.32-.174-24.21-4.927-11.034-7.61-12.125-23.205-12.13-36.609-.032-104.161-.066-208.321-.099-312.482 0-7.741.028-15.673 2.703-22.938 4.617-12.54 16.612-21.208 29.364-25.204 12.751-3.996 26.359-4.017 39.722-4.004 30.238.035 60.475.068 90.713.1 129.075.142 258.151.282 387.226.423 7.964.009 16.158.06 23.54 3.05zM347.242 445.158l-.216-198.842-285.997.116c-.82 0-1.739.041-2.305.635-.53.558-.563 1.41-.563 2.18l-.128 166.857c0 2.897 0 5.821.611 8.653 2.029 9.369 10.57 16.218 19.726 19.06 9.155 2.841 18.958 2.41 28.538 2.052 37.091-1.385 74.219-1.262 111.336-1.139l128.998.428zm2.448-198.552l.166 198.316 250.683-.234c6.283-.006 12.635-.02 18.746-1.481 14.38-3.438 26.273-15.226 30.507-29.392 2.502-8.368 2.502-17.25 2.482-25.984l-.322-141.574-302.262.349zm-.031-202.029l.262 198.834 299.505.02c.831 0 1.786-.057 2.294-.716.363-.472.379-1.117.379-1.713l.044-144.931c0-7.132-.007-14.354-1.796-21.258-4.888-18.865-24.302-32.834-43.743-31.472-14.416 1.01-28.88 1.023-43.331 1.037l-213.614.2zm-2.423 198.578l-.237-198.81-246.943-.088C80.644 44.25 62.33 59.53 58.86 78.63c-.905 4.98-.9 10.075-.893 15.137.084 49.808.166 99.617.248 149.425 96.34.4 192.681.388 289.021-.037z" fill="#00160A"/><path d="M196.071 177.116c-.586 1.533.159 3.307 1.336 4.449 1.716 1.665 4.361 2.304 6.648 1.605 1.646-.502 3.64-1.559 4.859-.343-3.63 3.656-10.521 3.141-13.566-1.014-.952 2.48-3.13 4.456-5.692 5.161-2.562.706-5.444.124-7.532-1.52 1.534-1.272 3.809-.28 5.801-.268 2.107.012 4.168-1.278 5.078-3.178.91-1.9.623-4.314-.706-5.948a17.772 17.772 0 01-3.082-5.622c-.157-.473-.294-.987-.142-1.461.31-.971 1.556-1.201 2.574-1.252 2.086-.105 4.174-.161 6.263-.17 1.003-.004 2.22.132 2.641 1.043.278.6.077 1.305-.166 1.919a15.055 15.055 0 01-2.686 4.385c-.61.691-1.299 1.353-1.628 2.214zm17.857-40.78a16.356 16.356 0 00-9.236.982c-.403.168-.868.352-1.256.153-.475-.242-.524-.952-.229-1.396.295-.443.813-.677 1.31-.868 5.124-1.965 11.102-1.563 15.918 1.069-1.835 1.278-4.309.469-6.507.06zm-1.512 15.604c-.26.509-.574 1.034-1.084 1.293-.757.385-1.739.025-2.255-.649-.516-.674-.641-1.576-.578-2.422.128-1.73 1.625-3.67 3.257-3.085 1.749.629 1.506 3.207.66 4.863zm-29.966-2.957c.184 1.47-.466 3.116-1.81 3.739-1.344.623-3.257-.221-3.401-1.695-.05-.513.1-1.023.257-1.514.458-1.432 1.397-3.116 2.896-2.988 1.153.099 1.914 1.31 2.058 2.458zm-13.092-10.534c-.24-.768.691-1.355 1.459-1.595a27.811 27.811 0 0114.054-.644c.682.146 1.433.373 1.773.981.341.609-.18 1.605-.843 1.388a21.707 21.707 0 00-14.112.234c-.833.304-2.067.482-2.331-.364z" fill="#00160A"/><path d="M236.178 99.763c-.445 7.06-.89 14.141-.473 21.202.325 5.497 1.172 10.963 1.249 16.468.224 15.913-6.015 31.326-14.501 44.789 20.374 13.703 35.734 34.696 42.628 58.262-2.937-1.832-4.2-5.384-5.433-8.618-6.81-17.863-18.794-33.72-34.121-45.146-2.198-1.638-5.934-2.877-7.15-.42a40.097 40.097 0 01-11.751 14.178c-1.794 1.353-3.802 2.689-5.204 4.388a5.2 5.2 0 01-9.725 2.953c-12.945-5.692-23.479-16.741-28.434-30-9.465 6.564-14.923 17.735-17.015 29.062-2.093 11.327-1.203 22.967-.307 34.451-.945.64-1.829-.907-1.937-2.044-1.092-11.498-1.705-23.204.68-34.505 2.386-11.301 8.087-22.284 17.505-28.969-8.741-19.031-5.341-42.377-16.005-60.401-.633-1.07-1.166-2.739-.057-3.303.411-.209.902-.144 1.356-.067a43.04 43.04 0 0120.304 9.371c1.492 1.249 3.725.338 5.468-.526 13.398-6.635 29.398-7.824 43.629-3.241a48.236 48.236 0 0115.205-17.269c1.228-.852 2.985-1.622 4.089-.615zm-45.96 92.859c4.586.402 9.258.799 13.752-.198 10.279-2.282 17.653-11.377 22.363-20.795a83.937 83.937 0 008.788-34.796l-9.974 8.022c-1.969 1.583-4.12 3.533-4.082 6.06.053 3.593-2.172 7.119-5.439 8.617-3.266 1.497-7.391.881-10.078-1.505-3.032-2.692-4.754-7.567-8.794-7.922-4.764-.419-7.033 5.69-10.867 8.549-4.884 3.644-12.768.908-15.207-4.677-.464-1.062-.298-2.948-1.36-3.595-3.389-2.062-7.131-2.138-11.546-1.991a91.28 91.28 0 006.871 28.007c1.664 3.94 3.692 7.875 6.958 10.636 5.031 4.254 12.052 5.013 18.615 5.588zm27.603-72.794c-1.482 2.828-3.969 6.368-6.95 5.226a24.115 24.115 0 004.883-5.738c-14.837-4.229-31.274-2.543-44.942 4.612a14.762 14.762 0 004.24 3.515c-1.711 1.63-4.351-.367-5.97-2.089-5.51-5.858-13.043-9.778-21.003-10.928 3.267 5.241 6.286 15.625 9.06 31.151 4.494 1.016 7.515 1.54 9.062 1.573 1.781.038 3.95-.147 4.729-1.749 2.056-4.232 7.206-6.701 11.794-5.653 4.587 1.047 8.155 5.507 8.171 10.212 2.975-1.949 6.956-2.258 10.197-.792.338-4.005 3.371-7.642 7.25-8.694 3.878-1.052 8.334.555 10.648 3.84 1.007 1.429 3.235.379 4.571-.749l8.302-7.012c1.559-1.317 3.275-3.026 2.948-5.041a107.698 107.698 0 01-.599-30.219 51.984 51.984 0 00-16.391 18.535zm-7.073 71.842c-6.661 4.523-15.452 3.735-23.445 2.767-4.366-.529-8.884-1.108-12.638-3.401-.772-.471-1.783-1.01-2.496-.454a46.32 46.32 0 0016.776 13.086c.967.443 2.393.704 2.851-.255 1.054-2.207 4.252-3.025 6.236-1.595 1.614 1.164 3.845.047 5.439-1.143a57.635 57.635 0 009.718-9.186c-.419-.832-1.671-.343-2.441.181zm-37.77-37.491c2.008 3.39 6.588 4.987 10.268 3.581 3.68-1.406 6.029-5.651 5.265-9.516-.764-3.864-4.551-6.897-8.489-6.797-3.938.099-7.567 3.319-8.134 7.217a8.505 8.505 0 001.09 5.515zm30.589-5.859c-.473 2.799.624 5.75 2.61 7.779 1.459 1.49 3.47 2.543 5.554 2.466 3.726-.138 6.436-3.701 7.586-7.248.299-.925.535-1.908.353-2.863-.237-1.24-1.137-2.242-2.078-3.084-2.36-2.112-5.544-3.713-8.632-3.004-2.766.636-4.92 3.154-5.393 5.954z" fill="#00160A"/></svg>