<svg width="675" height="750" fill="none" xmlns="http://www.w3.org/2000/svg"><path d="M0 0h750v750H0z"/><path fill-rule="evenodd" clip-rule="evenodd" d="M482.912 159.952c64.533-14.445 124.32 2.694 156.454 51.649 32.134 48.954 23.728 126.636 16.767 160.925-6.961 34.289-24.619 65.695-46.535 92.961-40.706 50.642-95.715 89.396-157.211 110.316-61.496 20.919-128.264 25.209-192.35 14.626-35.95-5.937-148.404-35.021-172.679-122.789-24.275-87.768-39.638-162.782 12.93-193.253 52.567-30.472 88.979-7.553 115.002 3.717 121.579 52.653 203.09-103.706 267.622-118.152z" fill="#9B51E0"/><path fill-rule="evenodd" clip-rule="evenodd" d="M573.784 242.16c10.352-.799 21.51-.282 29.946 5.771s12.268 19.344 5.341 27.079c7.832-3.062 17.036 2.131 20.959 9.568 3.923 7.438 3.718 16.349 2.537 24.674-2.923 20.618-11.328 40.434-24.121 56.866l-1.763 5.196c15.121 3.899 74.167 26.83 58.213 83.36s-85.629 78.046-92.761 84.812c-12.43 11.792-31.403 12.598-48.529 12.055a665.234 665.234 0 01-125.185-15.958c-3.494-.788-7.92-1.268-9.934 1.693-14.578 21.434-45.064 23.351-70.918 21.485a630.034 630.034 0 01-98.645-15.047c-18.386-4.319-37.911-10.333-49.365-25.35-13.353-17.507-11.811-41.779-9.644-63.69-8.777 4.879-23.333 7.522-43.67 7.928-11.973-2.442-19.442-6.782-22.406-13.021-13.555-28.528-18.203-65.291-1.324-93.41 2.028-3.378 4.367-6.707 7.669-8.857 3.5-2.279 7.767-3.028 11.928-3.396 16.41-1.454 33.247 2.377 47.414 10.786l-.38-138.129c-.007-2.636.03-5.434 1.435-7.665 2.034-3.227 6.199-4.227 9.948-4.926a857.275 857.275 0 01103.213-12.849c11.313-.716 26.795 2.433 26.846 13.768l.592 130.227c.047 10.332.711 9.468 5.551 6.474-3.042.315-2.363-4.846-.058-6.856 8.609-7.505 21.154-7.781 32.573-7.664l76.631.784c24.75.254 54.43 3.392 65.635 25.462-.325-6.559 5.619-12.749 12.186-12.689 7.161.066 13.151-6.146 15.241-12.996 2.091-6.85 1.168-14.21.228-21.31-11.548-11.182-14.57-30.189-7.062-44.401 7.509-14.212 24.914-22.426 40.658-19.189 10.17 2.092 20.669.215 31.021-.585zM277.387 455.093c-.34 9.139-.7 18.401-3.389 27.142l3.389-27.142zm-10.583-112.164c2.378.696 5.319 2.804 4.071 4.944 10.328 1.032 7.244.554 7.708-11.617.472-12.349.511-26.004-7.574-35.351-7.154-8.271-18.821-10.858-29.717-11.788a152.513 152.513 0 00-38.161 1.548c-6.142 1.031-12.795 2.808-16.359 7.915-1.995 2.858-2.729 6.388-3.315 9.824a176.347 176.347 0 00-2.14 40.983c26.478-12.319 57.459-14.66 85.487-6.458zm229.792 90.735c.647-.653 1.628-.812 2.539-.938l10.917-1.501c-8.351-3.772-13.413-12.731-14.925-21.769-1.512-9.037-.035-18.277 1.456-27.318-5.342 5.945-4.956 14.914-4.257 22.875 1.532 17.425 3.623 29.305 4.27 28.651zm-68.702 85.828c.715-2.327 3.151-3.577 4.935-5.235 3.211-2.984 4.404-7.496 5.451-11.752 3.62-14.709 7.261-29.597 7.216-44.745-.01-3.209-.173-6.506.89-9.535 1.062-3.028 3.725-5.766 6.934-5.782 3.384-.016 4.192-4.71 3.89-8.081l-3.13-34.863c-.333-3.712-.673-7.459-1.799-11.011-4.165-13.134-20.213-21.075-33.181-16.419-1.587.57-2.012 2.576-2.192 4.253l-5.988 55.766c-.354 3.303 3.91 5.41 7.13 4.592 3.219-.817 5.677-3.333 8.461-5.145 2.783-1.812 6.708-2.856 9.263-.735 2.889 2.398 7.166-.265 9.675-3.057 2.51-2.793 5.778-6.159 9.347-4.994l-12.56 12.014c-1.388 1.328-2.612 3.981-.858 4.765a29.432 29.432 0 0012.474-8.577c1.533-.049 1.606 2.359.75 3.632-3.223 4.796-10.809 5.865-12.762 11.303-4.559 12.695-18.777 21.128-32.104 19.04-2.733-.428-4.096 3.167-4.425 5.914l-3.935 32.862c-.302 2.52-.584 5.186.454 7.502 1.731 3.864 6.361 5.327 10.466 6.367 5.426 1.374 10.915 2.756 16.461 3.356 2.336.253 2.326-.602-.863-1.435zm-216.175-20.083c7.753 2.596 15.959 3.476 24.09 4.34 3.448.366 7.12.695 10.213-.872 3.641-1.845 5.581-5.842 7.147-9.611a194.105 194.105 0 0014.654-66.331c.132-3.232-4.005-4.658-7.232-4.875-25.762-1.729-50.4 9.595-73.732 20.655-1.118.53-2.315 1.134-2.867 2.242-.412.825-.39 1.792-.36 2.714.418 12.564.945 25.578 6.564 36.823 1.518 3.037 3.448 5.96 6.181 7.974 1.655 1.22 3.55 2.067 5.429 2.904 3.261 1.452 6.528 2.903 9.913 4.037zm166.657-46.499a513.938 513.938 0 007.246-55.856c.476-6.408.825-12.923-.561-19.198-1.385-6.275-4.727-12.375-10.191-15.757-3.367-2.083-7.308-3.019-11.206-3.714a111.608 111.608 0 00-21.575-1.716c-6.376.113-13.067.89-18.272 4.574-1.721 1.218-3.284 2.812-3.913 4.825-.628 2.013-.099 4.486 1.647 5.668 4.413 2.988 6.211 8.579 7.038 13.844.827 5.265 1.026 10.778 3.425 15.537 1.237 2.454 3.011 4.595 4.872 6.618 10.087 10.967 23.245 19.081 37.574 23.17 2.519.719 5.724 2.275 5.192 4.84 7.925 4.999-1.408 17.873-1.276 17.165zm-21.84 54.468c2.918-1.773 4.896-4.723 6.638-7.66a108.308 108.308 0 0014.153-40.779c-26.58-.12-53.002-10.149-72.967-27.696-.684 2.742-.553 5.613-.46 8.437a287.486 287.486 0 01-3.121 52.768c-.634 4.158 1.85 8.316 5.265 10.771 3.415 2.456 7.622 3.511 11.752 4.306a125.834 125.834 0 0028.302 2.188c3.604-.13 7.356-.462 10.438-2.335zm167.729-152.115c-1.549-3.734-2.712-7.943-5.926-10.395-3.215-2.451-9.267-1.252-9.456 2.786 3.181-.586 5.613 3.341 5.071 6.53-.542 3.189-2.86 5.725-4.702 8.384-2.545 3.674-4.286 7.833-6.008 11.957a64.251 64.251 0 00-4.592 31.236c.647 6.228 2.353 12.624 6.564 17.257 4.21 4.634 11.428 6.95 16.976 4.05 4.766-2.49 7.143-7.982 8.236-13.246 1.093-5.265 1.288-10.777 3.352-15.742 3.809-9.159 13.202-14.693 22.494-18.167-13.968-1.897-26.606-11.63-32.009-24.65zm-38.626 9.908a37.525 37.525 0 002.563 6.972 38.792 38.792 0 013.097-9.095 35.588 35.588 0 00-4.28-.231c-.347.002-.714.015-1.007.201-.661.418-.569 1.396-.373 2.153zM317.272 362.7c-.879.708-1.395 2.231-.466 2.873l4.265-4.271a2 2 0 00-1.181-.703c-.564.978-1.738 1.393-2.618 2.101z" fill="#fff"/><path d="M563.5 352.5a5.5 5.5 0 100-11 5.5 5.5 0 100 11zM532 347a3 3 0 100-6 3 3 0 000 6z" fill="#FFB61D"/><path fill-rule="evenodd" clip-rule="evenodd" d="M247.926 268.077l26.999.171c.422.003.874.015 1.214.265.694.509.417 1.703-.298 2.183-.714.481-1.641.46-2.502.43-7.92-.275-15.864.137-23.713 1.228-1.194.166-2.453.341-3.57-.113-1.116-.454-1.97-1.791-1.456-2.881.537-1.139 2.067-1.291 3.326-1.283zm-30.096-.884c.57.568.297 1.612-.337 2.109-.633.497-1.482.597-2.283.678l-23.936 2.423c-.944.096-1.92.188-2.822-.102-.903-.291-1.72-1.071-1.741-2.02-.022-.978.808-1.808 1.736-2.121.927-.312 1.934-.224 2.91-.148a99.74 99.74 0 0024.514-1.101c.678-.115 1.472-.203 1.959.282zm-1.118-15.316c.596.481.384 1.513-.214 1.991-.598.479-1.412.558-2.176.618l-25.624 2.022c-.959.076-1.953.147-2.857-.18-.905-.328-1.699-1.17-1.647-2.131.053-.974.952-1.729 1.899-1.959.947-.229 1.939-.058 2.903.085 8.697 1.285 17.54.113 26.295-.683.491-.044 1.037-.072 1.421.237zm35.786-5.076a74.976 74.976 0 0016.135.309c2.135-.19 4.715-.279 5.927 1.488-1.439 1.163-3.417 1.328-5.264 1.445l-18.367 1.157c-1.397.088-3.138-.017-3.713-1.293-.516-1.145.392-2.521 1.559-2.985 1.167-.464 2.477-.28 3.723-.121zm-46.189-6.546c.006.925-1.153 1.324-2.068 1.458l-13.455 1.972c-.961.141-1.953.28-2.891.03-.938-.251-1.815-.997-1.902-1.964-.108-1.183 1.003-2.182 2.163-2.44s2.362.012 3.541.164c4.064.524 8.164-.37 12.26-.51 1.002-.035 2.344.287 2.352 1.29zm64.925-3.221c1.042.116 2.11.738 2.388 1.748-1.849 1.398-4.293 1.652-6.602 1.857l-11.857 1.051-4.177.37c-1.018.091-2.077.176-3.034-.186-.956-.361-1.773-1.31-1.63-2.322.224-1.595 2.318-2.009 3.928-1.974 5.975.128 12.024 1.03 17.878-.173 1.026-.211 2.065-.487 3.106-.371zm5.249-15.087c-29.287 3.949-59.314 1.904-88.198 8.151-1.713.371-4.104.389-4.547-1.307.04-1.998 2.624-2.719 4.617-2.861l84.295-6.012c1.649-.118 3.962.381 3.833 2.029z" fill="#E7EAEE"/><path fill-rule="evenodd" clip-rule="evenodd" d="M173.462 525.528c.306 3.543-4.578 4.744-8.134 4.758a154.749 154.749 0 00-54.226 10.068c-2.637 1.002-5.459 2.264-6.742 4.776-1.699 3.326.155 7.583 3.162 9.8 3.006 2.216 6.843 2.892 10.53 3.492A1597.967 1597.967 0 00408.2 578.829l1.56-.034c11.195-.259 22.621-.861 32.877-5.293l-25.472-17.853c14.698-2.935 29.863-.844 44.778.628a534.207 534.207 0 00102.75.206c-2.403 3.841-7.689 4.374-12.22 4.472-42.958.925-85.968-.602-128.752-4.569l16.746 11.021c2.023 1.331 4.261 3.021 4.378 5.439.175 3.635-4.29 5.449-7.881 6.042-11.914 1.969-24.034 2.282-36.108 2.459a1646.73 1646.73 0 01-281.859-20.143c-4.545-.721-9.254-1.526-13.044-4.137-3.789-2.61-6.373-7.574-4.78-11.892 1.584-4.294 6.403-6.311 10.754-7.732a252.855 252.855 0 0161.535-11.915zm127.126-320.625l.592 130.227c.047 10.332 2.082 23.406 12.074 26.037 13.806-6.374 29.368-8.892 44.48-7.197 8.651.97 17.635 3.586 23.491 10.026 8.033 8.835 8.046 22.14 7.183 34.05a518.033 518.033 0 01-10.297 71.82c4.056-.256 8.193 1.372 10.987 4.323-4.303 1.968-9.431 2.05-13.795.221 2.997 16.25-10.241 32.283-26.097 36.938-15.855 4.655-33.06.266-47.969-6.86-1.398 5.445 5.886 8.645 11.447 9.467l42.353 6.26a235.061 235.061 0 01-52.046-4.246c-3.153 4.464 3.986 8.971 9.381 9.844l42.929 6.948a404.833 404.833 0 01-48.352-3.225c10.197 9.198 24.116 14.144 37.831 13.441-7.736 2.545-16.332 2.392-23.973-.427 9.559 12.801 29.116 15.173 43.398 8.013 14.282-7.16 23.607-21.808 28.168-37.12 4.562-15.311 5.005-31.493 5.814-47.448 1.492-29.453 4.343-58.866 9.503-87.901 3.474-19.553 12.008-42.867 31.674-45.629a2477.475 2477.475 0 00-105.178-2.612c-10.657-.038-23.896 1.705-27.455 11.751-3.042.315-2.363-4.846-.058-6.856 8.609-7.505 21.154-7.781 32.573-7.664l76.631.784c24.75.254 54.43 3.392 65.635 25.462-.325-6.559 5.619-12.749 12.186-12.689 7.161.066 13.151-6.146 15.241-12.996 2.091-6.85 1.169-14.21.228-21.31-11.548-11.182-14.57-30.189-7.062-44.401 2.124-4.02 5.262-13.604 22.788-19.774 11.683-4.113 23.232-3.66 34.646 1.357 21.436-4.145 36.166-2.674 44.191 4.414 12.037 10.631 12.268 19.344 5.341 27.079 7.832-3.062 17.036 2.131 20.959 9.568 3.923 7.438 3.718 16.349 2.537 24.674-2.923 20.618-11.328 40.434-24.121 56.866l-1.763 5.196c30.946 7.979 55.981 35.332 61.194 66.862-10.288-23.19-24.217-47.75-48.214-55.984-5.415 5.68-10.983 11.607-13.526 19.031-2.543 7.424-1.169 16.805 5.279 21.277l-12.15 2.816 4.045 7.174c-15.304 11.634-17.064 33.638-16.972 52.862.093 19.223-.257 40.903-14.204 54.134-12.43 11.792-31.403 12.598-48.529 12.055a665.234 665.234 0 01-125.185-15.958c-3.494-.788-7.92-1.268-9.934 1.693-14.578 21.434-45.064 23.351-70.918 21.485a630.034 630.034 0 01-98.645-15.047c-18.386-4.319-37.911-10.333-49.365-25.35-13.353-17.507-11.811-41.779-9.644-63.69-13.165 7.319-28.772 10.153-43.67 7.928 15.704-10.267 23.319-29.908 23.462-48.669.143-18.762-6.119-36.947-13.086-54.368-15.351 8.904-23.428 27.672-22.227 45.378 1.201 17.706 10.595 34.14 23.199 46.633-15.537-9.806-25.819-27.471-26.67-45.825-.851-18.353 7.752-36.894 22.316-48.095-2.328-7.959-14.334-8.931-20.627-3.532-6.292 5.4-8.267 14.164-9.886 22.296-2.99 15.026-5.994 30.403-3.82 45.569 2.172 15.167 10.55 30.348 24.588 36.484-6.56 4.729-15.298-2.078-19.655-8.892-17.67-27.63-18.203-65.291-1.324-93.41 2.028-3.378 4.367-6.707 7.669-8.857 3.5-2.279 7.768-3.028 11.928-3.396 16.41-1.454 33.247 2.377 47.414 10.786l-.38-138.129c-.007-2.636.03-5.434 1.435-7.665 2.034-3.227 6.199-4.227 9.948-4.926a857.275 857.275 0 01103.213-12.849c11.313-.716 26.795 2.433 26.846 13.768zm-23.123-10.994a721.846 721.846 0 00-109.3 13.56c-1.533.311-3.156.673-4.27 1.771-1.518 1.495-1.635 3.864-1.655 5.994-.43 45.846-.248 91.698.546 137.54l13.223-3.297c-1.723-9.407-3.454-18.941-2.717-28.475.737-9.535 4.236-19.232 11.432-25.529 7.789-6.816 18.659-8.742 28.984-9.467a173.155 173.155 0 0129.818.482c10.107 1.039 20.754 3.283 28.046 10.359 10.532 10.22 10.703 26.778 10.158 41.445l-4.343 116.801c-.34 9.139-.7 18.401-3.389 27.142-2.69 8.741-8.029 17.049-16.106 21.338-7.926 4.21-17.41 4.09-26.327 3.077a152.32 152.32 0 01-25.174-5.039c-4.999-1.449-10.001-3.192-14.249-6.199-14.059-9.949-15.721-29.8-16.062-47.019-5.398-.975-10.676 3.133-12.904 8.146-2.229 5.012-2.131 10.707-1.992 16.19.345 13.679.878 28.04 7.861 39.807 10.774 18.156 33.403 24.863 54.065 29.198a771.889 771.889 0 00111.309 15.002c-16.692-8.502-31.491-23.052-35.011-41.45-.957-4.998-1.059-10.115-1.159-15.203l-5.846-298.435c-.124-6.291-8.653-8.035-14.938-7.739zm142.297 163.325c-.928 2.264-1.603 4.777-.985 7.145.619 2.368 2.919 4.435 5.334 4.033 10.812-1.801 22.468 3.525 28.184 12.879 4.716 7.717 5.371 17.159 5.902 26.188l4.836 82.246c.517 8.789.772 18.46-4.69 25.365-7.088 8.958-20.395 9.257-31.764 8.145-9.381-.918-19.249-2.478-26.532-8.461a15.052 15.052 0 01-2.811 9.869c-2.536 3.485 1.558 8.071 5.54 9.718 4.865 2.013 10.155 2.714 15.375 3.392a7794.96 7794.96 0 0071.777 8.978c18.426 2.218 37.147 4.367 55.466 1.389a119.034 119.034 0 01-32.763-14.849c-5.032-3.278-9.897-7.024-13.328-11.952-5.602-8.045-6.782-18.267-7.714-28.026a1790.658 1790.658 0 01-6.187-87.222c-.997-21.478-7.883-42.653-19.711-60.608-2.115-3.21-4.702-6.542-8.442-7.436-14.867-3.553-31.686 5.064-37.487 19.207zm-68.17 185.859c1.261.214 2.555.497 3.595 1.242 1.039.746 1.764 2.07 1.444 3.309-.32 1.238-1.954 2.053-2.987 1.298-1.14-.833-2.655-.862-4.013-1.246-1.359-.384-2.783-1.512-2.538-2.902.309-1.763 2.735-2.001 4.499-1.701zm-52.358.523c1.565.325 3.396 1.441 3.076 3.006-.283 1.381-1.991 1.841-3.388 2.028-1.566.209-3.237.403-4.658-.286-1.422-.688-2.344-2.63-1.411-3.905.629-.86 1.806-1.088 2.87-1.132 1.176-.047 2.358.05 3.511.289zm93.608-17.401c-1.485 1.071-2.505 2.65-3.553 4.151a67.93 67.93 0 01-17.758 17.45c.173.734 1.274.549 1.927.17 8.02-4.647 13.744-12.324 19.237-19.79.45-.61.821-1.633.147-1.981zm71.717-184.894c4.279 5.052 8.592 10.153 11.722 15.988 3.394 6.325 5.3 13.334 6.835 20.347 8.587 39.227 6.295 80.01 11.86 119.779 1.005 7.176 2.332 14.505 6.066 20.715 4.374 7.275 11.633 12.318 19.029 16.485 5.981 3.37 12.225 6.329 18.793 8.326 10.446 3.174 22.995 3.396 31.002-4.025 4.497-4.168 6.862-10.113 8.709-15.959 7.919-25.056 8.79-52.299 2.487-77.809.159 15.257 2.14 30.479 1.687 45.73-.454 15.251-3.585 30.957-12.55 43.303-1.776 2.446-3.834 4.793-6.518 6.183-3.535 1.831-7.734 1.796-11.686 1.313a58.682 58.682 0 01-19.823-6.126c-4.69-2.429-9.029-5.481-13.233-8.678-4.887-3.716-9.685-7.719-13.109-12.815-3.393-5.05-5.285-10.95-6.785-16.847-10.955-43.057-3.122-89.503-16.121-131.987-3.064-10.013-8.385-20.756-18.365-23.923zM203.212 530.742l75.869 11.71c-.641 1.673-2.953 1.732-4.729 1.495l-64.884-8.668-7.335-.98c-1.161-.155-2.602-.575-2.749-1.737-.206-1.637 2.197-2.072 3.828-1.82zm293.371-148.604c-5.341 5.945-4.956 14.914-4.257 22.875l4.594 52.275c.072.815.159 1.674.637 2.338.782 1.087 2.295 1.276 3.631 1.37l54.546 3.843c-1.36 2.149-4.424 2.181-6.96 1.986a494.011 494.011 0 00-51.466-1.283 73.98 73.98 0 003.81 26c1.217 3.617 5.904 4.388 9.718 4.542l43.63 1.767c.669 1.506-1.681 2.447-3.329 2.428l-44.847-.515c-2.047-.024-2.788 2.877-2.017 4.774 2.017 4.957 8.437 6.024 13.778 6.359l33.423 2.092c.762.048.921 1.248.364 1.771-.557.523-1.406.538-2.17.521l-39.132-.83c10.118 12.042 24.309 20.599 39.682 23.927 3.312.717 6.824 1.188 10.042.125 3.85-1.271 6.69-4.541 8.913-7.932 11.79-17.988 11.006-41.133 9.801-62.606l-1.365-24.34c.477-.656 1.457-.883 2.174-.504.276-1.193-1.276-1.901-2.481-2.122-26.598-4.886-53.891-9.779-80.51-5.008-.851-.349-.843-1.673-.196-2.327.647-.653 1.628-.812 2.539-.938l10.917-1.501c-8.351-3.772-13.413-12.731-14.925-21.769-1.512-9.037-.035-18.277 1.456-27.318zM365.856 530.103c2.369.441 5.105 1.165 6.03 3.39-2.638 1.798-6.102 1.613-9.284 1.359-.875-.07-1.832-.176-2.447-.803-1.088-1.109-.276-3.153 1.124-3.827 1.4-.674 3.05-.404 4.577-.119zm-180.431-16.259a372.812 372.812 0 0083.962 16.096c2.209.164 5.179 1.217 4.755 3.392a842.483 842.483 0 01-89.638-15.075c-1.888-.423-4.31-1.768-3.607-3.57.618-1.584 2.906-1.353 4.528-.843zm99.797 13.214c1.391-.003 2.734.473 4.035.968.661.252 1.389.576 1.645 1.236.547 1.406-1.392 2.41-2.876 2.68l-2.996.543c-.843.153-1.75.299-2.526-.065-1.259-.59-1.586-2.408-.864-3.597.723-1.189 2.191-1.762 3.582-1.765zm128.303-3.004c12.053 2.292 24.397 2.422 36.665 2.545.95.01 1.206 1.503.527 2.168-.678.664-1.736.694-2.686.675-11.451-.225-22.918-1.432-34.337-.532-1.243.098-2.534.215-3.701-.223-1.167-.437-2.163-1.617-1.941-2.844.191-1.057 1.222-1.798 2.277-2.003 1.055-.204 2.14.013 3.196.214zm27.228-188.937c-13.646 2.037-25.111 14.183-26.358 27.924-1.165 12.833-4.708 25.313-7.229 37.95-8.098 40.582-5.642 82.64-12.801 123.398 2.615-4.762 3.321-10.304 3.979-15.696l17.36-142.169c.462-3.783.934-7.61 2.293-11.17 3.714-9.731 13.313-15.843 22.756-20.237zm-62.046 184.132c.743.236 1.505.546 2.001 1.148.495.603.62 1.576.078 2.137-.409.423-1.049.5-1.635.551l-5.754.509c-1.035.091-2.105.179-3.092-.148-.986-.327-1.876-1.182-1.905-2.221-.048-1.76 2.123-2.644 3.88-2.759a17.49 17.49 0 016.427.783zm40.393-147.18c-1.587.57-2.012 2.576-2.192 4.253l-5.988 55.766c-.354 3.303 3.91 5.41 7.13 4.592 3.219-.817 5.677-3.333 8.461-5.145 2.783-1.812 6.708-2.856 9.264-.735 2.888 2.398 7.165-.265 9.674-3.057 2.51-2.793 5.778-6.159 9.347-4.994l-12.559 12.014c-1.389 1.328-2.613 3.981-.859 4.765a29.432 29.432 0 0012.474-8.577c1.533-.049 1.606 2.359.75 3.632-3.223 4.796-10.809 5.865-12.762 11.303-4.559 12.695-18.777 21.128-32.104 19.04-2.733-.428-4.096 3.167-4.425 5.914l-3.935 32.862c-.302 2.52-.584 5.186.454 7.502 1.731 3.864 6.361 5.327 10.466 6.367 7.711 1.953 15.549 3.921 23.498 3.64 7.949-.281 16.169-3.123 21.203-9.282-1.394-1.81-4.499.511-6.529-.537-1.987-1.024-.931-4.436 1.201-5.107 2.132-.67 4.383.396 6.363 1.432 1.244-2.427 2.523-5.025 2.267-7.74-.255-2.715-2.748-5.401-5.406-4.79-1.747.401-2.459-2.626-1.05-3.735 1.408-1.109 3.431-.749 5.175-.335l.291-19.659c.02-1.338.024-2.742-.61-3.92-.634-1.177-2.138-2.002-3.343-1.421-1.642.791-3.066-2.006-1.967-3.46 1.099-1.455 3.174-1.643 4.996-1.706a98.554 98.554 0 00-1.123-17.407c-6.859 3.437-8.059 12.507-8.751 20.148a241.713 241.713 0 01-7.963 43.355c-.888 3.174-1.889 6.42-3.966 8.979-2.077 2.56-5.499 4.299-8.688 3.466.715-2.327 3.151-3.577 4.935-5.235 3.211-2.984 4.404-7.496 5.451-11.752 3.62-14.709 7.261-29.597 7.216-44.745l-.007-1.016c-.024-2.884-.054-5.809.897-8.519 1.062-3.028 3.725-5.766 6.934-5.782 3.384-.016 4.192-4.71 3.89-8.081l-3.13-34.863c-.333-3.712-.673-7.459-1.799-11.011-4.165-13.134-20.213-21.075-33.181-16.419zm51.062 141.735c1.591.427 3.134 2.063 2.473 3.571-.631 1.441-2.613 1.52-4.179 1.372-.766-.073-1.581-.165-2.18-.649-1.049-.848-.901-2.646.082-3.57.982-.925 2.502-1.074 3.804-.724zm-191.131-1.611c1.047.227 2.137.532 2.889 1.294.752.761 1.001 2.119.253 2.885-.61.627-1.596.638-2.47.607l-3.771-.132c-.728-.026-1.506-.068-2.09-.503-1.249-.928-.701-3.104.64-3.894 1.341-.789 3.028-.586 4.549-.257zm-96.849-11.403c7.037 3.272 14.767 4.699 22.412 6.031a1362.448 1362.448 0 0046.559 7.284c2.178.302 4.589.73 5.916 2.482-6.026.412-12.048-.592-18.004-1.592l-58.904-9.891c-2.059-.346-4.716-1.489-4.315-3.537.475-2.428 4.093-1.82 6.336-.777zm122.178-69.547c-.684 2.742-.553 5.613-.46 8.437a287.486 287.486 0 01-3.121 52.768c-.634 4.158 1.85 8.316 5.265 10.771 3.415 2.456 7.622 3.511 11.752 4.306a125.834 125.834 0 0028.302 2.188c3.604-.13 7.356-.462 10.438-2.335 2.918-1.773 4.896-4.723 6.638-7.66a108.308 108.308 0 0014.153-40.779c-26.58-.12-53.002-10.149-72.967-27.696zm69.519 69.919l5.444 1.797c.606.2 1.255.431 1.614.958.606.89.017 2.192-.921 2.72-.939.528-2.079.499-3.155.457-1.959-.078-4.123-.243-5.491-1.648-1.367-1.405-.898-4.436 1.058-4.564.495-.032.98.125 1.451.28zm95.129.263c1.08.173 2.218.372 3.05 1.081.832.709 1.173 2.113.407 2.892-.309.314-.737.476-1.153.621-1.607.559-3.391 1.005-4.98.396-1.588-.609-2.671-2.709-1.673-4.086.918-1.265 2.805-1.15 4.349-.904zm-282.148-58.71c-1.119.53-2.316 1.134-2.868 2.242-.412.825-.39 1.792-.36 2.714.418 12.564.945 25.578 6.564 36.823 1.518 3.037 3.448 5.96 6.181 7.974 1.656 1.22 3.55 2.067 5.429 2.904 3.261 1.452 6.528 2.903 9.913 4.037 7.753 2.596 15.959 3.476 24.09 4.34 3.448.366 7.12.695 10.213-.872 3.641-1.845 5.581-5.842 7.147-9.611a194.105 194.105 0 0014.654-66.331c.132-3.232-4.005-4.658-7.232-4.875-25.762-1.729-50.4 9.595-73.731 20.655zm84.963-16.692c-.661.869-.743 2.033-.808 3.123a207.465 207.465 0 01-18.766 74.52c10.311-5.218 17.994-15.352 20.235-26.69.77-3.898.928-7.888 1.083-11.858l1.471-37.559c.025-.66.03-1.385-.39-1.895-.694-.843-2.164-.51-2.825.359zm4.271 62.643c1.308.071 2.538.615 3.81.931 1.139.284 1.483 1.906.847 2.892-.636.987-1.862 1.416-3.024 1.579-1.213.17-2.518.106-3.562-.536-1.043-.643-1.72-1.983-1.303-3.135.445-1.233 1.923-1.802 3.232-1.731zm193.664-3.399c1.224.253 2.273 1.011 3.28 1.749.547.401 1.129.851 1.307 1.505.229.835-.322 1.734-1.081 2.151-.759.416-1.668.445-2.531.376-1.226-.098-2.492-.401-3.417-1.212-.926-.81-1.396-2.233-.819-3.319.585-1.104 2.038-1.503 3.261-1.25zm-291.052-38.894c-.335.596-.267 1.328-.19 2.007l1.818 16.006c.986 8.685 2.278 18.046 8.349 24.335 1.012-.48.441-2.002-.197-2.923-4.918-7.096-5.865-16.12-6.662-24.717l-1.403-15.117c-.47-.497-1.381-.188-1.715.409zm323.726 32.785l50.037 1.236c2.553.063 5.113.126 7.639.505-.527 1.824-2.925 2.167-4.824 2.149-16.726-.157-33.507-1.193-50.143.546-1.422.149-2.957.295-4.192-.427-1.234-.722-1.787-2.704-.652-3.574.588-.451 1.394-.453 2.135-.435zm-45.825-3.277c.367.12.742.248 1.042.492.997.811.626 2.545-.394 3.328-1.019.783-2.394.873-3.679.905-1.338.033-2.898-.073-3.66-1.173-.957-1.38.18-3.423 1.764-3.983s3.33-.091 4.927.431zm12.194-3.37a9.898 9.898 0 014.375 1.576c.997.659.798 2.314-.11 3.092-.907.779-2.203.888-3.398.844-1.208-.043-2.469-.227-3.446-.938-.978-.712-1.56-2.087-1.036-3.176.598-1.244 2.243-1.546 3.615-1.398zm-168.022-38.064a514.21 514.21 0 00-1.221 39.338c.004.555.382 1.343.856 1.054a358.582 358.582 0 001.476-33.181c-.004-2.453-.054-4.997-1.111-7.211zm-17.831 33.582c1.431.108 2.694.941 3.86 1.777.359.257.729.532.93.925.415.816-.083 1.865-.864 2.342-.782.477-1.749.515-2.663.472-2.08-.097-4.695-1.229-4.462-3.298.16-1.426 1.768-2.325 3.199-2.218zm189.318-8.817c1.393.571 2.826 2.064 2.107 3.387-.487.895-1.675 1.088-2.694 1.099a19.461 19.461 0 01-3.533-.289c-1.64-.286-1.891-2.865-.618-3.937 1.273-1.072 3.198-.893 4.738-.26zm162.301-25.615c.574.961.584 2.144.577 3.263l-.146 23.765c-.006.962-.135 2.127-1.008 2.531-.755.349-1.685-.141-2.105-.858-.42-.718-.458-1.589-.472-2.42-.122-7.072.666-14.313-1.337-21.097-.595-2.015-1.307-4.533.25-5.945 1.216-1.103 3.398-.648 4.241.761zm-203.656-.917c-6.004 3.726-12.32 7.557-19.369 8.064-1.282.092-1.859 1.624-2.112 2.885a96.69 96.69 0 00-1.875 17.226c-.006.353-.003.733.201 1.022.325.459.988.478 1.55.448 5.498-.288 11.072-.862 16.178-2.92 5.107-2.059 9.753-5.788 11.834-10.886 2.081-5.097 1.08-11.599-3.17-15.1-.914-.753-2.23-1.363-3.237-.739zm-45.969 22.297l5.788 1.52c.721.189 1.522.441 1.867 1.102.406.778-.067 1.782-.801 2.263-.735.48-1.649.571-2.523.649-1.387.123-2.815.243-4.146-.167-1.33-.41-2.555-1.483-2.708-2.867-.152-1.383 1.177-2.853 2.523-2.5zM117.327 349.416c7.22 2.925 12.655 9.25 16.026 16.273 3.371 7.023 4.906 14.766 6.243 22.441 2.214 12.701 3.977 25.666 2.363 38.458-1.614 12.791-6.962 25.547-16.875 33.791 7.221.386 15.843.1 19.763-5.977 1.759-2.727 5.546-3.934 8.559-2.728-1.895-1.637-.465-4.686.941-6.758 5.76-8.489 9.712-18.246 11.124-28.407 2.738-19.703-4.146-39.671-14.362-56.739-6.627-11.075-22.087-15.813-33.782-10.354zm171.197 102.062c1.49.587 1.143 3.049-.249 3.84-1.393.79-3.128.435-4.68.04-.724-.184-1.492-.399-1.983-.962-1.147-1.312.169-3.531 1.868-3.923 1.699-.392 3.422.367 5.044 1.005zm53.565-94.809c-6.376.113-13.067.89-18.272 4.574-1.721 1.218-3.284 2.812-3.913 4.825-.628 2.013-.099 4.486 1.647 5.668 4.413 2.988 6.211 8.579 7.038 13.844.827 5.265 1.026 10.778 3.425 15.537 1.237 2.454 3.011 4.595 4.872 6.618 10.087 10.967 23.245 19.081 37.574 23.17 2.519.719 5.724 2.275 5.192 4.84-20.615-4.323-39.414-16.764-51.452-34.049-3.658 11.234-10.873 21.28-20.35 28.335 18.486 15.731 42.409 24.948 66.672 25.687 1.099.033 2.343-.008 3.084-.82.486-.532.638-1.28.77-1.988a513.938 513.938 0 007.246-55.856c.476-6.408.825-12.923-.56-19.198-1.386-6.275-4.728-12.375-10.192-15.757-3.367-2.083-7.308-3.019-11.206-3.714a111.608 111.608 0 00-21.575-1.716zm126.669 89.875c1.672.001 3.781.49 4.074 2.135.292 1.64-1.576 2.861-3.229 3.072-1.208.155-2.522.008-3.481-.744-.959-.752-1.405-2.225-.739-3.245.683-1.047 2.126-1.219 3.375-1.218zm123.505-32.932c-3.068 11.885-4.859 24.056-6.644 36.2-.089.604-.14 1.319.316 1.725a172.462 172.462 0 0013.123-18.723c.39-.644.774-1.486.336-2.098l-2.972-4.155c-.735-1.028-1.493-2.382-.846-3.468.526-.883 1.702-1.069 2.725-1.163l8.402-.774c-.091-.52-.407-.969-.716-1.398-2.249-3.131-4.703-6.423-8.305-7.796-1.996-.761-4.885-.418-5.419 1.65zM203.131 290.665c-6.142 1.031-12.794 2.808-16.359 7.915-1.995 2.858-2.729 6.388-3.315 9.824a176.347 176.347 0 00-2.14 40.983c26.478-12.319 57.459-14.66 85.487-6.458 2.378.696 5.319 2.804 4.071 4.944-21.025-7.777-44.444-8.937-66.134-3.275-7.019 1.832-13.84 4.351-20.818 6.33a140.301 140.301 0 01-31.852 5.169c19.613 26.629 22.151 64.76 6.241 93.753 9.899-1.873 19.2-6.032 28.328-10.298 13.628-6.368 27.196-13.084 41.673-17.172 14.476-4.089 30.127-5.426 44.486-.943 1.68.524 2.606-1.9 2.673-3.659l3.111-81.522c.472-12.349.511-26.004-7.574-35.351-7.154-8.271-18.821-10.858-29.717-11.788a152.515 152.515 0 00-38.161 1.548zm189.7 151.309c.402.262.817.593.911 1.064.191.955-.972 1.564-1.909 1.83-1.361.386-2.764.772-4.171.624-1.407-.148-2.839-.956-3.301-2.293-.463-1.338.467-3.093 1.881-3.119a11.741 11.741 0 016.589 1.894zm199.72-51.298c-5.121 2.872-11.241 3.922-17.027 2.92.74 2.064 3.985 2.784 4.001 4.976.01 1.335-1.248 2.275-1.963 3.403-.55.867-.788 1.891-1.007 2.895a156.392 156.392 0 00-3.531 28.728c-.049 1.665.365 3.863 2.02 4.044 3.428.375 6.656 2.298 8.62 5.132l4.828-30.379c.373-2.349.687-4.974-.689-6.914-1.895-2.669-.246-6.326 1.415-9.147l3.333-5.658zm-304.967 43.769c1.748.349 3.737 1.859 3.074 3.514-.408 1.019-1.64 1.431-2.736 1.49-1.097.058-2.238-.104-3.265.285-1.209.458-2.632-.612-2.78-1.896-.147-1.285.745-2.531 1.908-3.096 1.164-.564 2.531-.55 3.799-.297zm181.153-1.564c1.102.152 2.265.395 3.067 1.166.802.771 1.022 2.239.168 2.952-.282.236-.638.36-.986.479-1.514.517-3.134 1.023-4.687.64-1.553-.384-2.903-2.032-2.366-3.539.619-1.738 2.977-1.951 4.804-1.698zm100.323-20.817c-1.167.281-2.018 1.255-2.787 2.176l-4.635 5.55c-.905 1.085.688 2.597 2.096 2.715 1.409.117 3.053-.214 4.055.783 1.05 1.043.617 2.863-.242 4.069-.86 1.205-2.079 2.189-2.599 3.575-.777 2.073.509 4.67 2.628 5.308 1.151.347 2.766-.187 2.776-1.389.06-7.025.47-14.048 1.23-21.033.13-1.193-1.355-2.036-2.522-1.754zm-235.165 3.489c.888.59 1.462 1.534 2.054 2.42 5.085 7.614 13.589 12.846 22.677 13.953 2.102.256 4.582.511 5.636 2.348-1.98 1.961-5.206 1.722-7.921 1.09-9.622-2.238-18.438-7.797-24.606-15.514-.984-1.231-1.882-3.103-.785-4.234.742-.765 2.057-.653 2.945-.063zm230.168-33.643c-6.795 1.67-13.581 4.026-19.088 8.342-5.507 4.317-9.603 10.875-9.56 17.871.055 8.874-4.305 17.667-11.401 22.995l11.948 1.406c1.398.165 2.967.284 4.062-.602 1.602-1.295 1.192-3.782.787-5.803-.405-2.02-.315-4.69 1.607-5.433 2.386-.922 4.361 2.389 4 4.922-.362 2.533-1.832 4.971-1.372 7.488a384.39 384.39 0 0017.023 2.028c-1.132-.929-1.256-2.689-.683-4.037.572-1.347 1.684-2.378 2.764-3.366 1.151-1.053-.508-2.907-2.058-3.074-1.551-.167-3.375.206-4.468-.906-1.36-1.384-.34-3.702.82-5.257 2.25-3.017 5.04-6.654 3.591-10.127-3.532-8.471-2.755-18.613 2.028-26.447zM303.48 358.764a750.4 750.4 0 00.389 69.6c8.858-4.806 15.33-13.264 19.344-22.508 2.449-5.64 4.088-11.856 3.109-17.927-.73-4.526-2.873-8.708-5.365-12.557-4.42-6.828-10.191-12.991-17.477-16.608zm205.403-11.11c3.181-.586 5.613 3.341 5.071 6.53-.542 3.189-2.86 5.725-4.702 8.384-2.545 3.674-4.286 7.833-6.008 11.957a64.251 64.251 0 00-4.592 31.236c.647 6.228 2.353 12.624 6.564 17.257 4.211 4.634 11.428 6.95 16.976 4.05 4.766-2.49 7.143-7.982 8.236-13.246 1.093-5.265 1.288-10.777 3.352-15.742 3.809-9.159 13.202-14.693 22.494-18.167-13.968-1.897-26.606-11.63-32.009-24.65-1.549-3.734-2.712-7.943-5.926-10.395-3.215-2.451-9.267-1.252-9.456 2.786zm-118.069 74.701c.982.189 1.946.474 2.873.851 1.529.622 3.171 2.342 2.188 3.668-.538.724-1.57.811-2.471.834-1.644.042-3.417.047-4.759-.902-1.343-.949-1.808-3.246-.454-4.179.744-.513 1.736-.442 2.623-.272zm74.052-3.914c1.331.113 2.655.297 3.965.552.648.127 1.347.303 1.755.823.617.787.229 2.023-.553 2.649-.781.625-1.82.801-2.809.956-1.511.237-3.122.461-4.516-.168-1.394-.629-2.345-2.472-1.493-3.741.743-1.108 2.322-1.184 3.651-1.071zm-380.168-7.153c-1.126-.013-1.516 1.491-1.482 2.617a28.55 28.55 0 001.928 9.47c.327.334.706-.362.66-.827l-1.106-11.26zm216.441 8.33c-.703.381-.971 1.392-.549 2.071l.017.025-.015.016a.927.927 0 00-.06.082c-.283.428.113 1.107.625 1.071a5.18 5.18 0 00-.018-3.265zm-14.64-4.579c1.524.337 3.179 1.602 2.799 3.116-.251 1.003-1.307 1.592-2.316 1.816-1.01.225-2.077.21-3.041.584-1.227.477-2.703-.512-2.956-1.803-.253-1.291.538-2.639 1.68-3.294 1.141-.654 2.549-.703 3.834-.419zm8.821-213.6a4824.962 4824.962 0 004.809 209.351l.328 7.211.05-2.32c.089-5.42.01-10.843-.069-16.264l-2.792-190.627c-.039-2.661-.249-5.689-2.326-7.351zm99.846 203.392c.855.256 1.713.644 2.268 1.343.554.7.713 1.774.164 2.478-.531.682-1.493.811-2.354.887l-3.672.326c-.601.054-1.246.098-1.768-.204-.422-.244-.701-.688-.829-1.158-.385-1.414.571-2.949 1.894-3.579 1.324-.631 2.893-.513 4.297-.093zM99.33 350.187c-3.818 3.752-5.804 8.938-7.64 13.967-5.113 14.013-9.972 28.887-7.449 43.589.78.143 1.152-.919 1.21-1.71a169.472 169.472 0 018.414-41.711c1.733-5.142 3.817-10.364 7.667-14.188-.053-.931-1.536-.601-2.202.053zm469.43 30.654c-.666.164-1.097.792-1.445 1.383a32.404 32.404 0 00-4.374 18.615c.19 2.665 1.047 5.736 3.536 6.708l6.072-5.83c.321-.308.651-.628.828-1.037.444-1.022-.191-2.163-.774-3.112-2.884-4.694-5.05-10.642-2.648-15.599.299-.617-.529-1.292-1.195-1.128zm42.054-6.016c-.323.169-.572.447-.814.72a448.016 448.016 0 00-17.299 20.8c-1.16 1.484-2.371 3.158-2.257 5.038.101 1.671 1.277 3.127 2.702 4.007 1.425.879 3.085 1.28 4.714 1.668.436.103.909.204 1.319.023.377-.167.616-.537.834-.888 3.401-5.483 6.85-11.076 8.456-17.325.343-1.333 1.499-2.264 2.422-3.284a11.483 11.483 0 002.938-7.376c.021-.915-.086-1.88-.616-2.627-.529-.747-1.587-1.179-2.399-.756zm-145.506 26.747c.823.204 1.731.516 2.1 1.28.651 1.345-.876 2.749-2.304 3.19-1.107.343-2.34.461-3.402-.003-1.062-.464-1.867-1.635-1.627-2.768.428-2.012 3.237-2.194 5.233-1.699zm-177.446-2.938c.388.349.748.758.896 1.259.296 1.007-.407 2.117-1.372 2.531-.964.414-2.091.254-3.063-.142-1.024-.417-2.021-1.216-2.151-2.313-.149-1.256.989-2.411 2.24-2.593 1.251-.181 2.508.415 3.45 1.258zm110.726-11.037c.998.406 1.102 1.917.413 2.746-.688.83-1.837 1.106-2.911 1.196-1.074.091-2.185.051-3.189.444-1.542.604-3.22-1.259-2.853-2.874.368-1.615 2.102-2.619 3.757-2.696 1.654-.077 3.249.559 4.783 1.184zm65.009-2.43c1.415.07 2.815.442 4.078 1.083.549.279 1.115.664 1.271 1.259.321 1.224-1.215 2.065-2.459 2.304-1.102.212-2.22.338-3.342.376-1.384.048-3.055-.218-3.606-1.489-.429-.987.093-2.198.97-2.822.877-.624 2.013-.763 3.088-.711zm91.258-90.408a454.32 454.32 0 01-24.873 3.311c-6.026.634-11.702 4.053-15.08 9.084-.694 1.033-1.172 2.683-.1 3.316a23.104 23.104 0 0111.633-7.193c1.603-.412 3.357-.636 4.869.038 1.511.673 2.592 2.527 1.908 4.034-1.05 2.314-4.401 1.666-6.937 1.512-7.053-.43-13.152 7.642-10.813 14.309 1.642-6.365 10.73-9.128 15.823-4.973 5.093 4.156 4.47 13.282-.977 16.96-1.8 1.216-4.112 2.063-4.933 4.074-.705 1.724-.027 3.671.649 5.407l3.181 8.171c2.224 5.71 4.586 11.629 9.086 15.789 3.46 3.198 7.948 5.101 12.526 6.217 16.507 4.023 35.089-2.38 45.613-15.717.844-1.068 2.769-.054 2.919 1.299.15 1.353-.774 2.57-1.69 3.577a45.262 45.262 0 01-17.194 11.766c-3.092 1.188-6.767 2.473-7.718 5.646-.787 2.628.869 5.532 3.247 6.9 2.378 1.368 5.277 1.483 8.004 1.185a29.98 29.98 0 0015.023-6.077c1.31-1.017 2.579-2.205 3.161-3.758.552-1.47.426-3.097.292-4.661l-.116-1.345c-.51-5.835-1.171-11.738-3.549-17.073-1.144-2.567-2.675-4.971-3.517-7.652-1.039-3.306-.977-6.853-1.675-10.247-.698-3.394-2.466-6.92-5.698-8.171.854-2.169 2.984-3.534 4.363-5.413 1.379-1.879 1.581-5.161-.589-6.01-1.039-.405-2.221-.056-3.21.458-4.169 2.165-6.419 7.464-5.08 11.967.873 2.939-3.77 4.911-6.27 3.136-2.499-1.775-3.116-5.156-3.608-8.182-1.911-11.73-5.746-24.377-15.765-30.771-.876-.559-1.879-1.079-2.905-.913zm-267.869 83.21c1.317.427 2.631 1.61 2.356 2.967-.259 1.284-1.735 1.884-3.026 2.105-1.83.313-4.217-.046-4.731-1.83-.49-1.698 1.287-3.324 3.045-3.51a5.714 5.714 0 012.356.268zm211.237-24.434c-1.228 1.164-1.826 2.826-2.384 4.423-1.259 3.603-2.534 7.312-2.389 11.126.093 2.455-1.332 4.667-2.348 6.904-1.017 2.237-1.569 5.102.025 6.971 3.807-3.201 4.721-8.589 5.558-13.492 1.001-5.862 2.362-11.939 6.153-16.52-1.327-1.05-3.387-.576-4.615.588zm-100.319 16.337c.98.315 2.09.945 2.102 1.974.014 1.252-1.527 1.828-2.758 2.053l-1.853.339c-1.573.288-3.259.564-4.722-.084-1.462-.647-2.436-2.621-1.481-3.905.617-.83 1.753-1.056 2.786-1.12 1.998-.123 4.02.13 5.926.743zm-143.068-18.081c1.721.823 3.647 2.445 3.01 4.244-17.736-3.867-36.683-1.954-53.288 5.378-7.471 3.3-14.485 7.662-22.218 10.293-2.645.899-5.533 1.59-8.206.774-2.672-.816-4.901-3.652-4.119-6.334.733-2.519 3.538-3.716 6.022-4.557a377.474 377.474 0 0137.31-10.528c13.754-3.129 28.764-5.357 41.489.73zm254.655-.213c-1.266-.005-2.331.924-3.164 1.878-2.02 2.315-3.456 5.09-4.523 7.97a38.13 38.13 0 00-2.319 11.168 271.96 271.96 0 0111.75-18.463c.722-1.041-.478-2.548-1.744-2.553zm-22.472 11.239c-.347.002-.714.015-1.007.201-.661.418-.569 1.396-.373 2.153a37.457 37.457 0 002.564 6.972 38.744 38.744 0 013.096-9.095c-1.42-.163-2.85-.24-4.28-.231zm-277.908-8.107l-31.493 9.679c-1.254.386-2.709.981-2.976 2.265.853 1.246 2.479 1.774 3.987 1.701 1.508-.073 2.939-.652 4.337-1.223l31.95-13.054c-1.902-.532-3.917.052-5.805.632zm110.779 5.889c-.564.978-1.738 1.393-2.618 2.101-.879.708-1.395 2.231-.466 2.873l4.265-4.271a2 2 0 00-1.181-.703zm110.761-.757c7.631.794 15.331 1.2 22.974.542 1.978-.171 4.343-.25 5.516 1.35-1.481 1.509-3.81 1.691-5.923 1.782l-23.801 1.019c-1.548.067-3.508-.13-4.01-1.596-.395-1.154.503-2.426 1.631-2.889 1.128-.463 2.4-.335 3.613-.208zm117.971-8.338c1.846 2.246 2.521 5.406 1.752 8.209-.19.692-.467 1.371-.91 1.936-1.16 1.482-3.303 1.92-5.134 1.481-1.83-.438-3.398-1.604-4.795-2.865-1.44-1.301-2.79-2.782-3.481-4.595-.691-1.813-.611-4.018.615-5.522 1.011-1.239 2.643-1.833 4.238-1.95 2.899-.212 5.869 1.06 7.715 3.306zm-257.234 5.221c.729.589.607 1.813-.015 2.514-.623.701-1.572 1-2.482 1.226-1.074.268-2.203.478-3.28.222-1.076-.256-2.086-1.092-2.219-2.19-.192-1.595 1.477-2.842 3.063-3.092a6.378 6.378 0 014.933 1.32zm248.785-4.692c-.808 1.047-.277 2.935 1.034 3.114 1.513.207 2.691 1.797 2.447 3.305-.192 1.184 1.252 2.174 2.398 1.818 1.145-.355 1.808-1.639 1.783-2.838-.026-1.199-.598-2.317-1.247-3.326-.715-1.112-1.59-2.192-2.797-2.733-1.206-.542-2.809-.386-3.618.66zm-4.03-107.496c-11.001 2.015-21.898 6.82-28.994 15.465-7.095 8.645-9.549 21.583-4.002 31.294 1.96 3.431 4.953 6.424 8.716 7.632 3.763 1.208 8.314.319 10.824-2.733 2.848-3.462 8.598-.142 12.884-1.456a72.777 72.777 0 0118.286-3.13c1.469-.061 2.984-.07 4.355.461 1.488.577 2.664 1.734 3.795 2.861 3.922 3.907 7.924 7.927 10.245 12.953 3.682 7.969 2.771 17.687 7.422 25.132l1.631-14.007c.201-1.732.426-3.531 1.362-5.003.937-1.471 2.809-2.504 4.448-1.908 2.892 1.05 5.903 2.178 7.979 4.45 2.075 2.271 2.843 6.057.848 8.399-1.928 2.263.259 5.534 1.283 8.325 1.774 4.836-.312 10.362 1.083 15.321 1.155 4.108 4.492 7.175 7.68 10.011.932.829 2.02 1.713 3.262 1.6 1.041-.095 1.877-.87 2.587-1.636a33.194 33.194 0 008.262-16.486c.452-2.473-.407-6.075-2.898-5.737.681-5.932 6.134-9.974 9.336-15.013 3.454-5.436 4.27-12.119 4.428-18.557.159-6.471-.473-13.503-4.785-18.33-5.181-5.799-15.247-6.232-20.907-.9-1.411 1.33-3.27 3.086-4.953 2.124l3.957-7.099c2.15-3.856 4.345-7.853 4.782-12.246.863-8.668-5.736-16.876-13.897-19.924-8.16-3.049-17.373-1.785-25.558 1.197-2.052.747-4.476 2.352-3.919 4.463.322 1.223 1.56 1.961 2.196 3.055.396.681.356.899-.092 1.451-.27.333-.758 1.298-1.195 1.109-4.641-5.374-9.66-11.001-16.464-13.034-4.51-1.347-9.357-.952-13.987-.104zm-52.706 110.848c-.58-.344-1.691-.57-1.583.096.314 1.628 1.78 2.839 3.361 3.336 1.582.498 3.279.414 4.935.325.647-.035 1.338-.085 1.854-.478.432-.33.668-.849.888-1.346l1.131-2.555c-3.077-2.002-7.428 2.493-10.586.622zm-88.852-5.561c1.294.097 2.579.323 3.828.673 1.083.303 2.327.937 2.381 2.06.07 1.479-1.853 2.083-3.328 2.21l-4.502.389c-1.094.095-2.331.143-3.135-.604-1.08-1.004-.644-2.95.525-3.848 1.169-.897 2.761-.99 4.231-.88zm35.1-.322a107.411 107.411 0 0021.679.691c.848-.059 1.771-.109 2.469.376.698.484.872 1.733.11 2.11-.231.114-.497.125-.755.135l-26.204.989c-.796.03-1.673.034-2.286-.476-1.096-.912-.467-2.865.791-3.539 1.257-.674 2.782-.475 4.196-.286zm69.698-7.114c-2.789.15-5.627.409-8.202 1.49-2.575 1.082-4.884 3.116-5.653 5.801-.156.545-.214 1.216.204 1.599.325.298.815.302 1.256.285a63.776 63.776 0 0013.728-2.054c2.229-.587 4.915-2.004 4.614-4.289-.159-1.203-1.197-2.143-2.343-2.541-1.146-.399-2.393-.356-3.604-.291zm-321.715-.336a25.346 25.346 0 00-.322 7.153c.576.622 1.334-.592 1.285-1.439a26.55 26.55 0 00-.963-5.714zm149.162-2.879l48.172 2.178c1.498.067 3.49.641 3.401 2.139-1.916 1.231-4.389.976-6.651.712a216.173 216.173 0 00-43.153-.686c-1.24.104-2.556.205-3.663-.363-1.106-.569-1.82-2.085-1.101-3.101.628-.888 1.908-.928 2.995-.879zm-38.936-1.684c.706.107 1.442.292 1.955.789 1.174 1.137.449 3.298-.962 4.121-1.411.824-3.159.708-4.786.568-1.787-.155-2.366-2.834-1.193-4.19 1.173-1.356 3.213-1.555 4.986-1.288zm56.475-5.939l78.508 4.073c1.401.073 3.256.612 3.183 2.013a33.38 33.38 0 01-13.067-.253l3.803 3.272c-1.813 1.143-3.744 2.323-5.887 2.371-2.142.047-4.474-1.532-4.414-3.674l3.253-1.501a585.764 585.764 0 00-63.591-1.979c-1.224.029-2.53.04-3.564-.617-1.034-.656-1.557-2.251-.701-3.127.612-.626 1.602-.623 2.477-.578zm169.45 3.5c-.943.051-1.743.677-2.474 1.275l-2.599 2.127c-.908.743-1.891 1.629-1.944 2.801-.029.636.455 1.39 1.075 1.247.173-.04.323-.144.469-.247l6.191-4.367c.421-.297.871-.633 1.007-1.13.25-.911-.782-1.758-1.725-1.706zm32.102-7.625c.082 2.122-.972 4.112-1.347 6.203s.339 4.753 2.407 5.243c.609.144.786 1.017.442 1.54-.344.524-.995.75-1.612.862-1.915.348-4.183-.267-5.063-2.003-.441-.87-.475-1.881-.5-2.855l-.201-7.825c-.045-1.783.154-3.979 1.786-4.698 1.944-.858 4.006 1.41 4.088 3.533zm-28.466 11.832a1.117 1.117 0 00-.631 1l-.094.024c.21.465.963.538 1.258.121.294-.416-.025-1.102-.533-1.145zm-3.611-13.632c-.866.022-1.834.179-2.346.877-.547.747-.326 1.843.237 2.579.562.736 1.39 1.21 2.164 1.72a20.007 20.007 0 017.37 8.87l3.092-4.069c.769-1.013 1.58-2.171 1.418-3.433-.117-.911-.729-1.678-1.379-2.327-2.754-2.755-6.662-4.317-10.556-4.217zm-331.901-20.984c-1.21.099-1.837 1.458-2.218 2.611l-1.739 5.272c-.633 1.919-1.271 3.86-1.445 5.874-.115 1.335-.024 2.678.067 4.014l.854 12.522c.055.807.669 1.921 1.337 1.464a128.506 128.506 0 013.144-31.757zm342.319 15.348c-1.099.418-2.266 1.154-2.425 2.318-.159 1.165 1.556 2.246 2.221 1.277.849-1.237 2.971-.591 3.673.735.701 1.326.495 2.921.485 4.421-.011 1.501.334 3.222 1.642 3.957l.658-6.021c.271-2.478.255-5.551-1.923-6.763-1.303-.726-2.937-.455-4.331.076zm35.277-1.134c1.783.079 3.687.701 4.663 2.196.975 1.495.457 3.943-1.261 4.425-2.452.687-4.746-2.769-7.144-1.911-1.499.537-2.425 2.645-3.988 2.343-.97-.188-1.507-1.349-1.314-2.318.193-.969.916-1.744 1.69-2.357a11.16 11.16 0 017.354-2.378zM286.48 317.09c1.719.277 3.402 2.159 2.496 3.646-.254.418-.668.714-1.1.942-1.072.564-2.395.756-3.502.264-1.106-.492-1.885-1.769-1.585-2.943.376-1.475 2.189-2.152 3.691-1.909zm275.855-9.787c1.183 1.125 2.105 3.243.78 4.198-1.401 1.009-3.079-.695-4.419-1.784a6.93 6.93 0 00-5.43-1.436c-1.218.202-2.364.731-3.585.908-1.222.178-2.643-.103-3.309-1.141-.699-1.09-.254-2.632.707-3.498.962-.867 2.297-1.184 3.586-1.302 4.228-.387 8.593 1.13 11.67 4.055zm-275.914-3.447c1.056.619 1.624 2.078 1.037 3.151-.776 1.419-2.811 1.399-4.38 1.009-.565-.14-1.16-.325-1.534-.771-.893-1.065.109-2.736 1.355-3.351 1.097-.541 2.467-.657 3.522-.038z" fill="#00160A"/><path fill-rule="evenodd" clip-rule="evenodd" d="M144.752 446.484c.144.4.277.849.112 1.241-.295.704-1.259.731-2.023.725-5.371-.043-10.364 4.571-10.746 9.929-.04.566-.818.824-1.321.562-.504-.262-.763-.828-.937-1.368-.981-3.044-.349-6.457 1.216-9.248 1.564-2.79 3.985-5.016 6.614-6.837 1.021-.707 2.291-1.385 3.445-.929.763.301 1.261 1.029 1.676 1.736a25.054 25.054 0 011.964 4.189zm-3.12-.61c-.473-1.446-2.391-1.965-3.825-1.454-1.433.511-2.478 1.729-3.453 2.897-.925 1.107-1.892 2.316-2.001 3.754a17.919 17.919 0 019.279-5.197z" fill="#FFB61D"/></svg>