<svg width="750" height="750" fill="none" xmlns="http://www.w3.org/2000/svg"><path d="M0 0h750v750H0z"/><path d="M638.487 538.299c-4.167 81.264-69.278 154.906-149.092 170.746-79.814 15.841-167.166-26.292-206.056-97.767-4.292-7.888-8.114-16.161-11.935-24.433-9.866-21.356-19.729-42.705-37.664-57.394-20.477-16.773-46.813-21.259-73.414-25.79-16.892-2.877-33.891-5.773-49.565-11.844-37.784-14.636-67.121-49.309-75.3-88.995-13.252-64.311 28.726-129.972 84.706-164.291 55.979-34.32 123.246-43.879 188.495-51.244 24.959-2.817 45.234-21.627 59.715-42.151 5.606-7.945 10.65-16.295 15.69-24.637 7.979-13.208 15.948-26.4 26.124-37.952 43.088-48.912 123.327-57.166 178.21-21.995 54.882 35.171 81.151 107.493 66.556 171.023-2.514 10.942-6.082 21.597-9.65 32.252l-.001.002c-3.416 10.2-6.832 20.4-9.324 30.854-5.325 22.345-6.342 45.469-6.948 68.432-.723 27.378-.893 54.828 1.671 82.096.892 9.486 2.114 18.959 3.337 28.431 2.777 21.523 5.554 43.036 4.445 64.657z" fill="#9B51E0"/><path d="M308.571 167.878c29.843-14.846 53.595-40.63 68.553-70.417 1.961-3.906 3.819-8.056 3.751-12.426-.069-4.37-2.612-8.998-6.839-10.108-6.058-1.59-11.267 4.218-15.045 9.213-25.95 34.318-63.721 61.259-106.343 67.134-16.369 2.257-32.989 1.409-49.491.557l-25.776-1.331c-20.76-1.072-41.809-2.122-62.13 2.259-20.321 4.38-40.177 14.916-51.338 32.454-3.553 5.582-6.214 12.16-5.23 18.704 1.006 6.705 5.773 12.396 11.514 16.004 5.742 3.607 12.412 5.412 19.022 6.922 4.84 1.106 9.783 2.085 14.735 1.737 8.097-.57 15.444-4.596 22.593-8.514l1.427-.78c12.495-6.817 25.442-12.871 38.946-17.369 19.693-6.559 40.399-9.769 61.055-12.971 27.826-4.314 55.56-8.613 80.596-21.068zM153.377 563.395l.018.001c1.216.048 2.432.097 3.644.16a151.337 151.337 0 0155.578 13.769c6.644 3.077 13.372 6.928 17.104 13.227a115.11 115.11 0 0016.472 21.537c2.45 2.52 5.102 4.985 8.372 6.273 3.271 1.287 7.309 1.169 9.962-1.135 3.223-2.8 3.432-7.772 2.439-11.924-1.628-6.805-5.688-12.735-9.706-18.463-13.185-18.796-27.066-37.589-45.415-51.391-18.349-13.801-42.029-22.158-64.488-17.39-7.755 1.646-15.441 5.001-20.582 11.036-5.142 6.034-7.174 15.116-3.471 22.125 2.938 5.561 8.893 8.983 14.991 10.525 4.914 1.242 10.003 1.446 15.081 1.65h.001zm518.709-282.709c-5.127-1.933-10.933.401-15.272 3.746-8.57 6.607-13.64 16.942-15.947 27.514-2.307 10.572-2.121 21.508-1.923 32.328l1.694 92.961c.124 6.791.426 14.111 4.602 19.468 1.307 1.676 3.096 3.148 5.211 3.364 2.563.261 4.934-1.357 6.785-3.149 10.122-9.801 11.451-25.239 12.663-39.31l.044-.511a493.883 493.883 0 019.224-61.467c1.226-5.7 2.574-11.436 5.139-16.671 8.042-16.413 6.119-37.248-4.792-51.911-1.974-2.652-4.335-5.196-7.428-6.362z" fill="#9B51E0"/><path d="M488.456 406.516c5.409 1.489 10.254 5.994 10.786 11.579 1.026-2.222 3.279-3.827 5.714-4.071l-3.535 3.756 4.473.09-6.155 3.437c3.816 7.057 3.198 15.761.752 23.402-1.497 4.677-3.662 9.361-3.24 14.253.415 4.812 4.688 9.728 9.359 8.743l.234-.054c5.614-1.418 11.761-.597 16.806 2.245 7.249 4.083 11.646 11.666 16.627 18.329 4.398 5.882 9.603 11.352 16.109 14.76 6.506 3.407 14.484 4.532 21.261 1.703 3.363-1.404 6.374-3.728 9.942-4.467 3.568-.74 7.225 1.244 8.535 4.626.58 1.496-.666 7.039-3.842 13.512a7.629 7.629 0 011.622-.28c16.692-1.084 33.538-4.713 47.903-13.283 4.566-2.724 8.831-5.916 13.066-9.135l2.467-1.88 1.494-1.151c9.292-7.198 18.465-15.222 22.286-26.171l.199-.589.424-1.294c.817-2.45 1.853-4.982 4.218-5.743 3.273-1.053 6.254 2.116 8.243 4.92l14.338 20.213c.368.519.744 1.056.885 1.677.621 2.747-3.479 4.134-6.121 3.159-4.804-1.774-8.66-7.058-13.701-6.151-3.543.637-5.66 4.068-7.411 7.3l-.443.824c-10.61 19.864-28.463 35.755-49.422 43.991-5.403 2.123-10.986 3.75-16.559 5.373l-11.26 3.28 1.984.354c16.801 2.946 34.725 4.744 49.982-2.701 10.158-4.957 17.983-13.49 25.365-22.114l2.678-3.148 1.105-1.314c4.53-5.435 8.835-11.253 10.157-18.141.508-2.645 3.846-3.906 6.443-3.19 2.596.717 4.573 2.77 6.411 4.739l13.938 14.917c1.098 1.176 2.254 2.473 2.415 4.073.161 1.6-1.274 3.411-2.819 2.963l-15.113-4.39c-1.418-.412-2.988-.814-4.323-.183-1.023.483-1.683 1.474-2.268 2.452l-16.248 27.439c-4.576 7.727-13.055 12.206-21.386 15.557a154.402 154.402 0 01-63.178 11c-2.337-.087-4.677-.229-6.987-.593-8.68-1.368-16.52-5.781-24.111-10.246 1.332 4.867.146 8.973-7.759 9.285-7.002.277-24.151-28.551-29.485-30.047-29.111-8.163-33.891-24.277-43.243-35.284 0 0-18.9 2.442-31.378-.159-29.251-6.098-48.907-24.857-55.994-26.052-7.087-1.194-11.76 3.348-13.948.593v-1.996c.338-.549 3.725-3.713 13.385-1.658 13.49 2.87 35.054 13.704 51.522 15.728 17.288 2.124 31.932-.688 31.851-1.159-.164-.963 4.181-5.054.71-7.119-3.472-2.066-53.875-22.295-64.83-39.153l-.132-.211c-1.883-3.126-3.314-10.896.476-7.339l1.061-1.881c4.081 3.848 17.48 12.645 31.399 21.318 14.716 9.169 35.498 15.041 35.878 14.784 8.469-5.728.958-9.875-.444-11.093-3.281-2.849-7.638-4.403-10.465-7.703-6.781-7.918-1.938-22.08-9.689-29.05-1.173-1.055-2.596-1.885-3.446-3.214-1.456-2.276-.74-5.445 1.023-7.493 1.764-2.048 4.343-3.192 6.895-4.082 5.297-1.85 11.105-2.882 16.514-1.392z" fill="#fff"/><circle cx="493" cy="447" r="2" fill="#FFB61D"/><ellipse cx="480.806" cy="447" rx="1.483" ry="2" fill="#FFB61D"/><path d="M408.329 456.692a147.21 147.21 0 00-57.158-3.245 213.47 213.47 0 015.395-21.068c-6.188 1.997-13.495-3.675-13.095-10.165.401-6.491 8.348-11.222 14.245-8.48 2.025-4.673 2.154-10.137.35-14.901-.865-2.285 2.583-3.604 5.027-3.604l13.502-.003c1.888-.001 4.519-.877 4.05-2.705-1.111-4.336 1.87-9.289 6.221-10.337 4.272-1.028 9.082 1.897 10.185 6.137l.058.236c1.025 4.554 6.792 5.999 11.458 5.91l2.323-.056c4.036-.085 8.242.046 10.943 2.869 3.231 3.376 2.509 8.753 1.444 13.337l-.071.304a625.141 625.141 0 01-4.826 19.013c3.317 26.692-4.896 28.091-10.051 26.758zm-155.093-22.286a127.806 127.806 0 01.008-38.789l.1-.621c.491-2.911 1.352-5.985 3.785-7.588 1.821-1.201 4.121-1.291 6.315-1.292l16.795.046c.764.002 1.602.031 2.177.535s.559 1.661-.178 1.865c-1.759.488-2.77 2.516-2.557 4.329.214 1.813 1.393 3.383 2.777 4.573 3.301 2.838 8.433 3.846 12.087 1.48s4.514-8.462 1.051-11.1c7.845-.16 15.694-.135 23.538.073l2.941.087c.951.031 2.002.107 2.666.788.499.511.663 1.254.775 1.959a25.703 25.703 0 01-2.662 15.991c-.411.774-1.363 1.626-2.012 1.037-2.756-2.502-7.391-2.161-10.211.269-2.82 2.429-3.911 6.465-3.412 10.154.48 3.55 3.067 7.342 6.646 7.163 2.818-.141 5.952-2.606 8.081-.754l-3.587 16.03c-.638 2.848-1.782 6.227-4.636 6.837a112.21 112.21 0 01-50.105-.773l-.794-.201c-1.985-.519-3.962-1.192-5.511-2.517-2.696-2.308-3.538-6.074-4.077-9.581zm129.249-125.799l39.811.801.65.015c1.196.038 2.4.143 3.477.645 2.433 1.136 3.549 3.936 4.289 6.518 3.95 13.78 3.463 28.796-1.373 42.291l-.204.552c-.629 1.661-1.452 3.316-2.938 4.25-1.224.769-2.715.93-4.166 1.007l-.31.016c-5.92.281-11.86.129-17.758-.453 3.071-1.891 3.847-6.494 1.897-9.528-1.951-3.034-6.071-4.301-9.541-3.316-2.115.601-4.085 2.046-4.85 4.107-.766 2.061-.026 4.708 1.929 5.715 1.352.696 1.119 2.888-.065 3.842-1.183.955-2.829 1.023-4.349 1.047l-19.974.324c-1.501.025-3.08.031-4.398-.688-1.869-1.02-2.728-3.217-3.255-5.28a35.605 35.605 0 01-.5-15.284c1.136 3.988 6.051 6.411 9.906 4.881 3.854-1.529 5.772-6.662 3.864-10.344-1.908-3.682-7.207-5.076-10.68-2.809l-.144-1.287c-.498-4.51-.885-9.08-.019-13.522.949-4.866 3.655-9.645 8.092-11.856 3.236-1.613 6.973-1.702 10.609-1.644zM261.741 353.39a186.502 186.502 0 01-16.798-.691l-.542-.05c-2.001-.199-4.098-.6-5.409-2.087-1.768-2.008-1.336-5.034-.805-7.683l.053-.263a144.427 144.427 0 002.771-35.381l-.1-2.042c-.149-3.674.086-7.839 3.137-9.728.929-.575 2.006-.842 3.081-1.058l.357-.071a141.778 141.778 0 0159.256 1.124c2.552.598 3.262 4.055 2.416 6.535-.846 2.48-2.663 4.565-3.343 7.097-.68 2.531.566 5.957 3.185 6.039 5.452.171 10.073 5.71 9.34 11.115-.732 5.404-6.574 9.504-11.922 8.43-1.255-.251-1.699 1.603-1.561 2.876l1.526 14.109c.249 2.303-3.019 3.03-5.328 2.851l-13.473-1.049c-2.117-.165-4.956.2-5.282 2.298-.812 5.224-6.168 9.303-11.419 8.697-5.252-.606-9.538-5.797-9.14-11.068z" fill="#fff"/><path fill-rule="evenodd" clip-rule="evenodd" d="M225.476 440.223c1.495.363 3.635 1.009 3.516 2.422-2.392 28.491-12.69 23.248-21.873 31.417-2.426 2.159-3.876 7.264-4.918 7.381 3.864 1.785 9.473 8.945 19.124 9.273 26.893.912 36.681-18.711 36.681-18.711.632-6.292-2.559-17.623 1.424-14.45 2.75 2.19 2.206-8.48 5.962-7.418 1.128.32-.843 7.414 0 7.838.465.235 1.154-1.699 2.355-3.238 1.002-1.283 2.547-2.233 2.867-1.953.216.19.009 2.024-.893 3.575-1.268 2.181-3.388 4.28-3.091 4.629.326.385 5.916-4.817 6.257-4.362 2.262 3.017-12.065 37.746-36.24 44.303l-1.915.514c-14.092 3.744-20.011 4.255-33.068-.514-6.191-2.262-10.041 18.86-13.483 25.89-2.173 4.439-12.727 15.318-17.546 12.028-6.359-4.341-11.543-12.42-16.954-16.506l-.348-.256c-3.687-2.644-12.028-6.656-25.022-12.037l.586-.27c2.711-1.232 9.693-4.246 15.055-8.849 7.618-6.541 11.744-20.591 17.055-28.168 5.244-7.481 12.28-6.379 8.034-7.702 0 0-10.761-5.701-15.708-6.223-16.521-1.744-38.057 6.064-44.947 11.095-9.453 6.904-.061 17.064-13.123 12.084-4.353-1.659 7.315-23.16 23.41-31.878 22.371-12.117 43.524-15.45 64.732 3.839 8.631 7.85 9.485 14.839 11.799 20.167l-.473-1.306c25.584-1.687-12.749-27.3 19.253-33.71 3.361-.674 6.888.027 10.257.806l1.235.29z" fill="#fff"/><circle cx="209" cy="458" r="2" fill="#FFB61D"/><circle cx="220" cy="462" r="2" fill="#FFB61D"/><path fill-rule="evenodd" clip-rule="evenodd" d="M103.893 535.563c21.679 15.011-6.058-5.724 17.628 18.986 4.784 4.99 29.002-23.508 31.5-6.619.911 6.16-1.076 12.573.135 18.681 1.131 5.7 25.921 2.278 27.836-.215 6.942-9.037-14.661-32.251-19.19-35.961-25.277-20.707-33.619-19.27-57.236 2.153l-.673 2.975zm563.943-375.208c4.252.508 8.206.98 8.206-3.975 0-1.18-14.311-11.538-18.551-7.549-5.453 5.13-9.784 11.012-13.979 16.71-8.806 11.961-17.013 23.109-33.747 24.77l-.202.022c-6.486.783 5.598 6.541 19.17-.022 9.332-4.513 21.747-18.788 27.644-25.569 1.543-1.774 2.64-3.036 3.119-3.474l.123-.105c2.009-1.55 5.189-1.17 8.217-.808zm20.188 13.412l14.159 11.239c2.758 2.19-.472 6.909-3.986 7.135-2.04.131-3.995-.497-5.961-1.127-1.422-.457-2.85-.915-4.318-1.088-8.315-.983-14.655 6.848-19.813 13.443a154.71 154.71 0 01-15.428 16.969l-.751.706-.782.72c-4.466 4.061-9.476 7.739-15.368 8.798-8.677 1.561-17.295-2.882-24.382-8.124-1.729-1.28-3.427-2.622-5.127-3.965-5.263-4.159-10.535-8.326-16.777-10.661a83.163 83.163 0 00-15.094 10.587l.206-.163c7.761 7.779 13.188 17.858 15.411 28.62l-1.485-.261-.98-.167c-9.171-1.538-18.993-2.448-26.743 2.46-2.731 1.729-5.167 4.145-7.576 6.533-1.677 1.662-3.34 3.312-5.081 4.708.442.262.894.535 1.357.819a95.374 95.374 0 0026.89 6.646c1.41.136 2.835.244 4.263.353 6.616.502 13.316 1.011 18.97 4.332l1.983 1.186c3.182 1.883 6.724 3.676 9.39 1.495.767-.627 1.268-1.487 1.772-2.351.307-.526.614-1.053.983-1.53.974-1.261 2.906-2.148 4.117-1.113l.491 3.854c.357-2.479 2.749-4.494 5.252-4.425 2.503.07 4.78 2.215 4.998 4.71.396 4.529-4.739 7.239-9.097 8.681l-22.589 7.28c-8.071 2.6-17.019 1.253-24.8-2.119-7.244-3.139-13.635-7.917-19.743-12.938l-1.353-1.12c-4.613-3.838-10.847-8.007-16.08-5.072 9.093.553 15.724 8.389 21.148 15.8l.521.716c.878 1.21 1.782 2.484 1.999 3.964.607 4.141-4.097 6.89-8.071 8.207 3.348 1.793 1.689 7.001-.906 9.775-3.774 4.036-8.717 6.941-14.049 8.379l-.487 1.685a1.167 1.167 0 00-.042.174c2.515-.175 4.066 3.204 3.041 5.507-1.024 2.304-3.553 3.53-5.979 4.216-7.994 2.26-17.023.477-23.558-4.652l-1.27.662c-5.521 2.857-11.232 5.514-17.368 6.415-6.608.97-13.882-.392-18.659-5.059l.314.687c.676 1.498 1.283 3.048 1.305 4.681.024 1.883-.95 3.917-2.734 4.521-2.944.998-5.516-2.149-7.044-4.856-.837 2.084.026 4.429.865 6.71.958 2.601 1.884 5.118.22 7.066-1.734 2.028-5.021 1.509-7.406.312-8.935-4.481-13.132-15.761-11.197-25.567 1.936-9.807 8.987-18.019 17.383-23.442-5.7-4.178-9.87-10.399-11.569-17.259.452.584 2.473-1.295 5.344-3.963 5.252-4.882 13.348-12.406 19.889-12.336 1.253.013 3.277.983 5.258 1.932h.001c1.435.688 2.848 1.365 3.932 1.662.09-.116.199-.221.324-.312l-1.237-.889c-2.49-1.769-5.089-3.432-8.037-4.165-3.439-.855-7.511-.151-9.702 2.634a62.883 62.883 0 01-19.795 16.563l4.535 8.371c-1.874.895-4.209.731-5.948-.398l-.214-.145.134.167c2.612 3.406.317 9.345-3.958 10.018-4.338 1.821-8.713-3.617-8.286-8.302.299-3.284 1.926-6.194 3.556-9.109.695-1.245 1.391-2.49 1.985-3.766 2.006-4.31 2.888-9.098 3.764-13.856 1.202-6.521 2.392-12.984 6.452-18.081 2.844-3.57 6.826-6.052 10.91-8.088 16.211-8.08 35.394-10.012 52.89-5.327 2.98-10.676 8.887-20.52 16.907-28.171l.478-.449c3.068-2.826 6.884-5.352 10.954-4.888l.322.043c4.04.616 7.553-2.502 10.49-5.388l.906-.889.709-.684c5.829-5.566 12.595-10.704 20.558-11.258 7.084-.493 13.865 2.759 19.979 6.37a146.481 146.481 0 0119.653 13.907l1.081.917.317.271.352.303.202.173c5.803 4.985 12.154 10.44 19.709 9.988 7.745-.464 13.404-6.893 18.618-12.818l.001-.002.003-.002c.42-.478.838-.953 1.254-1.421 6.432-7.24 13.756-13.614 21.169-19.858l3.18-2.67c.962-.807 1.998-1.647 3.243-1.809 1.752-.227 3.349.935 4.733 2.033zM548.029 296.499c-1.573-.314-3.721-.177-6.442.41 1.792.007 3.3-.025 4.525-.096a23.36 23.36 0 001.763-.282l.154-.032zm-58.303-34.668c.574-.59 1.18-1.211 1.852-1.743 1.25-.659 2.658-.993 4.075-.859 4.797.456 8.429 5.558 7.802 10.335-2.532 6.274-8.798 9.855-14.996 13.396-3.818 2.181-7.61 4.348-10.486 7.12.722-1.191 1.512-2.141 2.313-2.724 2.502-1.821 5.117-3.399 7.582-4.886l.001-.001c2.072-1.25 4.038-2.436 5.74-3.648 2.679-1.907 4.478-3.72 5.872-5.125 1.066-1.074 1.896-1.909 2.7-2.366.066-.038 3.089-6.165-4.218-10.17-5.518-3.024-7.976.801-9.297 2.857-.429.667-.738 1.148-.993 1.148-.066 0-.158-.01-.274-.031.183-.652.46-1.282.816-1.871.494-.39.99-.898 1.511-1.432zm1.559-1.581a8.704 8.704 0 00-3.07 3.013l-.182.137c-.364.265-.729.459-1.106.548-.759.179-2.567-1.208-4.099-2.383-.916-.703-1.733-1.33-2.168-1.5-2.864-1.124-3.2-1.139-5.186-1.234-.336-.016-.718-.034-1.168-.06l-.824-.051c-.18-.011-.379-.019-.591-.028h-.001c-1.646-.069-4.015-.169-3.542-1.449 8.462-22.902 44.617-27.886 38.639-1.997-.494 2.141-1.792 4.014-3.09 5.888-.649.937-1.298 1.874-1.846 2.844-2.336-3.32-4.882-5.07-7.637-5.25-1.536-.101-2.769.516-3.836 1.36l-.293.162zm65.582-20.546l.008-.013c-1.99 3.782-4.127 8.335-6.41 13.658a84.09 84.09 0 016.402-13.645zm16.12 3.488l-.277.011c-2.206.092-4.185.422-5.937.99-1.943.63-4.012 1.683-6.205 3.159a36.182 36.182 0 0112.419-4.16z" fill="#fff"/><path fill-rule="evenodd" clip-rule="evenodd" d="M460.176 339.112c-1.734 2.029-4.246 1.375-6.548-.869-4.816-4.696-6.752-13.756-4.816-23.563 1.935-9.806 9.479-13.846 17.875-19.269-3.768-1.552-10.593-11.391-11.278-20.952 2.322 2.996 2.444 8.374 4.767 11.371 2.203 2.844 6.607 6.305 8.811 9.149.281.363.524.973.125 1.2-8.05 4.572-13.265 6.085-18.013 18.501-4.747 12.416 4.891 23.901 6.172 23.563 1.578-.417 1.019-2.51.113-3.867-2.557-3.829-.125-8.933 1.959-13.038 1.114 1.249-1.564 4.832-1 8.557.551 3.637 3.376 7.411 1.833 9.217z" fill="#E7EAEE"/><circle cx="493" cy="298" r="2" fill="#FFB61D"/><circle cx="486" cy="290" r="2" fill="#FFB61D"/><path d="M186.911 309.642c1.156 2.158-.662 5.243-3.11 5.278-2.096-11.785-4.357-23.98-11.179-33.816-13.062-18.834-39.98-25.02-51.163-45.026-7.615 5.419-19.259 4.038-25.394-3.013-3.815-4.386-10.466-4.924-16.196-3.946-5.73.979-11.328 3.142-17.137 2.958-2.521-.08-5.268-.758-6.735-2.81-1.468-2.051-.62-5.662 1.877-6.019l32.632-4.671c.855-.122 1.761-.268 2.41-.837.733-.644.964-1.674 1.154-2.631 1.575-7.926 2.71-17.373-3.126-22.962-4.837-4.632-12.47-4.472-19.041-3.18-6.571 1.292-13.343 3.418-19.819 1.712-6.475-1.706-11.89-9.399-8.4-15.113 2.338-3.828-.298-8.933-3.905-11.599-3.606-2.666-8.095-3.98-11.59-6.79-3.496-2.81-5.715-8.232-2.93-11.748 1.224-1.547 3.142-2.361 5.023-2.955 6.226-1.964 13.168-2.114 19.17.456 6.002 2.57 10.875 8.078 11.852 14.533.796 5.259-.716 11.377 2.76 15.402 4.546 5.263 12.946 2.311 19.9 2.248 7.112-.065 14.145 3.705 18.026 9.665 3.882 5.959 4.489 13.916 1.555 20.395 8.261-8.405 19.387-14.853 31.164-14.414 10.878.405 20.873 6.662 28.148 14.759 7.275 8.097 12.238 17.959 17.105 27.696 1.813 3.627 6.412 5.593 10.287 4.398 3.875-1.196 6.566-5.412 6.02-9.43 3.377.736 3.729 5.301 3.833 8.756.218 7.259 2.847 14.425 7.374 20.104a37.385 37.385 0 003.429-8.867c3.304 3.799 4.537 9.297 3.171 14.143s-5.288 8.891-10.09 10.405c-2.555.806-5.679 1.193-6.948 3.553a181.89 181.89 0 0112.312 26.207c1.822 4.85 3.137 11.091-.699 14.573-4.435-3.274-6.956-8.468-9.309-13.454l-11.012-23.331" fill="#fff"/><path fill-rule="evenodd" clip-rule="evenodd" d="M199.018 231.793c-.964 9.418 2.561 19.196 9.312 25.832 2.407-1.452 3.946-4.24 3.893-7.051 2.53 4.159 1.113 9.8-2.033 13.516-3.146 3.715-7.659 5.943-12.039 8.069-2.509 1.219-5.114 2.461-7.903 2.545-4.254.127-8.065-2.431-11.543-4.884l-10.205-7.195c5.273 9.838 17.273 15.568 28.239 13.481 7.625 10.697 12.294 23.479 13.359 36.573l-2.05-3.787a.774.774 0 00-.074-.138l.074.138c.295.726-.857 1.529-1.633 1.154-.825-.4-1.136-1.393-1.38-2.277a78.956 78.956 0 00-15.655-29.748l11.012 23.332c2.354 4.985 4.874 10.18 9.309 13.454 3.837-3.482 2.522-9.723.699-14.573a181.992 181.992 0 00-12.311-26.207c1.029-1.916 3.283-2.532 5.462-3.127h.001v-.001h.001a40.077 40.077 0 001.483-.425c4.802-1.514 8.724-5.559 10.09-10.405 1.366-4.846.133-10.345-3.171-14.143a37.362 37.362 0 01-3.429 8.866c-4.527-5.678-7.156-12.844-7.374-20.103-.104-3.455-.456-8.02-3.833-8.757.546 4.019-2.145 8.235-6.02 9.43-3.875 1.196-8.474-.77-10.287-4.397-4.867-9.737-9.83-19.599-17.105-27.696-7.275-8.097-17.27-14.354-28.148-14.759-11.777-.439-22.903 6.009-31.164 14.414 2.934-6.479 2.327-14.436-1.554-20.395-3.882-5.96-10.915-9.73-18.027-9.666-1.804.017-3.705.228-5.612.439-5.44.603-10.921 1.211-14.288-2.686-2.377-2.753-2.422-6.484-2.467-10.25-.02-1.741-.041-3.49-.293-5.152-.977-6.456-5.85-11.963-11.852-14.533-6.001-2.57-12.944-2.42-19.17-.456-1.881.593-3.799 1.408-5.023 2.955-2.785 3.516-.566 8.938 2.93 11.748 1.84 1.479 3.954 2.543 6.07 3.609 1.906.958 3.812 1.918 5.52 3.181 3.607 2.666 6.243 7.771 3.905 11.599-3.49 5.714 1.925 13.407 8.4 15.113 5.353 1.41 10.91.202 16.386-.989 1.149-.25 2.294-.499 3.433-.723 6.57-1.292 14.204-1.452 19.04 3.18 5.836 5.588 4.702 15.036 3.127 22.961-.19.958-.42 1.988-1.154 2.632-.649.569-1.555.714-2.41.837l-32.632 4.671c-2.497.357-3.344 3.968-1.877 6.019 1.467 2.052 4.214 2.73 6.735 2.81 3.854.122 7.616-.789 11.384-1.702 1.912-.463 3.825-.926 5.753-1.256 5.73-.978 12.38-.44 16.196 3.945 6.135 7.052 17.779 8.433 25.394 3.014 5.885 10.527 16.126 17.228 26.413 23.958 9.262 6.061 18.561 12.145 24.75 21.068 6.822 9.836 9.083 22.031 11.179 33.816 2.448-.035 4.266-3.121 3.11-5.278l-2.3 3.033c-.85-18.574-10.337-36.576-25.179-47.776-3.675-2.774-7.706-5.206-11.728-7.632-8.838-5.331-17.634-10.638-22.527-19.493-.441-.798-.851-1.643-.923-2.551-.09-1.149.368-2.257.81-3.327l.063-.153c1.764-4.279 2.997-8.975 2.13-13.521-.866-4.547-4.289-8.847-8.867-9.531 7.749 4.956 9.337 17.257 3.102 24.019-6.236 6.762-18.624 6.174-24.191-1.148-4.462-5.868-13.384-5.15-20.565-3.485-7.181 1.664-15.638 3.406-21.186-1.449a175.586 175.586 0 0136.37-5.983c2.928-.17 4.076-3.822 4.47-6.727.607-4.467 1.213-9.006.549-13.464-.664-4.459-2.783-8.907-6.567-11.357-4.543-2.943-10.408-2.487-15.792-1.924l-14.307 1.497c-3.083.323-6.251.639-9.24-.182-2.989-.82-5.801-3.049-6.374-6.095-.362-1.924.188-3.819.744-5.729.4-1.375.802-2.758.867-4.165.187-4.009-2.403-7.682-5.55-10.172-1.927-1.526-4.076-2.727-6.226-3.929-1.359-.759-2.72-1.519-4.025-2.363-2.458-1.586-4.98-4.15-4.296-6.995.437-1.819 2.083-3.08 3.738-3.952 5.588-2.946 12.573-3.078 18.268-.347 5.696 2.732 9.965 8.262 11.166 14.463.296 1.53.43 3.128.565 4.722.31 3.689.62 7.36 2.924 10.132 2.753 3.31 7.511 4.144 11.812 3.939 1.474-.07 2.949-.236 4.422-.401 2.823-.316 5.642-.631 8.45-.278 9.439 1.189 16.876 11.01 15.461 20.418-.078.52-.179 1.045-.28 1.572-.36 1.876-.724 3.771-.083 5.534.821 2.257 4.411 3.459 5.549 1.344 5.097-9.479 16.789-14.254 27.478-13.002 10.689 1.252 20.255 7.688 27.273 15.847 7.017 8.16 11.791 17.979 16.145 27.821 1.534 3.467 6.1 4.722 9.747 3.691 3.648-1.032 6.543-3.759 9.16-6.501zm-19.155 16.52c.104-.015.344.456.707 1.166.892 1.746 2.524 4.94 4.675 5.912-.096.905-1.519.42-2.111-.271-1.682-1.966-3.467-4.227-3.271-6.807zm5.078 15.514c1.111 1.628-5.54 2.437-7.75 1.018.389-.075.902-.035 1.47.009.674.052 1.425.111 2.139-.009 1.045-.176 2.054-.497 2.816-.739.739-.235 1.245-.396 1.325-.279zm-1.596-6.047c-2.647.454-5.9-3.072-5.9-6.388.763 2.451 3.474 4.396 4.972 5.471.762.547 1.21.868.928.917zm9.485 13.867c-3.526 0-5.124-5.946-3.526-6.328.382-.173.4.359.427 1.146.028.826.065 1.934.546 2.796.534.959 1.665 1.599 2.325 1.973.499.282.729.413.228.413zm3.928-8.096c.774.426 1.48 1.087 1.681 1.948.2.861-.281 1.904-1.147 2.084-.271-.399-.124-.652.031-.919.228-.392.473-.814-.565-1.77-.437-.403-.946-.578-1.303-.701-.274-.094-.459-.158-.452-.27.045-.716 1.127-.718 1.755-.372zm-6.6-7.748c-.174.121-.294.205-.191.301.318.296.693.437 1.068.222.285-.164.43-.497.497-.819.377-1.802-1.525-3.662-3.318-3.246.159.42.464.554.833.717.427.188.94.414 1.417 1.16.642 1.006.053 1.416-.306 1.665zm-.603 16.981c-2.076-.605-4.129-5.508-3.024-5.879.69-.232.686-.195.646.193-.037.356-.104 1.005.302 2.011.505 1.25 1.211 2.264 1.661 2.909.308.443.496.712.415.766zm475.522-111.316c-4.457.547-7.97 4.142-10.185 8.049-1.072 1.889-1.929 3.887-2.786 5.886-.915 2.135-1.831 4.269-3.006 6.268-5.609 9.538-16.265 14.752-26.477 19.013-1.761.735-4.845.389-4.296-1.438 16.719-3.173 31.112-16.41 35.67-32.806.537-1.932-1.975-3.562-3.914-3.051-1.754.462-3.003 1.925-4.13 3.377l-.352.456c-9.313 12.113-22.682 22.354-37.947 23.015-1.08.047-2.626-.612-2.151-1.584 11.306-.379 21.964-5.959 30.359-13.541 8.396-7.583 14.797-17.086 20.786-26.683.927-1.484 3.151-1.167 4.807-.602a68.07 68.07 0 0114.49 6.947c2.434 1.545.506 5.666-2.261 6.474-1.59.464-3.25.352-4.918.238-1.234-.083-2.472-.167-3.689-.018zm-4.342-9.452l-.391-.118c-1.189-.342-2.517-.531-3.475.207-.37.287-.636.682-.88 1.085l-3.182 5.365a14.574 14.574 0 014.705 2.011c1.171.768 2.784.797 3.983.073 1.198-.725 1.921-2.168 1.784-3.562-.051-.52.801-.661 1.157-.279.266.286.345.678.425 1.068a5.9 5.9 0 00.087.392c.134.505.546 1.049 1.058.945a2.475 2.475 0 00.753-1.938c.186-.738 1.336-.08 1.514.659.178.739.512 1.79 1.246 1.593 1.079-.267 1.419-1.77.893-2.75-.526-.979-1.584-1.533-2.593-2a59.843 59.843 0 00-7.084-2.751zm-9.671 8.722a8.228 8.228 0 006.427 2.365c-1.44-1.813-3.888-2.76-6.173-2.409l-.254.044zM532.127 327.24c-7.994 2.261-17.023.477-23.558-4.652-5.915 3.1-12.03 6.107-18.638 7.077-6.608.97-13.882-.392-18.659-5.059.789 1.71 1.594 3.484 1.619 5.368.024 1.883-.95 3.917-2.734 4.521-2.944.998-5.516-2.149-7.044-4.856-.837 2.084.026 4.429.865 6.71.958 2.601 1.884 5.118.22 7.066-1.733 2.028-5.021 1.509-7.406.312-8.935-4.481-13.132-15.761-11.197-25.567 1.936-9.807 8.987-18.019 17.383-23.442-5.7-4.178-9.87-10.399-11.569-17.259 1.161 1.498 2.022 3.238 2.883 4.979.861 1.741 1.723 3.482 2.884 4.98 1.102 1.422 2.503 2.601 3.905 3.781h.001c1.401 1.179 2.803 2.359 3.905 3.78.281.363.524.973.125 1.2-8.05 4.572-14.935 11.857-17.219 20.827-2.284 8.971.894 19.56 8.777 24.414 1.389.855 3.046 1.542 4.623 1.125 1.578-.417 2.761-2.397 1.855-3.754-2.556-3.828-2.867-9.046-.783-13.151l6.605 7.407c1.519-.391 1.894-2.434 1.49-3.949-.128-.48-.303-.954-.479-1.427v-.001c-.377-1.019-.753-2.035-.652-3.101.148-1.561 2.186-2.958 3.262-1.817 4.295 4.553 11.197 5.844 17.375 4.842 6.179-1.002 11.838-3.968 17.373-6.891l6.533-3.449c-.472 1.884-1.999 3.466-3.866 4.003 6.306 4.53 14.738 5.954 22.182 3.745 1.282-.381 2.598-.907 3.43-1.955.831-1.048.966-2.752-.039-3.635a4.205 4.205 0 00-.396-.296c-.269-.186-.536-.371-.689-.653-.232-.425.127-1.141.571-.946 2.515-.175 4.066 3.204 3.041 5.507-1.024 2.304-3.553 3.53-5.979 4.216zm-44.63-33.434c-1.436-.462-3.048.529-3.672 1.902-.624 1.373-.447 2.987.025 4.42.15-1.616.356-2.834.967-3.897.264-.458 1.081-.89 1.799-1.27.928-.491 1.691-.895.881-1.155zm-1.218-4.061c2.095-.522 4.462.284 5.802 1.977 1.34 1.693 1.582 4.181.594 6.101-.238-.287-.294-.807-.364-1.459-.208-1.926-.54-5.004-6.032-6.619zm-1.817 14.881c-.663.828 1.646 3.015 5.257 1.507.669-.28.123-.312-.737-.362-.785-.046-1.831-.107-2.455-.386-.528-.235-.798-.612-1.001-.895-.3-.418-.451-.628-1.064.136zm7.317 2.768c2.314-1.152.862 2.228-3.979 1.813-.436-.037-1.007-.205-1.003-.645.002-.155.411-.191 1.048-.246.989-.086 2.526-.22 3.934-.922zm-14.278-6.415c.871.85 2.139.873 2.985.709.515-.099.768-.56.295-.709-.11-.035-.293-.064-.513-.099-.503-.079-1.198-.188-1.664-.47-.299-.18-.469-.796-.616-1.324-.15-.543-.275-.993-.487-.782-.418.417-.871 1.824 0 2.675zm.773 2.877c.421.642-1.184.421-1.529 0-.346-.421-.686-2.004-.107-2.004.167 0 .225.249.293.548.064.276.137.594.315.796.347.393.579.452.749.494.116.029.203.051.279.166zm72.219-3.185c.865 1.729-.649 3.668-2.109 4.936a53.365 53.365 0 01-20.605 11.072c8.163.056 16.289-3.438 21.864-9.4 2.595-2.774 4.254-7.982.906-9.775 3.974-1.317 8.678-4.066 8.071-8.207-.217-1.48-1.121-2.754-1.999-3.964l-.521-.716c-5.424-7.411-12.055-15.247-21.148-15.8 5.233-2.935 11.467 1.234 16.08 5.072l1.353 1.12c6.108 5.021 12.499 9.799 19.743 12.938 7.781 3.372 16.729 4.719 24.8 2.119l22.589-7.28c4.358-1.442 9.493-4.152 9.097-8.681-.218-2.495-2.495-4.64-4.998-4.71-2.503-.069-4.895 1.946-5.252 4.425l-.491-3.853c-1.211-1.036-3.143-.149-4.117 1.112-.369.477-.676 1.004-.983 1.53-.504.864-1.005 1.724-1.772 2.351-2.666 2.181-6.208.388-9.39-1.495l-1.983-1.186c-5.654-3.321-12.354-3.83-18.97-4.332-1.428-.109-2.853-.217-4.263-.353a95.383 95.383 0 01-26.89-6.646c7.865 6.449 18.141 7.532 28.507 8.624 5.224.55 10.47 1.103 15.442 2.346 3.944.986 8.303 2.996 9.271 6.944 1.405 5.734-5.405 10.175-11.284 10.711-9.614.877-18.982-3.212-27.144-8.43l-.919-.595c-2.954-1.939-5.817-4.025-8.678-6.11l-.001-.001h-.001c-5.251-3.827-10.497-7.65-16.293-10.555 5.987.301 10.358-4.034 14.824-8.461 2.409-2.388 4.845-4.804 7.576-6.533 8.027-5.083 18.276-3.926 27.723-2.293l1.485.261c-2.223-10.762-7.65-20.841-15.411-28.62l13.337 26.22c-14.042-4.678-30.882 1.168-39.005 13.54 6.27-21.158 21.185-39.614 40.556-50.184 6.242 2.335 11.514 6.502 16.777 10.661l.001.001h.001c1.699 1.343 3.396 2.685 5.125 3.964 7.087 5.242 15.705 9.685 24.382 8.125 6.239-1.123 11.488-5.18 16.15-9.519l.751-.706a154.619 154.619 0 0015.428-16.969c5.158-6.595 11.498-14.426 19.813-13.443 1.468.173 2.896.631 4.318 1.088 1.966.63 3.921 1.258 5.961 1.127 3.514-.226 6.745-4.945 3.986-7.134l-14.159-11.24c-1.384-1.098-2.981-2.26-4.733-2.033-1.245.162-2.281 1.002-3.243 1.809l-3.18 2.67c-7.413 6.244-14.737 12.618-21.169 19.858-.417.47-.836.946-1.258 1.425-5.214 5.925-10.873 12.355-18.618 12.818-7.555.452-13.906-5.003-19.709-9.988l-.871-.747-1.081-.917a146.384 146.384 0 00-19.653-13.906c-6.114-3.611-12.895-6.864-19.979-6.371-8.288.577-15.279 6.119-21.267 11.942l-.906.889c-2.937 2.886-6.45 6.004-10.49 5.388l-.322-.043c-4.07-.464-7.886 2.062-10.954 4.889l-.478.448c-8.02 7.652-13.927 17.495-16.907 28.171-17.496-4.684-36.679-2.752-52.89 5.327-4.084 2.036-8.066 4.518-10.91 8.088-4.06 5.097-5.25 11.561-6.451 18.081l-.001.001c-.876 4.757-1.758 9.545-3.764 13.855-.594 1.276-1.29 2.522-1.985 3.766-1.63 2.915-3.257 5.825-3.556 9.109-.427 4.686 3.948 10.123 8.286 8.302 4.346-.684 6.645-6.811 3.824-10.186 1.758 1.26 4.209 1.476 6.162.544l-4.535-8.371a62.856 62.856 0 0019.795-16.563c2.191-2.785 6.263-3.489 9.702-2.634 2.948.733 5.547 2.396 8.037 4.165l1.237.889c-1.442 1.049-.611 3.837 1.17 3.925-1.149-4.679 3.53-9.593 8.326-9.137 4.797.455 8.429 5.557 7.802 10.334-2.532 6.275-8.799 9.855-14.997 13.396-6.725 3.842-13.369 7.638-15.073 14.779-1.717 7.195 3.831 15.252 11.165 16.214 7.333.962 14.772-5.392 14.968-12.786 0 0 1.085.112 1.469-1.039.606-1.814 1.179-3.822 1.747-5.813 1.068-3.743 2.118-7.423 3.331-9.621 3.4-6.164 9.728-11.044 16.765-11.214 2.235-.054 4.456-.385 6.674-.717 2.834-.423 5.664-.845 8.515-.688 5.084.28 10.658 3.257 11.391 8.296a38.76 38.76 0 00-17.079.536l19.677 2.341c4.322.514 5.13 7.204 2.05 10.279-2.903 2.898-7.327 3.375-11.468 3.559l-.75.031c.724 1.476 2.523 1.629 4.324 1.782 1.797.153 3.595.305 4.329 1.772zm104.674-85.988c-6.101 6.773-13.233 14.052-22.342 14.392-7.965.297-14.933-4.836-21.377-9.584l-.476-.351-1.539-1.124a271.017 271.017 0 00-22.336-14.581c-5.946-3.477-12.785-6.836-19.454-5.111l10.558 3.323c-1.781.954-2.415 3.553-1.275 5.221.245-2.497 3.133-4.085 5.611-3.695 2.479.391 4.495 2.21 6.03 4.195-13.31 5.103-24.633 15.207-31.215 27.851-1.224 2.352-2.288 4.784-3.353 7.216-1.442 3.295-2.884 6.589-4.72 9.677-3.192 5.368-7.917 10.25-13.997 11.672-.852.199-1.725.33-2.597.461-1.747.261-3.49.522-5.045 1.332l-.419.221-.122.066c-1.825.974-4.076 2.176-5.201.591-1.843-2.596-4.781-4.388-7.933-4.837 5.211-17.51 18.62-32.39 35.495-39.391.955-.396.589-1.825.068-2.718l-7.676-13.134c-.709-1.213.121-2.863 1.37-3.506 1.249-.644 2.738-.547 4.132-.374a48.409 48.409 0 0124.374 10.388c1.111.902 2.932 1.788 3.745.61-7.925-7.992-19.261-11.698-30.416-13.191 9.643-.943 19.615 2.094 27.096 8.251l.364.298c1.787 1.451 3.95 2.993 6.011 2.104-8.354-8.014-19.779-12.743-31.353-12.98 2.382-1.771 4.606-3.74 6.83-5.709l.001-.001.001-.001c2.259-1.999 4.518-3.999 6.942-5.792 4.812-3.558 10.563-6.335 16.537-5.987 4.336.254 8.403 2.125 12.24 4.163a125.856 125.856 0 0122.729 15.47c.483.412.968.83 1.456 1.251l.037.032c6.635 5.718 13.874 11.956 22.45 11.15 5.23-.491 9.863-3.651 13.544-7.398 2.036-2.073 3.851-4.344 5.668-6.615l.001-.002c1.466-1.833 2.933-3.667 4.516-5.398 2.285-2.497 4.93-4.846 8.178-5.799 3.247-.954 7.205-.164 9.134 2.617l-22.272 24.727zm-210.17 46.388c1.176-6.436 2.339-12.801 6.689-17.486 2.129-2.295 4.854-3.947 7.628-5.398 14.192-7.423 30.742-10.248 46.592-7.954 3.879.561 8.685 2.737 8.622 6.42-.023.225-.045.451-.065.676.04-.231.061-.456.065-.676 1.58-15.398 10.55-29.885 23.653-38.135a43.025 43.025 0 0010.092 22.02c-14.258 6.005-26.097 17.552-32.456 31.656l-.101.222c-1.806 3.954-4.671 8.809-8.854 7.825l2.071-12.796c.19-1.174.366-2.444-.191-3.495-.621-1.172-1.949-1.713-3.243-2.103l-.455-.132c-7.497-2.122-15.908-4.16-22.755-.441-3.622 1.967-6.222 5.265-8.653 8.65l-1.805 2.536a129.242 129.242 0 01-14.322 16.764c-2.111 2.081-4.392 4.149-7.218 5.045-2.825.896-6.336.293-8.013-2.151 1.338-3.493 2.031-7.282 2.719-11.047zm46.205 49.861c-4.451 1.651-8.074.837-11.548-1.186-1.487-.866-2.887-1.98-3.725-3.483-1.255-2.254-1.067-5.052-.343-7.529a19.55 19.55 0 016.273-9.52c2.056-1.698 4.424-2.945 6.792-4.191h.001c.817-.43 1.633-.86 2.437-1.308a56.398 56.398 0 0019.563-18.191c.986-1.5 3.064-1.986 4.803-1.543 1.739.443 3.189 1.634 4.443 2.918.897.918 1.563 2.745.365 3.209-8.384 3.246-15.135 10.449-17.833 19.024-.073.235-.145.471-.216.708-.41 1.356-.825 2.729-1.705 3.827-1.033 1.289-3.107 5.828-2.049 7.98 0 0-2.807 7.634-7.258 9.285zm11.632-67.935c1.358.304 2.837.742 3.583 1.918.61.963.571 2.187.475 3.322a53.997 53.997 0 01-2.804 13.195c-.25.72-1.023 1.585-1.587 1.072-.639-3.223-3.584-5.844-6.86-6.104-3.276-.26-6.598 1.863-7.737 4.945-.225.609-1.016.835-1.642.667-.47-.126-.871-.41-1.255-.717l-.38-.309c-3.902-3.17-9.184-4.577-14.147-3.77a49.144 49.144 0 019.896-11.88c1.595-1.393 3.326-2.707 5.34-3.36 1.897-.615 3.934-.609 5.924-.508a66.71 66.71 0 0111.194 1.529zm177.947-56.624a12.384 12.384 0 00-7.244-3.76l3.116-3.958c.989-1.241 2.143-2.514 3.702-2.71 1.124-.141 2.23.32 3.253.808a47.52 47.52 0 019.588 6.071c.981.8 1.967 1.693 2.393 2.884.426 1.192.083 2.752-1.059 3.297-1.142.545-2.787-.649-2.319-1.825l.045-.132c.192-.668-.11-1.458-.715-1.809l-1.103 2.115c-.101.185-.22.364-.402.464-.736.407-1.335-.737-1.382-1.577l-.009-.117c-.079-.827-.513-1.882-1.274-1.624-.102 1.417-1.116 2.726-2.462 3.18-1.346.454-2.945.026-3.885-1.039l-.243-.268zM443.16 290.795l-1.332-5.053c-.633-.177-1.251.457-1.341 1.109-.06.434.037.863.167 1.287l.205.631a10.774 10.774 0 01-.048 6.642 19.773 19.773 0 01-1.997-8.719c-.861-.473-1.447.969-1.385 1.949l.372 5.849c-1.805-1.626-2.442-4.266-2.133-6.677.308-2.41 1.44-4.636 2.713-6.706.664-1.081 1.4-2.164 2.456-2.866 1.057-.702 2.512-.942 3.591-.276.897.554 1.313 1.538 1.735 2.535.319.754.641 1.516 1.177 2.106.19.209.412.422.637.64.872.841 1.804 1.74 1.194 2.646a24.006 24.006 0 01-5.089-4.188 17.081 17.081 0 001.4 9.925c.296.628-.681 1.226-1.296.905-.615-.322-.849-1.068-1.026-1.739zm180.384-16.531c.962-.851 1.842-1.63 2.267-1.418 1.24.619-2.128 3.336-3.911 4.104.129.861 1.378.475 2.108 0 .73-.475 2.773-.987 2.373-.47-2.492 3.224-7.304 5.786-11.753 6.287-1.803.203-4.033-.278-4.607-2-.525-1.57.642-3.12 1.876-4.287l.297-.272c.519-.464 1.352-.917 1.83-.411 1.271 1.345 3.493.245 4.957-.887 0 0 3.806-3.672 4.444-3.436.634.233-1.899 4.373-1.899 4.373.628-.353 1.343-.986 2.018-1.583zm-18.216 3.408c.455-.104.93.08 1.323.332 1.43.918 2.113 2.854 1.576 4.466-.538 1.612-2.245 2.751-3.94 2.628-.241-.017-.492-.063-.68-.214-.396-.317-.346-.922-.258-1.422l.639-3.651c.154-.882.467-1.941 1.34-2.139zm-80.607-8.292a18.071 18.071 0 017.401.295c-.139.995-1.301 1.447-2.284 1.65a28.996 28.996 0 01-9.246.399c.771-1.449 2.511-2.071 4.129-2.344zm153.701-80.975l-6.434-3.8c3.17-.473 6.551 1.192 8.108 3.994-.446.407-1.154.113-1.674-.194zm-140.991 76.204a98.297 98.297 0 00-8.079 2.516c2.758 1.525 6.674.306 8.079-2.516zm-26.662-3.449c.751.155.41 1.336-.189 1.815-1.823 1.456-4.593 1.581-6.541.296l6.73-2.111zm171.221-88.137c.442-.104.897.074 1.31.261a24.171 24.171 0 017.222 5.022l-9.246-4.721a1.1 1.1 0 01.714-.562zM541.122 198.53l.091.063a5.653 5.653 0 012.499.205 11.023 11.023 0 01-2.848 3.443 3.717 3.717 0 01.258-3.711zm158.221-12.973l.02.058c1.021.415 1.717 1.523 1.646 2.624a10.338 10.338 0 01-4.726-5.123 5.922 5.922 0 013.06 2.441zM507.9 266.259l-.153.209c-.533.724-1.168 1.511-2.061 1.615-.894.103-1.809-1.052-1.179-1.694a4.597 4.597 0 013.393-.13zm-63.28 8.972c.797.186 1.697.767 1.572 1.576a27.472 27.472 0 01-5.369-1.258 6.245 6.245 0 013.797-.318zm169.579-.155c-.415.18-.79-.577-.396-.798 0 0 2.723-4.775 2.841-1.432.058.833-1.702 1.85-2.445 2.23zm-115.047 24.517c.202-1.45.583-4.182 1.357-4.182 1.097-.116.675 1.752.378 3.069-.082.363-.155.684-.183.91-.1.791-.838 1.412-1.685 1.031.034-.116.076-.421.133-.827v-.001zm-255.209 50.106c5.585.483 11.192.713 16.798.691-.398 5.271 3.888 10.462 9.14 11.068 5.251.606 10.607-3.473 11.419-8.697.326-2.098 3.165-2.463 5.282-2.298l13.473 1.049c2.309.179 5.577-.548 5.328-2.851l-1.526-14.109c-.138-1.272.306-3.127 1.561-2.876 5.348 1.074 11.19-3.026 11.922-8.43.733-5.405-3.888-10.944-9.34-11.115-2.619-.082-3.865-3.508-3.185-6.039.365-1.361 1.06-2.593 1.755-3.827.598-1.061 1.197-2.123 1.588-3.27.846-2.48.136-5.937-2.416-6.535a141.778 141.778 0 00-59.256-1.124l-.357.071c-1.075.216-2.152.483-3.081 1.058-3.051 1.889-3.286 6.054-3.137 9.728l.1 2.042a144.427 144.427 0 01-2.771 35.381l-.053.263c-.531 2.649-.963 5.675.805 7.683 1.311 1.487 3.408 1.888 5.409 2.087l.542.05zm34.369 2.842c.156.762-.039 1.557-.346 2.273l-.098.218c-1.803 3.806-7.17 5.439-10.766 3.212-3.665-2.268-4.563-7.968-1.774-11.254a96.194 96.194 0 01-21.367.166c-2.197-.229-5.069-1.415-4.62-3.577a160.835 160.835 0 002.857-45.327c-.217-2.744 3.161-4.168 5.869-4.665a141.434 141.434 0 0152.966.389c2.228.443 5.097 2.136 4.109 4.183a28.67 28.67 0 00-2.647 15.614c.155 1.355 1.216 3.129 2.399 2.45 3.186-1.83 7.798-.363 9.341 2.972 1.543 3.334-.324 7.799-3.782 9.043-3.457 1.244-7.74-1.009-8.675-4.562a72.05 72.05 0 00.879 21.994c.491 2.505-3.157 3.451-5.703 3.261l-20.325-1.514c-.623.981.015 1.995.687 3.062.419.665.85 1.351.996 2.062zm105.173-45.933l39.811.8.65.016c1.196.037 2.4.142 3.477.645 2.433 1.135 3.549 3.935 4.289 6.517 3.95 13.78 3.463 28.796-1.373 42.291l-.204.553c-.629 1.66-1.452 3.315-2.938 4.249-1.224.769-2.715.93-4.166 1.007l-.31.016c-5.92.281-11.86.129-17.758-.453 3.071-1.89 3.847-6.494 1.897-9.528-1.951-3.034-6.071-4.301-9.541-3.316-2.115.601-4.085 2.046-4.85 4.107-.766 2.062-.026 4.709 1.929 5.715 1.352.696 1.119 2.888-.065 3.843-1.183.954-2.829 1.022-4.349 1.047l-19.974.324c-1.501.024-3.08.03-4.398-.689-1.869-1.02-2.728-3.217-3.255-5.28a35.62 35.62 0 01-.5-15.284c1.136 3.989 6.051 6.411 9.906 4.882 3.854-1.53 5.772-6.663 3.864-10.345-1.908-3.682-7.207-5.076-10.68-2.808l-.144-1.287c-.498-4.511-.885-9.08-.019-13.523.949-4.866 3.655-9.645 8.092-11.856 3.236-1.612 6.973-1.701 10.609-1.643zm43.458 4.164c-.997-.6-2.199-.703-3.368-.752l-.292-.012a1010.143 1010.143 0 00-37.169-.702l-4.13.007c-2.614.009-5.312.046-7.703 1.099-3.569 1.572-5.882 5.217-6.825 9.001-.944 3.783-.718 7.748-.485 11.641 6.275-1.729 13.025 4.648 12.281 11.114-.745 6.466-7.914 11.136-14.302 9.889-.29 2.043-.575 4.163.025 6.138.6 1.974 2.352 3.759 4.414 3.693l18.519-.596c1.147-.037 2.731-.63 2.398-1.728-1.892-6.233 3.567-13.509 10.081-13.436 6.513.074 11.807 7.471 9.775 13.66a35.66 35.66 0 0012.439.567c1.343-.177 2.745-.461 3.774-1.343 1.012-.866 1.509-2.177 1.931-3.44 4.297-12.878 4.768-27.006 1.337-40.141-.444-1.699-1.059-3.526-2.481-4.517l-.219-.142zM251.236 433.406a127.806 127.806 0 01.008-38.789l.1-.621c.491-2.911 1.352-5.984 3.785-7.588 1.821-1.201 4.121-1.291 6.315-1.292l16.795.046c.764.003 1.602.031 2.177.535s.559 1.661-.178 1.865c-1.759.488-2.77 2.516-2.557 4.329.214 1.813 1.393 3.383 2.777 4.573 3.301 2.838 8.433 3.846 12.087 1.48s4.514-8.462 1.051-11.1c7.845-.16 15.694-.135 23.538.073l2.941.087c.951.031 2.002.107 2.666.788.499.511.663 1.254.775 1.959a25.706 25.706 0 01-2.662 15.992c-.411.773-1.363 1.625-2.012 1.037-2.756-2.502-7.391-2.162-10.211.268-2.82 2.43-3.911 6.465-3.412 10.154.48 3.55 3.067 7.342 6.646 7.163 1.008-.05 2.057-.398 3.085-.739h.001c1.846-.613 3.628-1.204 4.995-.015l-3.587 16.031c-.638 2.847-1.782 6.226-4.636 6.836a112.196 112.196 0 01-50.105-.773l-.794-.2c-1.985-.52-3.962-1.192-5.511-2.518-2.696-2.308-3.538-6.074-4.077-9.581zm65.53-6.929c-4.66 2.192-10.732.311-13.649-3.934-2.916-4.244-2.631-10.31.362-14.502 2.993-4.191 8.372-6.419 13.503-5.981l.429.038c.719.061 1.457.087 2.068-.272.772-.455 1.102-1.39 1.317-2.26a21.175 21.175 0 00-.136-10.613l-21.713.158c.396 6.028-4.566 11.909-10.573 12.535-6.008.626-12.075-4.107-12.93-10.086l-.12-.889c-.129-.897-.33-1.783-1-2.352-.47-.4-1.088-.558-1.698-.679l-.229-.044c-6.317-1.194-14.326-1.69-17.641 3.819-1.129 1.875-1.432 4.12-1.662 6.297a145.297 145.297 0 00.931 37.588l.094.581c.315 1.848.808 3.746 2.183 4.986.946.852 2.187 1.275 3.419 1.622l.307.086c15.754 4.332 32.526 4.911 48.541 1.682l.889-.183c.788-.166 1.606-.357 2.225-.871.806-.671 1.116-1.752 1.385-2.765l3.698-13.961zm117.171 31.763s.09-2.498.406-3.319c.569-1.482 2.248-3.59 2.248-3.59-.117.57-.28 1.181-.448 1.811-.578 2.159-1.216 4.544-.246 6.308.747 1.361 11.686 8.53 15.446 10.21 16.078 7.185 32.236 13.687 48.47 20.219v.001h.002l.001.001.01.004c6.635 2.67 13.282 5.345 19.942 8.074-11.444-1.395-21.981-6.724-32.249-11.968-2.216 12.295 4.635 24.69 13.879 33.095 6.73 6.12 14.653 10.657 22.575 15.194 2.957 1.693 5.914 3.386 8.808 5.162l1.064.659c10.27 6.429 20.092 14.544 24.627 25.738.831 2.053 3.385 3.222 5.482 2.51 2.098-.713 3.412-3.194 2.822-5.33 2.195 1.802.928 5.829-1.732 6.825-2.66.995-5.709-.356-7.672-2.408-1.479-1.546-2.512-3.435-3.543-5.322v-.001l-.001-.001-.001-.001-.002-.005c-.336-.615-.672-1.23-1.024-1.832-6.339-10.869-17.538-17.618-28.648-23.796l-5.216-2.887c-12.056-6.733-24.409-14.82-29.573-27.564-18.747 2.974-38.262.957-56.004-5.79-3.795-1.443-7.511-3.098-11.225-4.752-5.917-2.635-11.829-5.267-18.049-7.039-3.465-.988-8.242-1.094-9.539 2.268-.001-.002-.002.001-.006.008-.037.066-.284.498-1.389.593-.519.044-.995-.865-1.143-1.467-.126-.169-.169-.645-.169-1.623 0-.526 1.073-2.829 3.093-4.253 1.405-.99 2.986-1.35 3.814-1.538.374-.085.594-.135.576-.192-.042-.133-1.479-.506-2.784.127-1.008.489-1.962 1.135-2.839 1.728-1.356.918-2.529 1.712-3.43 1.607-1.221-.141-2.087-.711-2.101-1.94-.013-1.229.313-2.723 1.261-3.495a11.346 11.346 0 017.253-2.521c.565.008 1.19.089 1.558.516.368.428.187 1.282-.377 1.307-3.386.152-7.301.719-8.619 4.193-.384 1.011 2.039 1.174 2.976.634.544-.312 1.011-.733 1.479-1.154.338-.305.677-.61 1.045-.875a6.226 6.226 0 013.824-1.158c.546.02 1.148.146 1.47.588.322.441.095 1.244-.451 1.253-3.511.057-6.715 3.1-6.956 6.602.013.126.111.705.52.842.477.161 1.005-.229 1.026-.267 1.828-3.264 5.165-5.445 8.752-4.353 1.356.413 2.661 1.042 3.961 1.668 2.272 1.094 4.527 2.181 7.005 2.089l-1.487-7.887c-6.029-5.526-15.116-7.475-22.881-4.906-.831.275-1.729.674-2.068 1.481-.339.807.405 1.979 1.222 1.666-1.285 1.189-3.458-.829-2.969-2.511.489-1.681 2.333-2.545 4.028-2.986 9.511-2.472 18.991 1.837 28.151 6.001 1.7.772 3.39 1.54 5.066 2.259 18.653 7.995 39.728 10.231 59.644 6.329-.864 2.364-3.809 3.079-6.311 3.36-17.738 1.995-35.959-.446-52.547-7.04-2.026 2.574-1.061 6.573 1.245 8.9 2.306 2.326 5.567 3.383 8.706 4.321 17.588 5.257 36.235 9.277 54.207 5.54l-2.913-17.042-.059-.311c-.144-.68-.408-1.383-1.044-1.599l-.161-.055c-23.035-7.822-40.591-13.784-63.386-35.514a4.233 4.233 0 01-.134-.134c-.168 6.531-2.24 7.968-10.876 6.187-18.844-3.884-38.138-5.918-57.158-3.245a213.47 213.47 0 015.395-21.068c-6.188 1.997-13.495-3.675-13.094-10.165.4-6.491 8.347-11.222 14.244-8.48 2.025-4.673 2.154-10.137.35-14.901-.865-2.285 2.583-3.604 5.027-3.604l13.502-.003c1.888-.001 4.519-.877 4.05-2.705-1.111-4.336 1.87-9.289 6.221-10.337 4.272-1.028 9.082 1.897 10.185 6.137l.058.236c1.025 4.554 6.792 5.999 11.458 5.91l2.323-.056c4.036-.085 8.242.046 10.943 2.869 3.231 3.376 2.509 8.753 1.444 13.337l-.071.304c-.52 2.19-1.277 3.97-2.039 5.76-1.45 3.41-2.917 6.857-2.787 13.253.053 2.607.147 5 .254 7.191.375-1.539.705-2.556.705-2.556s44.008 32.768 71.188 37.216c3.257-2.878 1.377-8.485-1.903-11.335-1.383-1.201-2.957-2.172-4.527-3.14-2.155-1.329-4.302-2.654-5.938-4.563-3.249-3.794-3.829-9.02-4.405-14.202-.626-5.635-1.246-11.217-5.284-14.848-.36-.324-.744-.626-1.127-.929l-.001-.001c-.865-.682-1.729-1.363-2.318-2.284-1.456-2.276-.74-5.445 1.023-7.493 1.764-2.048 4.343-3.192 6.895-4.082 5.297-1.85 11.105-2.882 16.514-1.392 5.409 1.489 10.254 5.994 10.786 11.579 1.026-2.222 3.279-3.827 5.714-4.071l-3.535 3.756 4.473.09-6.155 3.437c3.816 7.057 3.198 15.761.752 23.402-.299.934-.625 1.868-.951 2.804v.001l-.002.004c-1.307 3.75-2.625 7.531-2.287 11.444.415 4.812 4.688 9.728 9.359 8.743l.234-.054c5.614-1.418 11.761-.597 16.806 2.245 5.883 3.314 9.888 8.934 13.851 14.496a209.17 209.17 0 002.776 3.833c4.398 5.882 9.603 11.352 16.109 14.76 6.506 3.407 14.484 4.532 21.261 1.703 1.246-.52 2.444-1.167 3.64-1.812 2.031-1.097 4.056-2.19 6.302-2.655 3.568-.74 8.112 1.006 8.535 4.626-1.846-3.084-6.219-3.631-9.659-2.591-1.942.587-3.733 1.546-5.526 2.506l-.001.001c-1.384.741-2.77 1.483-4.227 2.055-7.299 2.866-15.799 1.129-22.518-2.912-6.509-3.915-11.608-9.761-16.208-15.817l-.444-.587c-.466-.62-.931-1.244-1.396-1.868v-.002l-.002-.001-.001-.001-.001-.002-.001-.001-.001-.001-.001-.002-.001-.001c-3.234-4.347-6.492-8.725-10.761-12.032-4.789-3.708-11.22-5.9-16.985-4.12l-.352.114c-5.515 1.868-11.356-3.408-12.349-9.146-.992-5.737 1.347-11.47 3.636-16.824 2.361-5.523-1.975-11.966-7.441-14.455-5.072-2.31-11.163-2.258-16.195.138-1.63.777-1.925 2.916-1.87 4.745l.007.202c.283 6.456 2.007 13.242 6.72 17.664 1.401 1.314 3.021 2.376 4.637 3.436 2.022 1.326 4.039 2.649 5.62 4.461 2.844 3.26 3.281 9.366-.669 11.13a176.627 176.627 0 0120.073 4.85c-35.45-3.627-68.045-20.347-91.446-40.544a11.375 11.375 0 00-1.022 2.939c.055 1.012.11 1.976.163 2.894.075 1.296.144 2.499.198 3.613 1.127 3.708 3.76 6.976 7.376 8.412a9.42 9.42 0 012.35-7.256c-1.141 2.551-2.952 7.443 4.11 12.396zm54.453-49.905a55.373 55.373 0 00-9.57-.934c-.218.404-.3.88-.231 1.333 3.577.298 7.1 1.24 10.349 2.769-1.358 1.358-3.601.545-5.423-.116l-.107-.039a18.663 18.663 0 00-9.784-.78c-1.659.316-3.319.884-4.596 1.988-1.278 1.104-2.114 2.823-1.829 4.487.364 2.126 2.364 3.579 4.36 4.397 4.947 2.027 10.878 1.455 15.349-1.479.362-.237.873.16.894.592.021.433-.271.816-.578 1.122-1.782 1.773-4.432 2.338-6.942 2.484-.733.042-1.469.057-2.206.071h-.001c-1.786.035-3.571.07-5.296.507.233 1.423 2.01 1.913 3.448 2.017a40.584 40.584 0 0016.273-2.159c1.302-.455 2.5.85 3.268 1.996l5.603 8.362c1.841-1.733 1.73-4.727.862-7.101-.339-.928-.77-1.823-1.202-2.716-.672-1.393-1.343-2.783-1.658-4.29-.174-.831-.237-1.683-.299-2.534-.088-1.195-.176-2.387-.571-3.511-1.394-3.96-5.986-5.698-10.113-6.466zm-67.687 76.327l-5.086-2.922c-.564-.324-1.604-.378-1.547.27-.174 2.625.041 5.841 1.728 8.029 1.063 1.379 1.832 2.085 5.588 3.018l-.277-7.353c-.014-.39-.068-.847-.406-1.042zm77.447-39.997c.619-.358 1.012-.997 1.381-1.61.658-1.096 1.336-2.257 1.366-3.535.029-1.278-.855-2.673-2.132-2.723-.636-.025-1.24.277-1.759.645a6.878 6.878 0 00-2.506 3.33c.588.847 1.918.09 2.51-.755.592-.845 1.469-1.913 2.411-1.491a15.47 15.47 0 01-3.196 5.862c.394.597 1.307.636 1.925.277zm10.175 62.103c-1.414-2.246-2.942-4.671-5.462-5.402 5.591 10.523 14.257 19.389 24.649 25.22 3.629 2.036 7.455 3.708 11.279 5.378 5.332 2.33 10.657 4.656 15.426 7.962a45.012 45.012 0 0114.261 16.219c-1.314-9.206-9.011-16.253-17.229-20.605-3.72-1.971-7.628-3.559-11.535-5.146v-.001c-4.723-1.919-9.443-3.837-13.824-6.427a51.773 51.773 0 01-17.565-17.198zm17.562 3.113l.156.347c.688 1.592 1.165 3.593-.127 4.671-1.029.859-2.59.531-3.804-.039a12.619 12.619 0 01-6.02-6.038 7.953 7.953 0 004.069-2.184c.915-.921 2.532-.734 3.562.055 1.031.789 1.616 2.012 2.164 3.188zm-.833 3.768c1.322-2.375-1.376-5.877-2.693-6.105-.574-.099-1.165.469-1.801 1.079-.653.626-1.351 1.296-2.123 1.335 0 0 5.294 6.065 6.617 3.691zm66.707 6.828c32.117-1.056 63.471-16.702 83.626-41.73 1.043-1.295 3.109-1.317 4.559-.503 1.45.814 2.43 2.244 3.357 3.625 1.011-.148 1.041-1.716.344-2.463-.343-.369-.774-.637-1.205-.904-.444-.275-.887-.55-1.234-.934-1.403-1.554-.653-3.998.169-5.923l3.664-8.581c.491-1.149 1.259-2.49 2.509-2.473.914.013 1.618.777 2.198 1.484a252.162 252.162 0 0117.556 24.18c-3.309.513-6.49-1.117-9.628-2.726-3.505-1.795-6.956-3.564-10.471-2.29-3.063 1.111-4.868 4.195-6.49 7.02-5.304 9.243-11.382 18.145-19.079 25.515-17.877 17.115-42.822 24.522-67.124 29.206 15.032 5.69 31.591 7.286 47.433 4.572 9.066-1.553 18.106-4.612 25.172-10.501 2.861-2.385 5.343-5.184 7.813-7.972l18.198-20.543c1.066-1.203 3.032-.048 4.025 1.215.993 1.264 2.339 2.839 3.853 2.3a12.575 12.575 0 00-5.281-5.791c-.138-2.897-.224-6.001 1.316-8.459 1.541-2.458 5.381-3.655 7.38-1.553a359.599 359.599 0 0118.818 21.44c-3.512.552-6.85-.96-10.162-2.46h-.002v-.001h-.001c-1.023-.463-2.043-.926-3.066-1.326-4.334-1.695-10.411-1.659-12.387 2.555-5.407 11.524-11.024 23.344-20.304 32.058-15.498 14.552-38.143 17.837-59.268 20.233-9.368 1.062-18.992 2.07-28.114-.316-6.639-1.736-12.68-5.19-18.632-8.607l-4.723-2.712c-1.39.348-.273 2.455.961 3.183 7.907 4.663 16.057 9.415 25.125 10.844 2.31.364 4.65.506 6.987.593a154.402 154.402 0 0063.178-11c8.331-3.351 16.81-7.83 21.386-15.557l16.123-27.229c.618-1.043 1.297-2.144 2.393-2.662 1.335-.631 2.905-.229 4.323.183l15.113 4.39c1.545.448 2.98-1.363 2.819-2.963-.161-1.6-1.317-2.897-2.415-4.073l-13.938-14.917c-1.838-1.969-3.815-4.022-6.411-4.739-2.597-.716-5.935.545-6.443 3.19-1.499 7.809-6.833 14.244-11.981 20.303-7.968 9.379-16.264 19.017-27.324 24.414-15.859 7.739-34.601 5.491-51.966 2.347l11.26-3.28c5.573-1.623 11.156-3.25 16.559-5.373 20.959-8.236 38.812-24.127 49.422-43.991 1.841-3.447 4.007-7.432 7.854-8.124 3.161-.569 5.857 1.298 8.613 3.206 1.638 1.135 3.297 2.284 5.088 2.945 2.642.975 6.742-.413 6.121-3.159-.141-.621-.517-1.158-.885-1.677l-14.338-20.213c-1.989-2.804-4.97-5.973-8.243-4.92-2.63.846-3.616 3.882-4.486 6.559l-.079.243-.036.111-.041.124c-4.081 12.435-15.054 21.122-25.469 29.048-4.557 3.468-9.126 6.944-14.043 9.878-14.365 8.57-31.211 12.199-47.903 13.283-4.716.306-7.68 4.73-10.393 8.779-.322.482-.641.958-.959 1.421a43.54 43.54 0 01-18.825 15.367c1.266 1.398 3.57.56 5.169-.44a56.86 56.86 0 0018.611-18.998c1.012-1.694 2.282-3.666 4.254-3.731zm-100.767-72.554c-.739 1.618-2.385 2.782-4.156 2.94-1.771.157-3.597-.699-4.609-2.16-.372-.537-.369-1.586.282-1.53 1.354 1.799 4.179 2.264 6.038.994.805-.55 2.202-1.188 2.445-.244zm-14.236-11.753c.16-1.355 1.303-2.532 2.652-2.733 1.349-.201 2.785.591 3.334 1.84-.986 0-1.648-.178-2.198-.327-1.12-.302-1.781-.48-3.788 1.22zm10.457 7.547l-1.535.658-.089-.051c-.398.758-1.571-.1-1.661-.952a10.34 10.34 0 01-.036-.551c-.034-.721-.07-1.471-.666-1.795-.746 1.074-1.087 2.486-.653 3.72.434 1.233 1.753 2.168 3.039 1.936 1.286-.232 2.21-1.809 1.601-2.965zm1.843-10.467c1.942.156 2.459.261 2.994 1.538.106.251-.724.015-1.515-.211h-.001c-.581-.166-1.142-.326-1.293-.281-6.499 1.927-2.127-1.202-.185-1.046zm-.548 3.357c1.072.85.761 4.238-.822 3.601-.664-.267-1.457-5.408.822-3.601zm51.37 90.735c-.512-.638.069-1.777.886-1.737.361.234.607.637.648 1.065-.31.504-.95.78-1.529.658l-.005.014zm-14.594-6.605l1.116-.17.089-.032c.388-.724-.879-1.551-1.386-.904-.11.371-.041.79.181 1.106zm7.946 4.401c-.647.176-.735-.935-.371-1.498l1.545.703c-.238.418-.68.712-1.157.771l-.017.024zm-19.291-16.191c-.171-.424-.785-.587-1.144-.302l.099.098c-.31.405-.064 1.096.431 1.215.456-.044.785-.587.614-1.011zm-33.936-68.66c-.622 0-1.272-.609-1.24-1.665.032-1.057.319-2.033 1.24-1.514.921.518.641 3.179 0 3.179zm-289.63-128.381c.375.493 1.231.276 1.56-.247.33-.524.288-1.191.229-1.806a83.334 83.334 0 00-6.814-25.836c-1.037-2.327-2.128-5.229-.54-7.222 3.671 9.175 7.372 18.463 8.709 28.254.365 2.672.496 5.598-.994 7.846s-5.202 3.11-6.857.981c2.546-.532 4.494-3.11 4.31-5.704 1.176.802 1.378 2.703.397 3.734zm29.671 176.788c13.32-.731 28.75-2.654 35.737-14.017 1.811-2.947 1.425-7.579 1.106-11.397-.255-3.067-.467-5.608.54-6.325 2.26-1.612 4.068 2.544 4.068 2.544.067-.275.143-.616.228-1 .632-2.831 1.794-8.046 3.621-7.067.751.403.493 2.939.315 4.681v.001c-.042.408-.079.773-.098 1.057-.042.269-.048.494-.016.653a.396.396 0 00.079-.044.082.082 0 00.037-.019.27.27 0 00.033-.034c.296-.25.7-.866 1.15-1.551h.001c.932-1.42 2.06-3.138 2.816-2.507 1.187.992-3.033 7.319-3.033 7.319s5.012-5.508 5.435-3.164c.423 2.345-10.992 23.516-21.296 31.82-10.304 8.303-24.823 12.952-37.951 11.287.293-5.206 2.021-11.951 7.228-12.237zm45.65-30.967a.76.76 0 01-.07.053c-.079.013-.088-.222-.063-.609.097-.613.383-1.452.841-2.254-.087.275-.173.541-.255.792-.366 1.122-.631 1.935-.356 1.871a1.46 1.46 0 01-.056.092c-.015.021-.028.04-.041.055zm2.481-4.778c-.738.467-1.334 1.2-1.773 1.968.684-2.166 1.376-4.898-.307-5.116-2.855-.371-5.645 4.276-5.15 6.744-.792-1.967-4.089-1.116-4.887.848-.613 1.507-.352 3.158-.093 4.797.078.497.156.992.21 1.482.858 7.832-5.014 15.152-12.132 18.53-6.711 3.184-14.327 3.632-21.777 3.863l-1.737.05c-4.253.112-8.859.014-12.105-2.701-3.344-2.797-3.34-9.434.859-10.607 10.66-2.977 18.791-13.364 19.122-24.427.098-3.269 2.219-5.99 4.268-8.619.184-.236.368-.472.549-.707l.45-.589c2.294-3.043 4.18-7.236 2.254-10.524-2.984 3.829-8.575 5.373-13.101 3.619-1.889-.733-3.562-1.956-5.225-3.171-2.226-1.628-4.434-3.243-7.116-3.646-5.244-.79-10.446 4.52-9.548 9.747-1.42-1.192-3.623.612-3.777 2.459-.09 1.085.195 2.141.482 3.202.201.744.403 1.491.476 2.251.085.886-.006 1.772-.096 2.659-.062.6-.123 1.2-.13 1.801-.038 3.111 1.348 5.991 2.713 8.826l.002.004.001.004c.137.283.273.567.408.85l.365.778c1.555 3.37 2.708 7.38 1.051 10.702-1.656 3.321-7.295 4.361-8.892 1.011-7.829-16.417-25.574-27.596-43.763-27.569-21.06.032-40.009 13.911-52.42 30.925-1.547 2.122-3.062 4.408-3.4 7.013-.337 2.604.872 5.594 3.35 6.465 2.477.872 5.69-1.565 4.883-4.065 1.257 1.467 3.828.08 4.42-1.76.333-1.033.329-2.123.325-3.217-.003-.853-.006-1.708.15-2.54.768-4.08 4.965-6.437 8.742-8.16l.762-.346c8.898-4.026 18.168-7.621 27.9-8.305 10.011-.703 20.693 2.079 27.572 9.385-9.387 2.228-14.838 11.646-19.183 20.346l-.603 1.213c-4.387 8.81-10.133 18.422-19.754 20.29.366 1.898 2.041 3.468 3.959 3.709l-35.27 20.969 2.706 3.356a276.574 276.574 0 01-28.997 37.102c-5.816 6.26-13.367 12.746-21.787 11.289-1.522-.263-2.998-.786-4.47-1.307-2.153-.763-4.296-1.522-6.558-1.457-3.806.109-7.625 4.739-5.042 7.535a97.501 97.501 0 0019.372 16.158l.185.116c.867.54 1.82 1.044 2.825.929 1.016-.117 1.844-.84 2.6-1.529l47.767-43.554c3.912-3.538 8.217-7.078 13.429-7.598l.44-.053c3.854-.537 7.029-2.973 10.214-5.417 1.386-1.064 2.774-2.13 4.221-3.04 4.896-3.081 13.016-3.397 14.92 2.064 1.011 2.903-.313 5.855-1.618 8.765-.389.867-.777 1.73-1.1 2.587-1.408 3.733-.254 9.476 3.735 9.405l22.324-.395c.802-.008 1.647.037 2.271.528.653.513.882 1.368 1.007 2.206l.052.384a74.445 74.445 0 01-.343 20.597c-1.158 7.376-4.238 15.488-11.197 18.192-4.389 1.705-9.278.82-13.901-.239l-28.09-6.561c-.047-3.402 3.03-6.171 6.311-7.073 2.782-.764 5.703-.531 8.596-.3h.001l.533.042 1.02.076a66.829 66.829 0 0021.197-1.947l-9.958-24.92a85.34 85.34 0 006.618 24.02l-32.734 1.062c-2.851.08-6.015-.046-7.932-2.126-.491-.534-.901-1.191-1.308-1.843-.834-1.337-1.653-2.649-3.134-2.82-1.28-.149-2.439.706-3.42 1.542a64.586 64.586 0 00-15.542 19.676c1.38 3.418 5.954 4.374 9.507 3.393 2.078-.573 3.975-1.607 5.875-2.643 1.349-.735 2.699-1.47 4.117-2.044 7.913-3.198 16.612-1.03 24.969 1.486l4.963 1.511c9.809 2.947 21.769 4.458 29.12-2.674 4.337-4.209 5.918-10.471 6.777-16.454 2.478-17.263.469-35.15-5.777-51.434 6.964-2.686 10.25-10.477 12.805-17.49l5.004-13.736c1.671-4.589 5.469-10.22 9.99-8.371 12.923 5.285 28.187 3.051 40.218-4.034 12.032-7.084 21.038-18.559 27.105-31.134l.162-.34c1.187-2.499 2.7-8.329 1.349-8.976-.504-.395-1.402.262-2.013.709-.331.242-.578.423-.634.344-.035-.049.076-.372.233-.83.618-1.8 1.952-5.686-2.017-3.176zm-85.518 77.103c-1.563 3.515-4.15 7.652-7.969 7.185-2.045-.25-3.589-1.793-4.978-3.379l-.745-.862c-8.07-9.368-19.033-15.595-30.052-21.326l-3.672-1.896c8.976-1.766 14.513-10.643 18.467-18.892l1.26-2.629c3.615-7.495 7.729-15.207 15.186-18.581 1.031-.467 2.213-.838 3.276-.451.161.059.335.126.516.196 1.312.504 3.002 1.154 2.975-.089-2.392-.965-2.786-4.454-1.406-6.634 1.26-1.99 3.443-3.139 5.604-4.128l.616-.279c-1.378-1.901-4.366-.303-5.927 1.452l-.129.143c-1.566 1.718-3.971 3.6-5.779 2.203-7.472-5.773-17.429-7.626-26.828-6.72-9.398.906-18.365 4.343-26.951 8.271-3.147 1.44-6.343 3.01-8.678 5.564-1.807 1.975-1.994 4.605-2.182 7.248-.056.774-.111 1.549-.207 2.309-.231 1.837-1.242 1.908-2.133 1.97-.477.033-.919.063-1.189.363a4.68 4.68 0 00-.197.292c-.534.821-1.98 3.043-2.634 2.821-.96-.325-.47-2.397-.47-2.397s-2.848.814-3.06 0c-.742-2.848 3.53-8.675 3.53-8.675 7.182-10.566 17.832-19.333 29.542-24.429 11.926-5.19 25.843-6.192 38.035-1.661 13.745 5.109 24.63 17.313 28.138 31.55.875 3.55 5.004 5.117 8.612 5.707l.368.059.656.104h.005c3.33.52 6.87 1.074 8.992 3.616.626.749.453 1.858.238 2.81l-.063.275c-.791 3.395-2.172 7.195-5.471 8.226-2.999.936-6.551-1.481-6.781-4.614-.02-.276-.026-.568-.032-.864-.025-1.217-.052-2.5-1.074-3.002l-17.409 39.144zm-28.355 18.569c-1.122-5.762-4.529-10.945-9.001-14.748a10.286 10.286 0 002.674 6.131 67.71 67.71 0 00-20.999 11.049c-1.679 1.307-4.533 2.498-5.517.611-3.871-7.423-10.032-13.632-17.426-17.558l30.398-17.469c1.373-.789 2.827-1.602 4.411-1.617 1.228-.012 2.395.458 3.506 1.006l.551.279a96.196 96.196 0 0129.751 23.85c2.029 2.433 2.973 5.549 3.777 8.632l3.615 14.126c.24.935.415 2.093-.318 2.722-.412.354-.993.415-1.535.456l-.634.049c-9.001.693-16.263 1.252-25.281-.049-1.345-2.579-.329-5.776.721-9.078.9-2.828 1.824-5.734 1.307-8.392zm-45.222-8.687a60.647 60.647 0 019.047 9.96c.282.389.572.824.542 1.304-.035.56-.489.991-.911 1.36l-39.289 34.387c-1.638 1.434-4.252 1.182-6.087.011-1.605-1.025-2.753-2.597-3.806-4.199l-.447-.687c10.24-5.381 16.807-15.02 23.434-24.746 4.156-6.1 8.336-12.234 13.459-17.372.498-.499 1.059-1.016 1.76-1.095.867-.097 1.643.501 2.298 1.077zm114.413-95.916l1.003.308c1.954.605 2.278 3.222 2.03 5.251-1.03 8.404-6.253 16.722-14.307 19.333l-.288.097c-5.248 1.853-9 7.343-8.776 12.912-3.523.66-7.3-2.158-7.67-5.723-.074-.711.137-1.634.843-1.743 3.201-.491 6.144-2.455 7.827-5.222 1.683-2.766 2.073-6.284 1.037-9.352-.211-.627-.48-1.254-.749-1.882-.766-1.787-1.534-3.58-.996-5.381 1.226.113 1.459 1.795 1.33 3.02l-.014.149c-.1 1.208.113 2.757 1.285 2.918.772-1.773.933-3.758 1.092-5.728.201-2.488.401-4.952 1.827-6.934 1.631-2.266 4.557-3.308 7.349-3.34 2.443-.029 4.831.605 7.177 1.317zM46.966 585.704l.252-.291c1.406-.308 2.749 1.493 2.053 2.753-.447.808.927 1.608 1.694 1.094.767-.514.922-1.559 1.006-2.478.772-.242 1.44.642 1.586 1.438.038.21.062.427.086.645.066.606.133 1.213.515 1.669.52.62 1.897.299 1.671-.477-.337-1.159 1.032-2.105 2.226-2.276.287-.041.584-.065.881-.089.94-.077 1.886-.155 2.57-.765l.103-.082c.868-.616 1.942.523 2.597 1.534l.305.49c1.44 2.239 3.888 3.807 6.527 4.165.517.07.254.876-.126 1.234l-8.907 8.388c-.431.406-1.13.117-1.637-.193a74.638 74.638 0 01-14.49-11.579c-1.363-1.399-.208-3.632 1.088-5.18zm77.889 15.611c-.256 1.058-.987 2.242-2.072 2.162a20.54 20.54 0 00-7.767.923c.229-1.065-.237-2.247-1.131-2.869-.653.934-.386 2.38.557 3.02l-2.491 2.46-1.192-2.739c-.588.156-.605.877-.564 1.539l.029.41c.119 1.735-1.352 3.421-3.086 3.538-1.735.117-3.419-1.356-3.534-3.091-.125-1.89 1.323-3.475 2.668-4.807l9.554-9.46c.203-.193.436-.373.71-.369.303.006.549.236.762.451l3.728 3.762c.723.73.266 1.846-.179 2.934-.458 1.119-.904 2.209-.039 2.816.843.05 1.545-.682 1.868-1.461.166-.398.266-.818.367-1.238.096-.403.193-.806.346-1.19.315-.783.993-1.529 1.837-1.511.844.018 1.495 1.224.842 1.759-.696.571-.894 1.499-1.088 2.401v.001c-.04.189-.08.376-.125.559zm-65.32 4.183a68.906 68.906 0 01-22.102-18.767c.777-.737 1.945.046 2.696.88l.186.218a65.967 65.967 0 0020.634 16.918c-.064.626-.859 1.048-1.414.751zm41.183-1.759a111.524 111.524 0 0112.308-13.611c.693-.649 2.131-1.087 2.306-.154a236.753 236.753 0 00-14.902 15.584c-.514-.446-.125-1.279.288-1.819zM72.15 591.576a14.266 14.266 0 01-6.568-4.823c-.623-.828-1.017-2.266-.072-2.692.747-.336 1.465.37 1.986 1.055l.39.531a13.31 13.31 0 006.738 4.679c.005.71-.583 1.376-1.29 1.459-.401.047-.803-.073-1.184-.209zm127.377-143.963c1.22.029 2.253 1.301 2.032 2.502l.028.017c.169.87.058 1.792-.312 2.597a6.113 6.113 0 01-1.748-5.116zm23.247.03c.154-.013.316-.028.48-.03.206-.002.444.035.668.069.604.094 1.109.172.632-.575-.655-1.025-2.57-1.14-2.884.034.088.592.544.551 1.104.502zm1.542 5.067l.027-.106c.466-1.764.196-3.156-1.089-3.156-.495.038-1.252 2.563-1.18 3.328.072.766.935 1.475 1.603 1.094.397-.225.524-.715.639-1.16zm-8.477-.536c-.896-1.244-.99-3.015-.231-4.348.113-.198.25-.394.449-.508.503-.288 1.175.102 1.397.638.221.535.124 1.142.024 1.713 0 0-.743 3.75-1.639 2.505zm189.785.037a139.812 139.812 0 00-50.191-2.978 46.958 46.958 0 003.686-21.563c-4.359 3.055-11.514-.529-11.68-5.849-.165-5.319 6.755-9.34 11.295-6.561 1.203.736 2.526-.791 3.007-2.117a21.105 21.105 0 00.045-14.134c-.628-1.763 2.034-2.72 3.905-2.683l15.883.314c1.067.021 2.199.026 3.11-.53.911-.555 1.428-1.891.759-2.721-2.748-3.411.41-9.514 4.782-9.239 4.371.274 6.741 6.725 3.588 9.765-.588.567.555 1.296 1.372 1.315l20.767.478c4.131.095 7.049 4.496 7.218 8.624.143 3.493-1.098 6.839-2.323 10.143-.107.288-.214.576-.319.864l-.339.935a69.634 69.634 0 00-3.423 32.384c.28 2.119-1.671 4.004-3.758 4.463-1.842.404-3.739.003-5.583-.458l-1.801-.452z" fill="#00160A"/><path fill-rule="evenodd" clip-rule="evenodd" d="M184.261 262.125c.152-.979 1.456-1.544 2.399-1.208.943.336 1.785 1.688 1.094 2.453-1.094 1.211-3.786.655-3.493-1.245z" fill="#FFB61D"/><path fill-rule="evenodd" clip-rule="evenodd" d="M594.67 515.609c-.617.517-1.853.704-1.968-.092a17.491 17.491 0 004.689-8.997c.785-.21 1.012 1.04.815 1.829-.664 2.658-1.438 5.499-3.536 7.26z" fill="#00160A"/><path d="M63.626 224.025c-.024.789-1.221.743-1.945.428.26-.704 1.317-.94 1.852-.413l.093-.015z" fill="#000"/><path fill-rule="evenodd" clip-rule="evenodd" d="M405.136 440.768c-.834.742-2.237-.392-2.113-1.501.124-1.11 1.107-1.903 2.049-2.501a24.497 24.497 0 0111.282-3.719c.107 1.522-1.865 2.15-3.362 2.442a20.805 20.805 0 00-8.756 3.982c.462.283.796.766.9 1.297z" fill="#00160A"/><path fill-rule="evenodd" clip-rule="evenodd" d="M416.467 442.709a85.371 85.371 0 01-5.71 2.502c.219.815 1.391.788 2.186.502.794-.287 1.839-.589 2.354.081-1.307 1.995-4.545 2.306-6.208.596-.723-.743-2.032-.254-2.966-.705-1.336-.645-1.087-2.663-.3-3.921 1.642-2.627 4.774-4.247 7.867-4.069 1.178.068 2.585.649 2.663 1.826-3.694-.232-7.46 1.291-9.954 4.026 1.417 1.096 3.449.278 5.047-.532 1.598-.809 3.708-1.525 5.021-.306zm-196.641 10.478c1.06 1.061 1.5 1.546 1.5 3.107 0 1.56-.846 2.561-2.275 3.019-.658.212-1.57.05-1.741-.62 4.76-.972 3.011-3.047 2.516-5.506zm-6.35-6.637c.507-1.684 2.716-2.594 4.262-1.756.612.331 1.121.934 1.153 1.629-1.805.042-3.292-1.125-5.415.127zm4.321 15.04c-10.069-5.59-2.186 1.573 0 0z" fill="#00160A"/></svg>