<svg width="750" height="750" fill="none" xmlns="http://www.w3.org/2000/svg"><path fill="#fff" d="M0 0h750v750H0z"/><path fill-rule="evenodd" clip-rule="evenodd" d="M197.421 130.657a2.215 2.215 0 011.864-2.158c5.416-1.633 10.513-4.11 15.871-5.917a56.096 56.096 0 008.385-3.546c1.954-1.04 4.182-1.346 6.223-2.234l.552-.258c2.354-1.177 4.998-1.673 7.452-2.693 2.07-.86 4.401-.953 6.552-1.768a99.55 99.55 0 019.584-2.963 17.745 17.745 0 016.312-1.201c.58.056.927-.288 1.382-.41a49.747 49.747 0 015.915-1.392c4.249-.608 8.437-1.623 12.688-2.166 3.087-.391 6.133-.966 9.2-1.449 2.951-.463 5.911-.868 8.881-1.215A179.343 179.343 0 01319.219 100c5.478.052 10.949.413 16.387 1.083a99.87 99.87 0 0113.169 1.969c3.44.869 7.028 1.245 10.327 2.408 3.112 1.097 6.305 2.031 9.422 3.043a283.453 283.453 0 0121.313 7.868c4.116 1.704 8.223 3.508 12.352 5.142 4.845 1.916 9.435 4.368 14.27 6.298 2.832 1.133 5.612 2.68 8.411 4.012 2.711 1.289 5.224 2.949 8.014 4.068a88.444 88.444 0 018.03 4.049c2.469 1.299 5.408 2.114 7.341 4.404 2.457-.162 3.896 1.901 5.835 2.839 1.94.937 3.836 2.015 5.791 2.817 2.016.825 4.047 1.723 6.016 2.596 3.999 1.773 8.145 3.153 12.125 4.907 2.429 1.068 5.003 1.329 7.457 2.161a74.822 74.822 0 0014.487 3.267c1.983.205 3.923.709 5.755 1.497 1.374.632 2.657-.216 4.034.159 2.23.608 4.56.839 6.836 1.273.7.263 1.489.128 2.062-.353l1.305 1.49c.818.151.205-.6.634-.825.952.091 2.002-.056 2.926.665.867.679 1.8-.203 2.806.112 2.189.678 4.765-.597 6.767 1.258 2.183-.619 4.356.067 6.535.078a4.471 4.471 0 012.927.908l.19.153c.766.704 1.936-.944 2.63.408 3.774-.737 7.113 1.195 10.523 2.081 5.47 1.423 11.081 2.437 16.347 4.8 2.635 1.181 5.716 1.644 8.423 2.797 6.085 2.591 12.357 4.77 18.133 8.091 2.385 1.373 5.076 2.215 7.45 3.612l2.743 1.615c4.111 2.428 8.198 4.901 12.121 7.632a5.956 5.956 0 012.433 2.191c.562 1.195 2.053.706 3.034 1.441 1.169.868 1.802 2.216 3.223 2.936.784.397 1.643 1.477 2.55 1.94 2.95 1.504 4.676 4.515 7.659 5.948a8.32 8.32 0 012.457 2.718c2.367 2.96 5.907 4.732 8.006 7.88l.277.438a12.657 12.657 0 004.099 4.104l.649.39c.479.291.924.598 1.018 1.047.395 1.875 2.01 2.831 3.063 4.167 1.129 1.431 2.741 2.454 3.738 4.08a16.344 16.344 0 003.369 4.68c2.623 1.994 4.075 4.785 5.888 7.327.907 1.269 2.439 2.273 2.162 4.274-.142 1.018 2.034.274 1.846 1.743l-.029.166c-.223 1.002.409 1.519 1.303 1.985.818.426.235 1.995 1.212 2.275.977.28 2.1 1.021 1.876 1.52-.553 1.252 1.386 1.217.855 2.209a.391.391 0 00.077.339c2.299 2.571 2.917 6.092 5.099 8.79a16.575 16.575 0 012.703 5.588 34.926 34.926 0 002.323 5.309c1.46 2.959 1.962 6.226 3.44 9.142.399.79-1.235 2.192.751 2.518-.506 1.22.708 1.804.973 2.715a7.991 7.991 0 01-.127 2.449 11.912 11.912 0 011.927 5.195 90.604 90.604 0 011.999 11.257l.344 3.122c.453 4.169.796 8.359-.066 12.537-.222 1.075.848 1.458.75 2.417-.54 5.589-.508 11.213-2.065 16.723-.651 2.307-.485 4.936-1.136 7.307-1.231 4.495-1.881 9.113-3.65 13.514l-.324.775c-1.197 2.741-2.001 5.775-3.155 8.611-.73 1.952-48.666 231.673-211.472 173.091-77.207-27.782-147.128 119.71-253.33 88.363-300.664-88.747-157.682-457.547-36.571-512.616.929-.24 1.822-.598 2.659-1.066a5.724 5.724 0 014.471-1.264z" fill="#64FCD9"/><path fill-rule="evenodd" clip-rule="evenodd" d="M301.501 552.818c-4.211-38.951-1.209-87.953 13.866-124.114-2.763 5.175 36.973 13.64 36.552 15.858-2.763 14.549-4.533 30.947-6.911 49.035-2.701 20.547-.861 42.548 1.418 58.933 5.392 38.767-40.718 39.202-44.925.288z" fill="#fff"/><path fill-rule="evenodd" clip-rule="evenodd" d="M306.1 430.371c9.406-28.495 31.786-52.422 59.59-63.708 14.133-5.737 30.559-8.363 22.232-6.489-1.659 10.223 8.814 19.251 19.16 19.738 10.346.487 19.964-5.057 28.393-11.077-5.533-9.876.041-5.013 8.085 6.165.277.617-39.523 9.649-64.385 27.752-21.732 15.824-29.593 40.994-21.578 41.81a18.926 18.926 0 01-12.421 1.085s-28.03-8.026-39.076-15.276z" fill="#fff"/><path fill-rule="evenodd" clip-rule="evenodd" d="M306.1 430.37c9.406-28.495 31.786-52.421 59.59-63.707 5.129-2.082 18.33-6.742 25.574-10.639C404 349.174 401 343.203 401 338.87c0-4.831 21.559-10.758 26.043-7.389 3.137 2.357 1.497 11.117 3.318 18.439 2.856 11.486 8.518 22.362 10.79 20.739 6.812 9.595 36.211 17.039 60.617 43.688 10.502 11.467 13.368 24.718 17.119 34.833 3.277 8.838 9.538 14.894 11.211 17.221.126.281-39.476 19.054-39.476 19.054s10.108 57.215-3.432 67.075c-21.732 15.824-141.157 60.367-133.142 61.183-2.246 1.02-11.896-79.424-10.264-117.56 1.172-27.371 9.849-51.15 8.135-51.591 0 0-34.773-6.941-45.819-14.192z" fill="#fff"/><path fill-rule="evenodd" clip-rule="evenodd" d="M500.708 534.072c19.771-7.119 21.742-59.317 22.229-59.766a347.437 347.437 0 016.537 41.382c.591 6.117 1.017 12.314.06 18.384-1.006 6.377-3.516 12.437-6.634 18.089-6.912 12.53-16.938 23.328-28.922 31.148-1.94 1.265-3.989 2.477-6.269 2.881-5.043.894-9.861-2.298-13.695-5.694-19.372-17.159-29.085-42.501-37.148-67.091-2.684-8.187-19.183-52.687-16.302-54.039-4.735-1.584-10.062-1.32-14.617.725-2.753 1.236-4.968-3.386-3.234-5.856 1.734-2.47 5.033-3.104 7.9-4.047 2.868-.943 5.991-3.066 5.782-6.076a85.74 85.74 0 00-14.754 3.615c-2.276.777-4.608-1.431-5.184-3.766-1.542-6.261 4.774-11.614 10.723-14.101a54.945 54.945 0 0119.563-4.217c1.363-.039 22.611 2.907 18.31 19.832-.052.203-.634 2.037-.68 2.252-4.5 21.132 33.065 94.724 56.335 86.345z" fill="#fff"/><path fill-rule="evenodd" clip-rule="evenodd" d="M411.268 426.819c-2.163-1.13-1.059-4.389.181-6.491a56.366 56.366 0 007.439-22.283c5.995-.797 12.281.886 17.076 4.571.78.599 1.554 1.295 1.863 2.229.399 1.204-.059 2.507-.512 3.692l-6.711 17.531c3.828.003-14.801 3.345-19.336.751zm-61.622-144.557c-7.267-65.321-15.035-61.673-23.609-75.304-12.671-20.147-9.354-46.606-.761-68.801 5.384-13.904 12.727-27.194 22.833-38.157 1.828.569 2.454 2.983 1.88 4.809-.575 1.826-1.959 3.259-3.072 4.817-3.317 4.64-4.283 10.876-2.526 16.303 2.508 7.744 10.012 13.03 17.883 15.109 7.87 2.08 16.168 1.487 24.286.879l23.925-1.792c7.971-.596 16.329-1.13 23.618 2.15 7.289 3.28 12.917 11.736 10.214 19.258-.833 2.318.494 4.934 2.388 6.508 1.893 1.574 4.274 2.408 6.468 3.527 9.244 4.715 14.997 14.572 17.257 24.7 2.26 10.128 1.509 20.655.745 31.005l-1.597 21.652c-.368 4.99-.62 10.429 2.252 14.526 3.459 4.934-.338 11.738-4.82 15.767-4.482 4.028-10.135 7.787-11.16 13.725-1.346 7.799-25.489 43.098-48.809 45.928-22.579 2.739-54.134-27.299-57.395-56.609z" fill="#fff"/><path fill-rule="evenodd" clip-rule="evenodd" d="M359.175 291.089c6.558.439 13.146.422 19.701-.05 2.462-.178 5.372-.729 6.355-2.994 1.182-2.724 4.034-4.639 7.003-4.701 2.97-.063 5.9 1.73 7.196 4.403 1.391 2.871 5.482 2.722 8.601 2.047a172.068 172.068 0 0024.356-7.193c3.591-1.356 5.679-5.293 5.988-9.118.309-3.826-.823-7.605-1.941-11.276-9.98 2.29-20.269 2.801-30.496 3.303l-61.837 3.039 3.904 17.209c.285 1.257.606 2.581 1.501 3.508.895.927 2.568 1.231 3.436.279-2.7-6.343-5.457-13.185-4.058-19.935l5.205 17.476c.322 1.079.682 2.219 1.533 2.957.95.823 2.298.962 3.553 1.046zm76.89-30.755c.792-.944.186-2.859-1.029-2.649-29.254 5.045-59.222 2.976-88.845 4.91-1.62.105-3.759.786-3.618 2.403 4.594 1.554 9.577 1.283 14.418.996l75.677-4.5c1.23-.074 2.605-.216 3.397-1.16z" fill="#E7EAEE"/><path fill-rule="evenodd" clip-rule="evenodd" d="M417.636 455.713c0 6.064 11.881 39.408 9.407 31.155.28 3.227 2.304 9.039-.481 10.694-1.776 1.055-4.017.72-6.045.33a287.118 287.118 0 01-47.505-13.455c-2.71-1.027-5.676-2.352-6.767-5.037-1.712-4.213 2.183-8.454 5.692-11.346l23.096-19.037c.569-.47 1.218-.966 1.954-.913.735.053 1.36 1.024.84 1.547-8.262 6.768 19.809-.002 19.809 6.062z" fill="#fff"/><path fill-rule="evenodd" clip-rule="evenodd" d="M426.562 497.562c-1.776 1.055-4.016.72-6.045.33a287.048 287.048 0 01-47.505-13.455c-2.71-1.026-5.676-2.352-6.767-5.037-1.712-4.213 4.176-9.401 8.755-11.9 7.954-4.342 16.286 5.129 27.416 11.9 11.796 7.176 26.17 11.787 25.826 10.821" fill="#FFB61D"/><path fill-rule="evenodd" clip-rule="evenodd" d="M464.173 314.784c-.638.096-.431 1.073-.057 1.599l11.682 16.446c.662.932 1.3 2.297.484 3.097-11.324-5.023-20.496-14.706-24.898-26.285.796-.898 2.144.318 2.71 1.376a64.498 64.498 0 0015.418 18.973c.644.54 1.612 1.072 2.245.52a83.02 83.02 0 01-14.321-23.651c-.143-.362-.285-.754-.19-1.13.187-.736 1.208-.961 1.884-.616.677.346 1.084 1.043 1.477 1.693a35.04 35.04 0 0014.377 13.204c.578-1.12-.43-2.37-1.328-3.255a54.602 54.602 0 01-14.287-24.503c-.501-1.856-.279-4.633 1.642-4.713a39.187 39.187 0 003.622 12.654c2.377 4.948 5.761 9.331 9.119 13.673l8.132 10.512c-.521.683-1.583.481-2.39.188a41.934 41.934 0 01-15.321-9.782zM400.5 302c8.008 0 14.5 4.701 14.5 10.5s-4.907 11.106-12.915 11.106c-8.009 0-16.085-5.307-16.085-11.106 0-5.799 6.492-10.5 14.5-10.5zm0 3c-6.521 0-12.463 3.605-12.463 7.5s6.074 8.918 12.595 8.918c6.522 0 11.368-5.023 11.368-8.918 0-3.895-4.979-7.5-11.5-7.5z" fill="#00160A"/><path fill-rule="evenodd" clip-rule="evenodd" d="M255.34 428.783a3.09 3.09 0 00-.308 1.298l-2.568-1.298a219630.5 219630.5 0 019.274 22.907c.475 1.172.968 2.374 1.838 3.292-.074-2.305-.757-4.541-1.434-6.745l-5.889-19.168c-.152-.325-.603-.466-.913-.286zm13.743-24.206c.982 1.506 1.063 3.403 1.549 5.134 1.04 3.703 3.91 6.574 5.745 9.954 1.835 3.381 2.298 8.242-.792 10.532-1.488 1.104-1.21 3.348-1.005 5.189.205 1.841-.277 4.277-2.112 4.533-1.041.145-2.044-.585-2.558-1.502-.515-.917-.648-1.991-.791-3.032a86.027 86.027 0 00-5.382-20.306c-.654-1.63-1.291-3.687-.094-4.972 1.514-1.627-.475-4.648.905-6.39 1.117-1.409 3.553-.646 4.535.86zm120.134-4.446l2.083-4.798c.849-1.958 2.409-4.295 4.478-3.77.619.157 1.148.571 1.56 1.059 2.11 2.499 1.142 6.427-.829 9.037a14.979 14.979 0 01-5.105 4.287c-1.217.623-2.733-.529-3.01-1.868-.277-1.338.279-2.693.823-3.947zm5.379.041c.628-.778 1.271-1.583 1.549-2.543.278-.96.101-2.125-.689-2.738a18.897 18.897 0 00-5.374 9.014c.638.586 1.61-.137 2.154-.81l2.36-2.923zm-46.418 3.782c3.147-2.449 8.398-.956 10.06 2.668 1.662 3.624-.346 8.363-3.987 9.987a8.18 8.18 0 01-3.039.701c-1.921.064-3.946-.644-5.101-2.18-1.203-1.602-1.28-3.797-.9-5.763.399-2.065 1.307-4.122 2.967-5.413z" fill="#FFB61D"/><path fill-rule="evenodd" clip-rule="evenodd" d="M421.958 252.685c-2.56 2.477-6.72 1.714-10.16.784l-4.904-1.326c-1.628-.44-3.632-.784-4.78.453-1.068 1.15-3.196-.431-2.885-1.97.311-1.538 2.005-2.406 3.566-2.569 5.502-.575 10.476 4.66 15.936 3.766 1.234-.203 3.025-.372 3.227.862z" fill="#00160A"/><path fill-rule="evenodd" clip-rule="evenodd" d="M342.936 395.703c1.318-1.093 3.212-1.6 4.798-.952 1.585.648 2.608 2.621 1.921 4.19-.472 1.076-1.559 1.735-2.617 2.247-1.449.7-3.254 1.233-4.595.342-1.888-1.253-1.252-4.381.493-5.827m1.212 2.86c-.576.288-.437 1.334.195 1.461a13.638 13.638 0 003.926-1.87c-1.129-1.062-3.199-.83-4.064.456l-.057-.047z" fill="#FFB61D"/><path fill-rule="evenodd" clip-rule="evenodd" d="M417.884 332.599c-2.239.487-4.727-.522-5.994-2.431 10.474.876 21.25-2.842 28.956-9.989 7.707-7.147 12.224-17.613 12.138-28.123a6.386 6.386 0 00-1.694.754c-1.187-.505-.405-2.3.505-3.214l17.793-17.864c3.078-3.09-.729-8.91-5.091-8.891-4.361.018-7.859 3.611-10.154 7.32a38.684 38.684 0 00-5.245 13.928l-9.169-20.014c-1.081 2.069-.459 4.361.177 6.703.404 1.487.813 2.995.794 4.477-.079 6.409-7.508 9.736-13.668 11.503l-16.763 4.809c-4.436 1.273-10.554 1.816-12.36-2.431-1.771-4.163-8.853-4.278-10.758-.176-1.804 3.881-6.972 4.517-11.252 4.5a249.871 249.871 0 01-24.403-1.288c-1.243-.127-2.576-.302-3.5-1.144-.83-.756-1.162-1.899-1.458-2.982l-5.325-19.491c-.581-2.125-1.148-4.457-.242-6.465.906-2.008 4.004-3.038 5.331-1.279a80.126 80.126 0 01-1.293-32.173l3.318 31.918 80.814-3.397c1.758-.074 3.806-.31 4.716-1.816.799-1.319.335-3.009-.157-4.471a454.22 454.22 0 00-6.289-17.508c-.684-1.79-1.435-3.654-2.9-4.889-3.112-2.623-7.784-1.324-11.655-.064-15.313 4.982-31.808 7.213-47.61 4.116-15.802-3.098-30.835-11.938-39.409-25.569-12.672-20.147-9.355-46.606-.761-68.801 5.384-13.904 12.727-27.194 22.833-38.157 1.828.569 2.454 2.983 1.88 4.809-.432 1.373-1.322 2.524-2.211 3.673-.292.379-.585.758-.861 1.144-3.317 4.64-4.283 10.876-2.526 16.303 2.508 7.744 10.012 13.03 17.883 15.109 7.87 2.08 16.168 1.487 24.286.879l23.925-1.792c7.97-.596 16.329-1.13 23.618 2.15 7.289 3.28 12.917 11.736 10.214 19.258-.833 2.318.494 4.934 2.387 6.508 1.368 1.137 2.989 1.887 4.61 2.638.625.289 1.249.578 1.859.889 9.244 4.715 14.997 14.572 17.257 24.7 2.26 10.128 1.508 20.655.745 31.005l-1.597 21.652c-.368 4.99-.62 10.429 2.252 14.526 3.459 4.934-.338 11.738-4.82 15.767-.768.69-1.571 1.373-2.379 2.06-3.905 3.321-7.931 6.745-8.781 11.665-2.443 14.146-8.51 29.341-21.601 35.23-1.787.804-3.654 1.406-5.521 2.008-1.805.582-3.609 1.163-5.342 1.928-1.64.723-3.208 1.606-4.775 2.488-2.269 1.278-4.534 2.554-7.009 3.339-7.666 2.432-16.031-.232-23.153-3.972-16.385-8.605-29.56-23.165-36.491-40.325 2.677-.013 4.272 2.876 5.419 5.294 6.908 14.569 18.89 26.672 33.389 33.727 8.628 4.198 19.909 6.272 27.118-.061zm27.371-160.163c-.797-.334-1.664-.646-2.508-.46-1.095.24-1.761 1.182-2.434 2.133l-.001.001c-.312.441-.626.885-.985 1.262-1.133 1.188-3.933.899-3.551-.698 2.132-4.244 4.295-8.587 4.936-13.293.641-4.707-.505-9.927-4.087-13.045-2.477-2.156-5.788-3.068-9.022-3.639-10.37-1.832-20.944-.804-31.469.219-2.235.217-4.467.434-6.695.624-12.72 1.081-26.096 1.133-37.536-4.532-7.776-3.85-12.405-13.191-10.761-21.71-13.678 16.654-19.831 38.916-18.235 60.408.459 6.179 1.537 12.357 3.802 18.125 5.6 14.264 18.362 25.098 32.846 30.102 14.484 5.003 30.489 4.549 45.294.594 14.805-3.955 28.526-11.259 41.308-19.711.833-.55 1.913.654 1.654 1.617-.259.964-1.214 1.544-2.089 2.024l-22.173 12.186c4.431 2.327 6.826 7.198 8.708 11.835a158.9 158.9 0 016.114 18.115l23.767-19.09c.825-.662 2.5-.989 2.535.068l-22.671 18.853c-1.144.951-2.407 2.216-2.111 3.675l21.561-17.757c2.303-1.897 4.763-4.058 5.233-7.004 2.106-13.204 4.143-27.145-.693-39.611-3.682-9.49-11.347-17.36-20.737-21.291zm-89.633 117.607c.95.824 2.298.962 3.553 1.046 6.558.439 13.146.422 19.701-.05 2.462-.178 5.372-.729 6.355-2.994 1.182-2.724 4.034-4.639 7.004-4.701 2.969-.062 5.899 1.731 7.195 4.403 1.391 2.871 5.482 2.722 8.601 2.047 8.281-1.793 16.43-4.2 24.356-7.193 3.591-1.356 5.679-5.292 5.988-9.118.309-3.826-.823-7.605-1.941-11.276-9.98 2.29-20.269 2.801-30.496 3.304l-61.836 3.038 3.903 17.209c.285 1.257.606 2.581 1.501 3.508.895.927 2.568 1.231 3.436.279-2.7-6.343-5.457-13.185-4.058-19.935l5.206 17.476c.321 1.079.681 2.22 1.532 2.957zm77.046-28.549c1.23-.073 2.605-.216 3.397-1.16.792-.944.186-2.858-1.029-2.649-18.723 3.229-37.74 3.544-56.771 3.859-10.703.178-21.411.355-32.074 1.051-1.62.106-3.759.786-3.618 2.403 4.594 1.554 9.577 1.284 14.418.996l75.677-4.5zm31.973-14.406c1.149-1.076 1.419-2.768 1.623-4.329l.56-4.28-24.66 20.469c-.37.307-.761.648-.867 1.116-.112.494.122.993.35 1.445l7.629 15.123c1.584-11.204 7.101-21.813 15.365-29.544zm1.469 4.836c.069-1.158.095-2.447-.669-3.32a85.445 85.445 0 00-9.997 14.502c-.347.635-.647 1.527-.094 1.994a27.844 27.844 0 019.148-5.078c.994-.326 1.225-1.604 1.288-2.648l.324-5.45zM365.69 366.663c-27.804 11.286-50.184 35.213-59.591 63.708 11.047 7.25 39.077 15.276 39.077 15.276a18.926 18.926 0 0012.421-1.085 119.862 119.862 0 01-48.826-16.099c12.966-32.326 42.012-57.73 75.776-66.277 2.843 5.929 5.791 12.003 10.587 16.501 4.796 4.498 11.927 7.13 18.086 4.828a115.31 115.31 0 0025.03-13.043c3.086 6.142 3.694 13.474 1.724 20.053l-.588 1.737c.217-.572.413-1.152.588-1.737l3.733-11.042 37.475 23.031c7.455 4.582 15.044 9.277 20.692 15.961 5.8 6.863 9.145 15.316 12.488 23.764 3.417 8.635 6.832 17.267 12.867 24.192a166.353 166.353 0 01-36.141 20.031l-10.435-36.744 13.303 80.288a191.483 191.483 0 00-2.673-41.181 122.917 122.917 0 0039.274-22.839c-7.36-6.729-10.91-16.131-14.489-25.611-2.568-6.802-5.151-13.644-9.168-19.566-11.603-17.106-44.836-35.683-58.125-43.111-3.389-1.894-5.48-3.063-5.585-3.298-8.044-11.178-12.904-24.621-13.866-38.359-1.578 11.21.617 22.918 6.151 32.794-8.429 6.02-18.048 11.564-28.394 11.077-10.345-.487-20.818-9.515-19.16-19.738 8.328-1.874 14.461-10.683 13.33-19.143-3.15 13.03-17.313 18.523-30.293 23.557l-.005.002-.005.002c-1.786.693-3.549 1.377-5.258 2.071zm-63.996 187.914c-6.705 1.545-14.758 4.758-20.188 11.206-3.796 4.508-6.393 8.007-8.581 10.954-3.618 4.875-6.116 8.24-11.068 12.165 2.823-1.723 6.083 2.03 6.251 5.333.058 1.145-.048 2.316-.153 3.481-.199 2.194-.395 4.371.506 6.333 2.358-1.461 4.778-2.98 6.406-5.226 1.628-2.246 2.29-5.427.867-7.808-.487-.814.227-1.803.907-2.464a61.926 61.926 0 0114.148-10.296 8.445 8.445 0 01-.599 6.676l2.526 2.946-5.831 14.6 14.591-14.822c2.904-2.95 6.889-6.155 10.724-4.598 1.949.791 3.18 2.599 4.388 4.372.268.393.535.785.808 1.164a22.618 22.618 0 0012.15 8.469 4.525 4.525 0 011.809-3.343 11.05 11.05 0 006.475 4.853l-3.609-15.433c-.191-.816-.371-1.717.026-2.454.998-1.853 3.868-.555 5.208 1.068 1.341 1.622 3.327 3.652 5.146 2.594l-1.449-4.992c-.489-1.685.326-4.504 1.831-3.605.494.296.675.91.816 1.468l2.756 10.919c3.5-3.987 3.123-10.282.545-14.919-.39-.702-.715-1.447-1.058-2.233-1.924-4.407-4.4-10.078-21.925-16.356-2.575-.923-5.466-1.013-8.357-1.102-1.446-.045-2.891-.09-4.297-.238-1.08-.115-4.635-.06-9.168.755 5.155 37.413 1.502 37.439-2.601.533zm2.169-3.716a31.696 31.696 0 014.388-.281c-.232 0 46.926-2.251 46.926 32.887 0 3.399-2.015 7.583-5.395 7.462a451.514 451.514 0 0024.918 53.038 66.672 66.672 0 01-27.933 2.869c-12.491 12.105-32.666 15.446-48.392 8.013 2.091 3.536-4.303 5.697-8.332 4.894l-42.771-8.522c-3.362-.67-7.549-2.294-7.493-5.722.041-2.549 2.524-4.26 4.667-5.64 13.419-8.646 23.91-21.752 29.407-36.738-1.897 4.652-10.604 2.677-10.308-2.338-11.864-4.48-23.784 5.751-32.365 15.088l-48.77 53.065 176.89 8.906c9.942.5 17.909-7.707 24.407-15.247l45.783-53.123-72.791-6.393a681.903 681.903 0 0179.339 4.684 1452.067 1452.067 0 01-61.983 69.718c-3.229 3.406-8.497 3.603-13.19 3.557a2629.686 2629.686 0 01-179.142-7.87c-2.948-1.309-1.104-5.77 1.074-8.148l44.605-48.686c10.059-10.98 23.919-23.018 37.946-18.02 1.661-1.102.268-2.552-1.334-4.218-1.074-1.117-2.241-2.332-2.646-3.605-.532-1.672.484-3.405 1.456-4.866 9.744-14.653 22.065-30.758 38.515-34.322-4.069-38.49-4.739-78.624 10.141-114.317-9.97 36.969-12.57 75.908-7.617 113.875zm138.807-90.317c-.024-2.945.442-5.96.901-8.936.981-6.348 1.934-12.519-1.951-17.455-3.416-4.34-9.409-5.692-14.93-5.829-9.938-.246-20.522 2.242-27.541 9.283-.836.839-1.163 3.089-.246 2.887 2.106-.465 3.846-1.43 5.556-2.379 1.518-.843 3.013-1.672 4.721-2.128 3.632-.969 7.795-.696 10.756 1.62-7.414-1.35-21.702 2.889-20.787 6.504.671 2.651 4.836 1.058 8.512-.348 1.34-.512 2.615-.999 3.632-1.248 3.299-.805 8.244-.449 8.294 2.947.03 2.052-2.018 3.435-3.82 4.419-1.375.752-3.283 1.486-5.19 2.219-3.815 1.468-7.63 2.935-7.19 4.546.615 2.254 3.552 1.316 6.841.267 2.567-.819 5.349-1.707 7.408-1.2 4.567 1.125 6.543 6.387 7.799 10.919l.654 2.36c6.575 23.732 13.172 47.547 23.002 70.12 6.804 15.624 15.521 31.042 29.092 41.35 1.591 1.208 3.331 2.375 5.316 2.601 1.93.22 3.838-.479 5.616-1.259 14.028-6.151 25.061-18.017 32.158-31.59 2.839-5.429 5.122-11.217 5.974-17.283.765-5.438.366-10.968-.17-16.434a330.37 330.37 0 00-5.195-34.28c-.562-2.733-.996-6.02 1.055-7.911a347.437 347.437 0 016.537 41.382c.59 6.117 1.017 12.314.06 18.384-1.006 6.376-3.516 12.437-6.634 18.089-6.912 12.53-16.938 26.328-28.923 34.148-1.939 1.265-3.988 2.477-6.268 2.881-5.043.894-9.861-2.298-13.695-5.694-19.372-17.159-29.086-45.501-37.148-70.091a1006.038 1006.038 0 01-7.737-24.663c.279 3.227.218 7.166-2.567 8.82-1.776 1.055-4.016.72-6.045.33a287.118 287.118 0 01-47.505-13.455c-2.71-1.026-5.676-2.352-6.767-5.037-1.712-4.213 2.183-8.454 5.692-11.346l23.096-19.037c.569-.469 1.218-.966 1.954-.913.735.053 1.36 1.024.84 1.547l-24.784 20.304c-2.81 2.301-5.906 5.969-4.043 9.087.821 1.374 2.39 2.086 3.872 2.696 14.742 6.063 30.269 10.002 45.864 13.304 1.95.413 4.013.811 5.901.172s3.441-2.718 2.773-4.596l-8.056-22.68c-1.065-2.998-1.671-7.22 1.21-8.572-4.735-1.584-10.062-1.32-14.617.725-2.753 1.236-4.968-3.386-3.234-5.856 1.457-2.075 4.018-2.855 6.5-3.61a60.72 60.72 0 001.4-.437c2.867-.943 5.991-3.066 5.782-6.077a85.836 85.836 0 00-14.754 3.616c-2.276.777-4.609-1.431-5.184-3.766-1.543-6.261 4.773-11.614 10.722-14.101a54.955 54.955 0 0119.564-4.217c1.363-.039 2.152-1.52 2.654-2.788l6.546-16.531-14.435-4.066-10.24 24.561c-2.163-1.13-1.059-4.389.181-6.491a56.35 56.35 0 007.439-22.283c5.995-.797 12.281.886 17.076 4.571.78.599 1.554 1.295 1.863 2.229.4 1.204-.059 2.507-.512 3.692l-6.711 17.531c6.001.005 11.833 3.802 14.265 9.288 2.115 4.771 1.692 10.057 1.268 15.353v.001c-.173 2.165-.347 4.332-.347 6.466 0 13.873 7.427 26.519 14.623 38.38l7.6 12.527c2.457 4.049 4.928 8.118 7.997 11.724 5.839 6.86 13.812 11.876 22.523 14.17-7.647.522-15.082-3.269-20.632-8.555-5.549-5.286-9.518-11.978-13.415-18.577l-12.091-20.477c-4.632-7.846-9.651-16.712-9.725-25.824zm-20.947 2.506c-.179-.508-.41-1.072-.909-1.272-.837 1.312-.478 3.026-.052 4.523a90.512 90.512 0 006.734 16.953c-1.1-6.928-3.442-13.588-5.773-20.204zm-.598-63.157a27.64 27.64 0 0011.836 2.983 20.66 20.66 0 00-11.836-2.983zm7.038 86.631c-.197.558.245 1.243.834 1.294a11.59 11.59 0 00-1.369-4.275 3.388 3.388 0 00.449 2.873l.086.108zm54.566 121.725c-.792-.291-.78-1.401-.622-2.23l2.433-12.705c.153-.798.5-1.78 1.31-1.838 1.02-.073 1.379 1.324 1.336 2.346a42.549 42.549 0 01-2.557 12.84c-.318.865-1.035 1.905-1.9 1.587zM262.16 649.312c-6.674.888-14.184 1.561-19.44-2.647-.327-.261-.651-.553-.812-.94-.675-1.632 1.715-2.67 3.433-3.078 5.964-1.417 10.396-6.324 14.115-11.197a149.449 149.449 0 0020.319-36.114l.304-.779c1.839-4.718 3.778-9.697 7.914-12.558 1.649 7.234-.067 15.165-4.561 21.07.707 1.347 2.566 1.72 4.005 1.227 1.439-.493 2.553-1.623 3.611-2.716l11.674-12.071c2.742-2.835 7.083-5.836 10.183-3.399 1.013.796 1.558 1.986 2.102 3.176.208.454.416.908.649 1.34 2.684 4.961 8.269 6.596 13.924 8.252 2.646.775 5.308 1.554 7.696 2.682.825.389 2.005.738 2.483-.039.161-.263.178-.586.186-.893a37.224 37.224 0 00-3.971-17.663c4.986 2.431 10.424 5.351 12.255 10.588a352.203 352.203 0 0021.747 49.588 75.623 75.623 0 01-30.954-.805c-.207 2.511 1.882 4.985 4.392 5.202a433.187 433.187 0 00-14.908 4.806l3.755 3.098a134.33 134.33 0 01-38.346-3.025 33.948 33.948 0 001.246 6.043 176.612 176.612 0 01-27.357-7.054l1.485-3.042-7.129.948z" fill="#00160A"/><path fill-rule="evenodd" clip-rule="evenodd" d="M346.738 390.864c-.968.409-2.212.437-2.951-.31-.915-.924-.608-2.481-.039-3.651.504-1.035 1.209-2.035 2.24-2.549 1.031-.514 2.439-.398 3.151.507.438.555.552 1.307.493 2.011-.145 1.721-1.303 3.319-2.894 3.992z" fill="#FFB61D"/><path fill-rule="evenodd" clip-rule="evenodd" d="M372.603 253.06c-1.49.653-2.823-1.189-4.358-1.726-1.603-.561-3.306.373-4.759 1.252a174.697 174.697 0 01-9.339 5.268c-.649.34-1.354.687-2.081.592-.727-.095-1.407-.848-1.141-1.531.15-.384.532-.617.889-.822l7.994-4.588c3.441-1.975 7.407-4.018 11.194-2.836.968.302 1.922.864 2.364 1.777.443.912.166 2.207-.763 2.614z" fill="#00160A"/><path fill-rule="evenodd" clip-rule="evenodd" d="M379.183 309.635c-.906 2.199-2.285 4.751-4.66 4.864-2.124.101-3.786-1.956-4.286-4.022-.697-2.879.401-6.314 3.044-7.651 2.643-1.337 6.526.378 6.741 3.332.087 1.201-.38 2.364-.839 3.477zm46.506-1.858l.023.466c.138 2.273.641 4.84 2.693 5.699 1.961.822 4.226-.543 5.402-2.314 1.64-2.467 1.783-6.07-.243-8.23s-6.262-1.877-7.474.825c-.493 1.099-.451 2.352-.401 3.554zm4.098-41.872c.62-.164 1.391-.171 1.776.341.257.341.255.806.232 1.232-.102 1.869-.904 4.219-2.775 4.261-1.44.033-2.518-1.621-2.225-3.03.294-1.41 1.6-2.437 2.992-2.804zm-3.16 15.352c-.914-1.621.939-3.374 2.551-4.306 1.338-.774 3.445-1.326 4.091.078.444.966-.292 2.038-.986 2.843-.749.869-1.543 1.766-2.609 2.189-1.066.422-2.483.195-3.047-.804z" fill="#FFB61D"/><path fill-rule="evenodd" clip-rule="evenodd" d="M413.844 273.654c-.242.633-.51 1.287-1.021 1.731-.709.615-1.76.695-2.665.447-1.831-.501-3.226-2.352-3.11-4.247.115-1.896 1.803-3.592 3.701-3.629 1.899-.037 3.681 1.678 3.631 3.576-.019.733-.274 1.437-.536 2.122zm-45.813 2.843c-2.105-.218-3.673-2.637-3.012-4.647.66-2.01 3.357-3.028 5.181-1.955 1.824 1.073 2.244 3.925.808 5.479a3.616 3.616 0 01-2.977 1.123zm24.791 29.2l4.171-.778.051.653c.315 4.562-.427 6.702-2.228 6.419-1.833-.287-2.512-2.279-2.037-5.973l.043-.321zm3.238.396l-1.861.52c-.248 2.611.048 4.015.89 4.213.841.198 1.165-1.379.971-4.733zm5.194-1.326l5.583-.767.067.63c.426 4.51-.568 6.625-2.981 6.346-2.459-.285-3.366-2.257-2.723-5.916l.054-.293zm.918.479c-.372 2.198.028 4.573 1.289 4.74 1.262.167 2.179-1.354 1.888-4.178l-.471-.125c-.364-.093-.657-.16-.878-.199l-.296-.048a37.53 37.53 0 00-1.532-.19z" fill="#00160A"/><path fill-rule="evenodd" clip-rule="evenodd" d="M338.21 490.668a12217.17 12217.17 0 01-3.988 5.914c-.809-.013-.858-1.207-.627-1.983l3.723-12.539c-.875-.392-1.682.643-2.087 1.511-4.097 8.762-8.207 17.562-10.99 26.825-2.783 9.263-4.209 19.075-2.816 28.646l2.723-6.36c1.442-3.368 2.889-6.747 4.756-9.899 2.032-3.433 4.544-6.569 6.49-10.052 1.946-3.483 3.326-7.468 2.802-11.423l-2.355 3.276c-2.22-4.32 3.763-9.263 2.369-13.916zm-57.335-4.672c2.016.028.275-4.18 2.088-5.06 1.15-.557 2.208.904 2.639 2.107a87.82 87.82 0 015.036 25.245c.484 9.738 7.163 19.196 4.448 28.561-.192.663-.449 1.341-.963 1.801-1.847 1.652-4.529-.754-5.703-2.935a75.25 75.25 0 01-8.074-24.054c-.287-1.85-.521-3.759-1.422-5.4-.757-1.38-1.939-2.48-2.768-3.818-1.633-2.636-1.742-5.905-1.804-9.006l-.338-16.994c-.041-2.059.452-4.776 2.498-5.012a49.184 49.184 0 014.363 14.565z" fill="#FFB61D"/><path fill-rule="evenodd" clip-rule="evenodd" d="M242.72 646.665c5.256 4.208 12.766 3.535 19.44 2.647l7.13-.948-1.486 3.042a176.612 176.612 0 0027.357 7.054 34.037 34.037 0 01-1.246-6.043 134.333 134.333 0 0038.346 3.025l-3.754-3.098c4.94-1.692 9.91-3.294 14.908-4.806-2.51-.217-4.6-2.691-4.393-5.202a75.623 75.623 0 0030.954.805 352.318 352.318 0 01-21.747-49.588c-1.831-5.236-7.269-8.157-12.255-10.588a37.212 37.212 0 013.971 17.663c-.008.307-.024.631-.185.893-.478.777-1.659.428-2.484.039-7.487-3.536-17.68-3.652-21.619-10.934-.847-1.565-1.353-3.417-2.751-4.516-3.101-2.437-7.442.564-10.184 3.399l-11.674 12.071c-1.058 1.093-2.172 2.223-3.611 2.716-1.439.493-3.297.12-4.004-1.227 4.493-5.905 6.209-13.836 4.56-21.07-4.364 3.019-6.283 8.397-8.217 13.337a149.486 149.486 0 01-20.32 36.114c-3.719 4.873-8.151 9.78-14.115 11.197-1.718.408-4.108 1.446-3.432 3.078.16.387.484.679.811.94z" fill="#fff"/><path fill-rule="evenodd" clip-rule="evenodd" d="M345.501 551.818c-4.211-38.951-5.096-79.671 9.978-115.832-10.181 37.754-12.677 77.564-7.29 116.295 5.393 38.767 1.519 38.451-2.688-.463z" fill="#00160A"/><path fill-rule="evenodd" clip-rule="evenodd" d="M299.299 448.449a100.51 100.51 0 011.027-7.77c.235-1.364 2.246-1.706 3.347-.868 1.102.839 1.489 2.297 1.789 3.648a154.296 154.296 0 01.678 63.433c-.394 1.973-1.42 4.424-3.429 4.308-1.755-.101-2.633-2.124-3.112-3.815a687.729 687.729 0 01-10.208-40.722c-.771-3.532-1.519-7.133-1.207-10.735.313-3.601 1.841-7.265 4.802-9.339 1.142-.8 2.554-1.35 3.923-1.083 1.368.266 2.582 1.562 2.39 2.943m39.928 133.984c1.483 2.559 6.432 3.46 5.75 1.867-.682-1.593-.896-2.93-1.578-4.523-.69-1.612-.225-4.51 1.378-3.8.527.232.781.82.989 1.357 1.356 3.5 1.434 7.302 2.789 10.803 5.047-4.382 1.902-15.018-1.222-19.307-3.124-4.288-4.208-10.636-25.606-15.463-4.002-.903-8.627-.877-12.869-.806-2.79.046-21.369 3.198-30.22 14.859-8.852 11.66-9.662 14.263-16.781 21.482 2.659-.765 5.551 1.588 6.12 4.846s-1.736 7.73 0 10.545c9.771-2.286 8.182-10.488 8.777-11.226 3.669-4.56 6.716-11.751 12.787-11.944.994 2.074.59 4.432.22 6.7.956.872-1.932 10.167-3.268 15.234 4.225-5.497 10.576-8.41 14.802-13.906 2.523-3.282 6.087-6.949 10.083-5.871 2.482.669 3.944 3.986 5.691 5.871 3.421 3.69 7.502 7.16 12.477 7.911-.087-1.306 1.165-1.806 2.117-2.705 1.717 2.165 3.874 4.203 6.609 4.594-1.821-4.96-1.643-10.237-3.464-15.196-.288-.786-.577-1.659-.273-2.439.765-1.961 3.21-1.442 4.692 1.117zm197.849-296.525c2.51-.06 4.423.433 8.041 1.879 0 0 6.592 3.117 6.355 3.911-.237.793-3.983.295-5.331-.253l-1.699-.696c-3.155-1.278-4.842-1.783-6.646-1.84l-.23-.005-.013.101-.01.119c-.04.612.094 1.421.291 1.886a21.06 21.06 0 001.301 2.545l.323.526.376.044c4.836.609 9.513 2.483 12.557 5.178l.272.248c3.395 3.165 4.871 5.442 4.103 7.217-.849 1.96-3.244 1.804-6.313.529-4.442-1.844-9.113-5.501-12.415-9.982l-.265-.367-.084-.005a23.186 23.186 0 00-1.707-.027l-.423.013c-6.073.252-10.354 2.893-11.541 7.633-.399 1.591-.156 3.242.594 4.852l.147.303.055.002c5.576.225 10.84 1.86 13.755 4.508l.226.211c1.571 1.521 2.562 2.8 2.99 3.892.578 1.477.152 2.876-1.228 3.487-1.641.728-4.547.11-7.783-1.393-4.093-1.902-7.542-4.555-9.668-7.59l-.094-.137-.301.006c-.274.007-.549.018-.824.033l-.412.025c-6.601.453-11.431 3.019-12.667 7.068-.461 1.511-.088 3.583.895 5.746l.052.113.277-.006c3.209-.04 6.453 1.014 9.332 3.314l.473.383c.354.279 1.007.779.945.73l.413.331c1.852 1.521 2.605 2.768 1.738 4.493-2.2 4.382-7.202 2.884-11.639-1.789a24.458 24.458 0 01-3.066-3.964l-.175-.287-.238.048c-2.294.491-4.5 1.684-6.392 3.495l-.235.229c-3.863 3.856-4.825 8.823-2.26 12.727l.178.262.157.071c.892.412 1.866.927 3.024 1.58l1.188.679 1.404.81c.148.084.273.166.388.258.362.29.593.579.622 1.175.05 1.055-.64 1.498-1.354 1.593a2.028 2.028 0 01-.528-.003c-.386-.046-.96-.194-1.62-.407-1.583-.51-3.032-1.162-3.766-1.824a13.87 13.87 0 01-1.378-1.429l-.046-.057-.013-.005a13.86 13.86 0 00-2.181-.687l-.222-.049c-2.4-.505-4.962-.353-8.777.339-6.018 1.092-8.881 6.812-7.841 11.555l.025.11.092.034c1.013.375 2.047.96 3.458 1.872l1.242.809c1.369.88 2.293 1.751 2.824 2.928.656 1.457-.486 3.893-2.437 3.343-3.767-1.064-6.212-3.409-7.452-6.232l-.107-.253-.054-.008c-6.02-.855-14.057 2.202-18.978 6.987l-.286.284c-1.967 1.989-3.143 3.948-3.462 5.802l-.013.084.318-.024c1.374-.089 2.612-.06 3.619.099l.295.052c4.586.888 7.415 1.886 8.78 3.106 1.757 1.571 1.314 3.517-.491 4.845-2.158 1.587-7.273 2.963-8.624 2.264-3.578-1.849-5.731-4.197-6.571-6.774l-.059-.19-.059.011c-1.922.35-3.971.888-5.886 1.587l-.408.153c-5.399 2.058-8.304 5.053-9.073 8.229-.927 3.828 7.823 11.595 7.147 12.073-.677.478-3.523-2.069-4.919-3.392l-.239-.227c-3.946-3.725-5.274-5.602-4.976-8.738.445-4.676 4.638-8.326 10.991-10.748a39.047 39.047 0 016.965-1.913l.131-.024.011-.141c.228-2.646 1.653-5.401 4.171-8.019l.218-.224c5.142-5.202 13.43-8.643 20.31-8.278l.356.023-.022-.213c-.557-5.846 3.072-12.26 10.096-13.731l.373-.073 1.016-.177c3.302-.547 5.791-.678 8.195-.281l.414.075-.059-.175c-1.438-4.46.003-9.475 3.794-13.402l.24-.244c2.179-2.175 4.755-3.668 7.467-4.381l.132-.034-.075-.185c-.934-2.383-1.25-4.733-.73-6.72l.076-.268c1.648-5.398 7.416-8.544 14.92-9.155l.411-.031.202-.013-.06-.163c-.618-1.766-.779-3.608-.373-5.466l.068-.293c1.556-6.21 7.051-9.6 14.328-9.901l.464-.014-.055-.104a23.577 23.577 0 01-.591-1.22l-.18-.411c-.383-.901-.594-2.178-.524-3.253.109-1.672.875-2.982 2.527-3.022zm-80.399 92.177c-.777-.15-1.802-.186-2.979-.117l-.364.024.043.107c.66 1.563 2.073 3 4.291 4.256l.399.218.165-.012.228-.027a14.25 14.25 0 001.734-.365c1.481-.398 2.83-.955 3.565-1.495l.093-.071.159-.134-.072-.061c-.882-.707-3.153-1.502-6.86-2.243l-.402-.08zm54.889-49.313l.04.057a21.787 21.787 0 001.863 2.25c3.152 3.319 5.81 4.168 6.724 2.617l.017-.031c-.008 0-.017-.004-.027-.014l-.053-.065c-.183-.255-.499-.557-.998-.956l-.286-.225-.79-.608-.328-.264c-1.793-1.497-3.763-2.381-5.765-2.705l-.397-.056zm15.53-15.858l.095.1c1.766 1.802 4.127 3.426 6.847 4.689 1.957.91 3.752 1.397 4.715 1.438l.105.002-.055-.099c-.324-.556-.943-1.31-1.859-2.22l-.236-.23c-1.826-1.768-5.229-3.067-9.121-3.615l-.491-.065zm15.03-15.328l.287.315c2.721 2.945 6.044 5.319 9.19 6.626.727.302 1.376.507 1.898.611l.158.028-.101-.162c-.542-.837-1.525-1.939-2.941-3.259-1.98-1.846-4.976-3.295-8.273-4.108l-.218-.051z" fill="#FFB61D"/><path fill-rule="evenodd" clip-rule="evenodd" d="M442.747 171.976c-1.604.351-2.287 2.207-3.42 3.396-1.133 1.188-3.933.899-3.551-.698 2.131-4.244 4.294-8.587 4.936-13.293.641-4.707-.505-9.927-4.087-13.045-2.477-2.157-5.789-3.068-9.023-3.639-12.571-2.22-25.443-.238-38.163.843-12.72 1.081-26.097 1.133-37.537-4.532-7.775-3.851-12.404-13.191-10.76-21.71-13.678 16.654-19.831 38.916-18.235 60.407.459 6.18 1.537 12.358 3.802 18.126 5.6 14.264 18.362 25.098 32.846 30.102 14.484 5.003 30.489 4.548 45.294.594 14.804-3.955 28.526-11.259 41.308-19.711.832-.55 1.913.654 1.654 1.617-.259.964-1.214 1.544-2.089 2.024l-22.173 12.186c4.431 2.327 6.826 7.198 8.708 11.835a158.9 158.9 0 016.114 18.115l23.767-19.09c.825-.662 2.5-.989 2.535.068l-22.671 18.853c-1.144.951-2.408 2.216-2.112 3.674l21.562-17.756c2.302-1.897 4.763-4.058 5.233-7.004 2.106-13.204 4.143-27.145-.693-39.611-3.682-9.49-11.347-17.36-20.737-21.291-.797-.334-1.664-.646-2.508-.46z" fill="#fff"/><path fill-rule="evenodd" clip-rule="evenodd" d="M391.31 287.098a1.251 1.251 0 011.182 1.315l-.046.797c-.204 3.361-.517 5.513-1.002 6.614s.606 1.085.975.997c.369-.089 4.482-4.448 4.963-3.953a1.25 1.25 0 01-.026 1.768l-.522.502c-2.115 2.016-3.484 3.071-4.415 3.294-.819.196-2.343.672-2.537-.4-.37-2.05 1.032-4.272 1.382-7.034.226-1.791-.331-3.888-.082-3.9h.128z" fill="#00160A"/></svg>